KanzalMarjaan-Regular.ufo
<glyph name="exclam" format="2">
  <advance width="378"/>
  <unicode hex="0021"/>
  <outline>
    <contour>
      <point x="119" y="348" type="qcurve"/>
      <point x="91" y="468" type="line"/>
      <point x="80" y="516" type="line"/>
      <point x="76" y="539"/>
      <point x="70" y="562" type="qcurve"/>
      <point x="69" y="572"/>
      <point x="63" y="593" type="qcurve"/>
      <point x="57" y="625" type="line"/>
      <point x="50" y="655" type="line"/>
      <point x="50" y="662"/>
      <point x="47" y="671" type="qcurve"/>
      <point x="32" y="750" type="line"/>
      <point x="29" y="771"/>
      <point x="27" y="779" type="qcurve"/>
      <point x="27" y="782" type="line"/>
      <point x="25" y="788"/>
      <point x="24" y="799" type="qcurve"/>
      <point x="22" y="806"/>
      <point x="22" y="813" type="qcurve"/>
      <point x="21" y="814" type="line"/>
      <point x="14" y="864" type="line"/>
      <point x="10" y="888"/>
      <point x="10" y="897" type="qcurve"/>
      <point x="4" y="948" type="line"/>
      <point x="3" y="955"/>
      <point x="3" y="965" type="qcurve"/>
      <point x="2" y="965" type="line"/>
      <point x="2" y="976" type="line"/>
      <point x="1" y="977" type="line"/>
      <point x="1" y="990" type="line"/>
      <point x="0" y="995"/>
      <point x="0" y="1105" type="qcurve"/>
      <point x="1" y="1107" type="line"/>
      <point x="2" y="1127" type="line"/>
      <point x="3" y="1130"/>
      <point x="5" y="1147" type="qcurve"/>
      <point x="7" y="1153"/>
      <point x="8" y="1162" type="qcurve"/>
      <point x="21" y="1206" type="line"/>
      <point x="33" y="1231" type="line"/>
      <point x="37" y="1235"/>
      <point x="39" y="1241" type="qcurve"/>
      <point x="41" y="1242" type="line"/>
      <point x="44" y="1247"/>
      <point x="50" y="1253" type="qcurve"/>
      <point x="57" y="1261" type="line"/>
      <point x="59" y="1261" type="line"/>
      <point x="59" y="1262" type="line"/>
      <point x="70" y="1270" type="line"/>
      <point x="81" y="1278"/>
      <point x="96" y="1282" type="qcurve"/>
      <point x="102" y="1283"/>
      <point x="110" y="1286" type="qcurve"/>
      <point x="156" y="1286" type="line"/>
      <point x="177" y="1280" type="line"/>
      <point x="191" y="1272"/>
      <point x="211" y="1257" type="qcurve"/>
      <point x="212" y="1255"/>
      <point x="221" y="1245" type="qcurve"/>
      <point x="236" y="1225"/>
      <point x="247" y="1196" type="qcurve"/>
      <point x="251" y="1184" type="line"/>
      <point x="251" y="1181" type="line"/>
      <point x="256" y="1172"/>
      <point x="258" y="1153" type="qcurve"/>
      <point x="259" y="1151" type="line"/>
      <point x="262" y="1136" type="line"/>
      <point x="262" y="1129"/>
      <point x="264" y="1119" type="qcurve"/>
      <point x="267" y="1098"/>
      <point x="267" y="980" type="qcurve"/>
      <point x="266" y="978" type="line"/>
      <point x="265" y="954" type="line"/>
      <point x="263" y="937" type="line"/>
      <point x="263" y="924"/>
      <point x="261" y="920" type="qcurve"/>
      <point x="260" y="903" type="line"/>
      <point x="257" y="891"/>
      <point x="255" y="870" type="qcurve"/>
      <point x="252" y="843"/>
      <point x="250" y="838" type="qcurve"/>
      <point x="248" y="821" type="line"/>
      <point x="233" y="741" type="line"/>
      <point x="229" y="726" type="line"/>
      <point x="229" y="719"/>
      <point x="226" y="711" type="qcurve"/>
      <point x="223" y="695" type="line"/>
      <point x="216" y="668"/>
      <point x="208" y="627"/>
      <point x="201" y="607" type="qcurve"/>
      <point x="201" y="604" type="line"/>
      <point x="198" y="598"/>
      <point x="197" y="589" type="qcurve"/>
      <point x="194" y="583"/>
      <point x="193" y="574" type="qcurve"/>
      <point x="190" y="568"/>
      <point x="189" y="559" type="qcurve"/>
      <point x="185" y="549" type="line"/>
      <point x="180" y="531" type="line"/>
      <point x="167" y="487" type="line"/>
      <point x="165" y="475"/>
      <point x="159" y="461" type="qcurve"/>
      <point x="159" y="458" type="line"/>
      <point x="150" y="432" type="line"/>
      <point x="150" y="429" type="line"/>
      <point x="147" y="423"/>
      <point x="145" y="415" type="qcurve"/>
      <point x="131" y="373" type="line"/>
      <point x="129" y="369"/>
      <point x="127" y="361" type="qcurve"/>
      <point x="126" y="359" type="line"/>
      <point x="126" y="349"/>
    </contour>
    <contour>
      <point x="136" y="0" type="line"/>
      <point x="132" y="2"/>
      <point x="127" y="8" type="qcurve"/>
      <point x="61" y="74" type="line"/>
      <point x="30" y="104"/>
      <point x="30" y="105"/>
      <point x="25" y="110"/>
      <point x="20" y="115" type="qcurve"/>
      <point x="5" y="131" type="line"/>
      <point x="79" y="205" type="line"/>
      <point x="109" y="236"/>
      <point x="110" y="236"/>
      <point x="115" y="241"/>
      <point x="120" y="246" type="qcurve"/>
      <point x="132" y="258"/>
      <point x="135" y="263" type="qcurve"/>
      <point x="137" y="260"/>
      <point x="142" y="257" type="qcurve"/>
      <point x="142" y="256"/>
      <point x="147" y="251"/>
      <point x="173" y="226"/>
      <point x="175" y="223"/>
      <point x="180" y="218"/>
      <point x="185" y="213" type="qcurve"/>
      <point x="216" y="183"/>
      <point x="216" y="182"/>
      <point x="221" y="177"/>
      <point x="226" y="172" type="qcurve"/>
      <point x="257" y="142"/>
      <point x="257" y="141"/>
      <point x="262" y="136"/>
      <point x="267" y="132" type="qcurve"/>
      <point x="265" y="128"/>
      <point x="256" y="119"/>
      <point x="231" y="94"/>
      <point x="228" y="91"/>
      <point x="223" y="86"/>
      <point x="218" y="81" type="qcurve"/>
      <point x="188" y="50"/>
      <point x="187" y="50"/>
      <point x="182" y="45"/>
      <point x="177" y="40" type="qcurve"/>
      <point x="147" y="9"/>
      <point x="146" y="9"/>
      <point x="145" y="7" type="qcurve"/>
    </contour>
  </outline>
</glyph>
<glyph name="O" format="2">
  <advance width="983"/>
  <unicode hex="004F"/>
  <outline>
    <contour>
      <point x="903" y="421" type="line"/>
      <point x="903" y="234"/>
      <point x="670" y="-15"/>
      <point x="484" y="-15" type="qcurve"/>
      <point x="305" y="-15"/>
      <point x="79" y="233"/>
      <point x="79" y="421" type="qcurve"/>
      <point x="79" y="604" type="line"/>
      <point x="79" y="790"/>
      <point x="305" y="1040"/>
      <point x="484" y="1040" type="qcurve"/>
      <point x="670" y="1040"/>
      <point x="903" y="791"/>
      <point x="903" y="604" type="qcurve"/>
    </contour>
    <contour>
      <point x="764" y="605" type="line"/>
      <point x="764" y="746"/>
      <point x="612" y="926"/>
      <point x="484" y="926" type="qcurve"/>
      <point x="362" y="926"/>
      <point x="218" y="746"/>
      <point x="218" y="605" type="qcurve"/>
      <point x="218" y="421" type="line"/>
      <point x="218" y="279"/>
      <point x="362" y="98"/>
      <point x="484" y="98" type="qcurve"/>
      <point x="613" y="98"/>
      <point x="764" y="278"/>
      <point x="764" y="421" type="qcurve"/>
    </contour>
  </outline>
</glyph>
<glyph name="braceleft" format="2">
  <advance width="490"/>
  <unicode hex="007B"/>
  <outline>
    <contour>
      <point x="326" y="339" type="line"/>
      <point x="262" y="380" type="line"/>
      <point x="300" y="450" type="line"/>
      <point x="366" y="409" type="line"/>
    </contour>
    <contour>
      <point x="272" y="88" type="line"/>
      <point x="285" y="89" type="line"/>
      <point x="289" y="91" type="line"/>
      <point x="313" y="93"/>
      <point x="336" y="98" type="qcurve"/>
      <point x="340" y="98"/>
      <point x="343" y="101" type="qcurve"/>
      <point x="354" y="102"/>
      <point x="365" y="106" type="qcurve"/>
      <point x="372" y="110"/>
      <point x="385" y="113" type="qcurve"/>
      <point x="433" y="137" type="line"/>
      <point x="435" y="140" type="line"/>
      <point x="444" y="144"/>
      <point x="449" y="149" type="qcurve"/>
      <point x="456" y="153"/>
      <point x="460" y="157" type="qcurve"/>
      <point x="463" y="157"/>
      <point x="465" y="160" type="qcurve"/>
      <point x="488" y="177"/>
      <point x="493" y="184" type="qcurve"/>
      <point x="398" y="145"/>
      <point x="310" y="145" type="qcurve"/>
      <point x="231" y="145"/>
      <point x="158" y="176" type="qcurve"/>
      <point x="45" y="231"/>
      <point x="45" y="341" type="qcurve"/>
      <point x="45" y="367"/>
      <point x="49" y="386" type="qcurve"/>
      <point x="55" y="411"/>
      <point x="59" y="420" type="qcurve"/>
      <point x="59" y="423"/>
      <point x="69" y="446" type="qcurve"/>
      <point x="69" y="450" type="line"/>
      <point x="182" y="634"/>
      <point x="380" y="645" type="qcurve"/>
      <point x="381" y="650" type="line"/>
      <point x="388" y="660"/>
      <point x="398" y="675"/>
      <point x="400" y="683" type="qcurve"/>
      <point x="405" y="688"/>
      <point x="409" y="698"/>
      <point x="418" y="713" type="qcurve"/>
      <point x="418" y="715" type="line"/>
      <point x="408" y="715"/>
      <point x="404" y="713" type="qcurve"/>
      <point x="315" y="713" type="line"/>
      <point x="300" y="713"/>
      <point x="294" y="715" type="qcurve"/>
      <point x="266" y="716" type="line"/>
      <point x="261" y="718"/>
      <point x="257" y="718" type="qcurve"/>
      <point x="253" y="717" type="line"/>
      <point x="240" y="720"/>
      <point x="227" y="721" type="qcurve"/>
      <point x="219" y="724"/>
      <point x="211" y="724" type="qcurve"/>
      <point x="187" y="727" type="line"/>
      <point x="185" y="729" type="line"/>
      <point x="177" y="729" type="line"/>
      <point x="159" y="732"/>
      <point x="149" y="732" type="qcurve"/>
      <point x="146" y="734" type="line"/>
      <point x="129" y="735" type="line"/>
      <point x="101" y="735" type="line"/>
      <point x="17" y="713"/>
      <point x="15" y="631" type="qcurve"/>
      <point x="60" y="671"/>
      <point x="116" y="671" type="qcurve"/>
      <point x="146" y="671"/>
      <point x="179" y="659" type="qcurve"/>
      <point x="208" y="655" type="line"/>
      <point x="1" y="531"/>
      <point x="1" y="300" type="qcurve"/>
      <point x="1" y="283" type="line"/>
      <point x="4" y="276"/>
      <point x="4" y="269" type="qcurve"/>
      <point x="5" y="267" type="line"/>
      <point x="6" y="252"/>
      <point x="11" y="240" type="qcurve"/>
      <point x="11" y="236" type="line"/>
      <point x="17" y="222" type="line"/>
      <point x="19" y="220" type="line"/>
      <point x="21" y="212" type="line"/>
      <point x="30" y="197"/>
      <point x="35" y="186" type="qcurve"/>
      <point x="39" y="183"/>
      <point x="40" y="179" type="qcurve"/>
      <point x="45" y="174"/>
      <point x="45" y="172" type="qcurve"/>
      <point x="50" y="168"/>
      <point x="54" y="162" type="qcurve"/>
      <point x="77" y="144"/>
      <point x="83" y="135" type="qcurve"/>
      <point x="91" y="130" type="line"/>
      <point x="105" y="124"/>
      <point x="114" y="116" type="qcurve"/>
      <point x="119" y="115"/>
      <point x="147" y="102" type="qcurve"/>
      <point x="151" y="102"/>
      <point x="152" y="101" type="qcurve"/>
      <point x="160" y="98" type="line"/>
      <point x="168" y="98"/>
      <point x="172" y="94" type="qcurve"/>
      <point x="182" y="94"/>
      <point x="191" y="91" type="qcurve"/>
      <point x="203" y="91"/>
      <point x="211" y="88" type="qcurve"/>
    </contour>
  </outline>
</glyph>
<glyph name="arabiccomma" format="2">
  <advance width="606"/>
  <unicode hex="060C"/>
  <outline>
    <contour>
      <point x="287" y="0" type="line"/>
      <point x="257" y="0" type="line"/>
      <point x="242" y="0"/>
      <point x="224" y="9" type="qcurve"/>
      <point x="209" y="14"/>
      <point x="200" y="25" type="qcurve"/>
      <point x="188" y="34" type="line"/>
      <point x="185" y="38"/>
      <point x="182" y="44" type="qcurve"/>
      <point x="171" y="58" type="line"/>
      <point x="161" y="79"/>
      <point x="155" y="100" type="qcurve"/>
      <point x="150" y="126" type="line"/>
      <point x="150" y="187"/>
      <point x="151" y="198" type="qcurve"/>
      <point x="152" y="200" type="line"/>
      <point x="152" y="207"/>
      <point x="154" y="215" type="qcurve"/>
      <point x="165" y="266" type="line"/>
      <point x="166" y="267" type="line"/>
      <point x="171" y="292"/>
      <point x="175" y="300" type="qcurve"/>
      <point x="180" y="319"/>
      <point x="186" y="330" type="qcurve"/>
      <point x="196" y="360" type="line"/>
      <point x="198" y="366"/>
      <point x="203" y="374" type="qcurve"/>
      <point x="208" y="390"/>
      <point x="214" y="400" type="qcurve"/>
      <point x="220" y="414" type="line"/>
      <point x="222" y="416" type="line"/>
      <point x="224" y="423"/>
      <point x="230" y="434"/>
      <point x="233" y="442" type="qcurve"/>
      <point x="235" y="443" type="line"/>
      <point x="241" y="455" type="line"/>
      <point x="245" y="467"/>
      <point x="255" y="482" type="qcurve"/>
      <point x="262" y="496" type="line"/>
      <point x="264" y="497" type="line"/>
      <point x="266" y="503"/>
      <point x="271" y="510" type="qcurve"/>
      <point x="284" y="535"/>
      <point x="302" y="561" type="qcurve"/>
      <point x="305" y="565"/>
      <point x="308" y="573" type="qcurve"/>
      <point x="310" y="574" type="line"/>
      <point x="312" y="579"/>
      <point x="317" y="584" type="qcurve"/>
      <point x="326" y="599" type="line"/>
      <point x="334" y="611" type="line"/>
      <point x="347" y="629"/>
      <point x="350" y="636" type="qcurve"/>
      <point x="361" y="647"/>
      <point x="366" y="657" type="qcurve"/>
      <point x="367" y="657"/>
      <point x="376" y="668" type="qcurve"/>
      <point x="378" y="669" type="line"/>
      <point x="385" y="679" type="line"/>
      <point x="389" y="681"/>
      <point x="395" y="690" type="qcurve"/>
      <point x="399" y="693"/>
      <point x="404" y="699" type="qcurve"/>
      <point x="405" y="699" type="line"/>
      <point x="414" y="708"/>
      <point x="424" y="716"/>
      <point x="430" y="719" type="qcurve"/>
      <point x="443" y="719" type="line"/>
      <point x="446" y="715" type="line"/>
      <point x="447" y="711"/>
      <point x="447" y="703" type="qcurve"/>
      <point x="446" y="701" type="line"/>
      <point x="446" y="696" type="line"/>
      <point x="444" y="691"/>
      <point x="443" y="682" type="qcurve"/>
      <point x="442" y="680" type="line"/>
      <point x="436" y="661"/>
      <point x="429" y="651" type="qcurve"/>
      <point x="423" y="638" type="line"/>
      <point x="419" y="634"/>
      <point x="416" y="626" type="qcurve"/>
      <point x="414" y="625" type="line"/>
      <point x="412" y="620"/>
      <point x="407" y="615" type="qcurve"/>
      <point x="400" y="601"/>
      <point x="398" y="601" type="qcurve"/>
      <point x="390" y="588" type="line"/>
      <point x="387" y="585"/>
      <point x="384" y="579" type="qcurve"/>
      <point x="373" y="564" type="line"/>
      <point x="361" y="548"/>
      <point x="358" y="542" type="qcurve"/>
      <point x="356" y="541" type="line"/>
      <point x="353" y="536"/>
      <point x="342" y="521"/>
      <point x="333" y="504" type="qcurve"/>
      <point x="331" y="503" type="line"/>
      <point x="329" y="498"/>
      <point x="325" y="493" type="qcurve"/>
      <point x="303" y="459" type="line"/>
      <point x="300" y="454" type="line"/>
      <point x="285" y="432"/>
      <point x="278" y="418" type="qcurve"/>
      <point x="276" y="416" type="line"/>
      <point x="273" y="410"/>
      <point x="265" y="397"/>
      <point x="262" y="389" type="qcurve"/>
      <point x="253" y="374"/>
      <point x="249" y="364" type="qcurve"/>
      <point x="247" y="363" type="line"/>
      <point x="244" y="358"/>
      <point x="242" y="348" type="qcurve"/>
      <point x="229" y="320" type="line"/>
      <point x="223" y="306"/>
      <point x="223" y="288" type="qcurve"/>
      <point x="222" y="286" type="line"/>
      <point x="222" y="279" type="line"/>
      <point x="221" y="277" type="line"/>
      <point x="223" y="237" type="line"/>
      <point x="225" y="232" type="line"/>
      <point x="225" y="220"/>
      <point x="236" y="201" type="qcurve"/>
      <point x="241" y="192"/>
      <point x="269" y="167"/>
      <point x="302" y="164" type="qcurve"/>
      <point x="347" y="164"/>
      <point x="394" y="185"/>
      <point x="398" y="187" type="qcurve"/>
      <point x="410" y="187"/>
      <point x="424" y="201" type="qcurve"/>
      <point x="431" y="203"/>
      <point x="444" y="211"/>
      <point x="449" y="216" type="qcurve"/>
      <point x="458" y="221" type="line"/>
      <point x="456" y="210" type="line"/>
      <point x="455" y="202"/>
      <point x="451" y="194" type="qcurve"/>
      <point x="450" y="187"/>
      <point x="446" y="179" type="qcurve"/>
      <point x="438" y="149"/>
      <point x="421" y="120"/>
      <point x="419" y="110" type="qcurve"/>
      <point x="416" y="108" type="line"/>
      <point x="413" y="99"/>
      <point x="402" y="84" type="qcurve"/>
      <point x="401" y="82" type="line"/>
      <point x="388" y="63"/>
      <point x="383" y="58" type="qcurve"/>
      <point x="363" y="37" type="line"/>
      <point x="352" y="28" type="line"/>
      <point x="347" y="26"/>
      <point x="342" y="21" type="qcurve"/>
      <point x="315" y="7" type="line"/>
      <point x="312" y="7" type="line"/>
      <point x="300" y="2" type="line"/>
      <point x="297" y="2" type="line"/>
      <point x="297" y="1" type="line"/>
    </contour>
  </outline>
</glyph>
<glyph name="hamza-arab" format="2">
  <advance width="704"/>
  <unicode hex="0621"/>
  <anchor x="311" y="687" name="Anchor_4"/>
  <anchor x="375" y="-286" name="Anchor_5"/>
  <anchor x="308" y="666" name="Anchor_7"/>
  <outline>
    <contour>
      <point x="176" y="351" type="line"/>
      <point x="223" y="481"/>
      <point x="370" y="509" type="qcurve"/>
      <point x="389" y="509" type="line"/>
      <point x="392" y="509" type="line"/>
      <point x="395" y="509" type="line"/>
      <point x="398" y="509" type="line"/>
      <point x="403" y="509" type="line"/>
      <point x="406" y="509" type="line"/>
      <point x="410" y="508"/>
      <point x="415" y="508" type="qcurve"/>
      <point x="418" y="507" type="line"/>
      <point x="422" y="507" type="line"/>
      <point x="529" y="477"/>
      <point x="493" y="362" type="qcurve"/>
      <point x="485" y="366"/>
      <point x="473" y="369" type="qcurve"/>
      <point x="471" y="370" type="line"/>
      <point x="466" y="371"/>
      <point x="460" y="373" type="qcurve"/>
      <point x="452" y="375"/>
      <point x="440" y="376" type="qcurve"/>
      <point x="438" y="377" type="line"/>
      <point x="434" y="377" type="line"/>
      <point x="432" y="378" type="line"/>
      <point x="342" y="382"/>
      <point x="251" y="333" type="qcurve"/>
      <point x="246" y="332"/>
      <point x="241" y="328" type="qcurve"/>
      <point x="235" y="325" type="line"/>
      <point x="232" y="325" type="line"/>
      <point x="231" y="323" type="line"/>
      <point x="222" y="321"/>
      <point x="214" y="313" type="qcurve"/>
      <point x="210" y="312"/>
      <point x="206" y="309" type="qcurve"/>
      <point x="201" y="307" type="line"/>
      <point x="205" y="297"/>
      <point x="215" y="288" type="qcurve"/>
      <point x="218" y="282" type="line"/>
      <point x="220" y="280" type="line"/>
      <point x="225" y="275" type="line"/>
      <point x="227" y="272"/>
      <point x="230" y="268" type="qcurve"/>
      <point x="232" y="266" type="line"/>
      <point x="239" y="256"/>
      <point x="252" y="246" type="qcurve"/>
      <point x="257" y="239" type="line"/>
      <point x="260" y="236" type="line"/>
      <point x="263" y="233"/>
      <point x="268" y="230" type="qcurve"/>
      <point x="270" y="227" type="line"/>
      <point x="273" y="226" type="line"/>
      <point x="276" y="224" type="line"/>
      <point x="283" y="215"/>
      <point x="294" y="208" type="qcurve"/>
      <point x="299" y="202"/>
      <point x="307" y="198" type="qcurve"/>
      <point x="312" y="192"/>
      <point x="321" y="187" type="qcurve"/>
      <point x="326" y="181"/>
      <point x="335" y="178" type="qcurve"/>
      <point x="339" y="174" type="line"/>
      <point x="342" y="172" type="line"/>
      <point x="345" y="171" type="line"/>
      <point x="347" y="169" type="line"/>
      <point x="350" y="168" type="line"/>
      <point x="356" y="163"/>
      <point x="364" y="159" type="qcurve"/>
      <point x="368" y="156"/>
      <point x="374" y="154" type="qcurve"/>
      <point x="376" y="152" type="line"/>
      <point x="381" y="148" type="line"/>
      <point x="383" y="148" type="line"/>
      <point x="390" y="144"/>
      <point x="398" y="141" type="qcurve"/>
      <point x="426" y="158" type="line"/>
      <point x="429" y="160" type="line"/>
      <point x="432" y="161" type="line"/>
      <point x="434" y="163" type="line"/>
      <point x="437" y="165"/>
      <point x="442" y="167" type="qcurve"/>
      <point x="444" y="168" type="line"/>
      <point x="451" y="172" type="line"/>
      <point x="452" y="172"/>
      <point x="453" y="174" type="qcurve"/>
      <point x="465" y="180" type="line"/>
      <point x="470" y="183" type="line"/>
      <point x="475" y="185"/>
      <point x="478" y="188" type="qcurve"/>
      <point x="479" y="188"/>
      <point x="480" y="189" type="qcurve"/>
      <point x="481" y="189"/>
      <point x="482" y="190" type="qcurve"/>
      <point x="489" y="193" type="line"/>
      <point x="491" y="194" type="line"/>
      <point x="493" y="196" type="line"/>
      <point x="497" y="198" type="line"/>
      <point x="502" y="200"/>
      <point x="508" y="205" type="qcurve"/>
      <point x="511" y="206" type="line"/>
      <point x="513" y="207" type="line"/>
      <point x="533" y="217" type="line"/>
      <point x="535" y="219" type="line"/>
      <point x="539" y="220"/>
      <point x="542" y="222" type="qcurve"/>
      <point x="546" y="223"/>
      <point x="550" y="226" type="qcurve"/>
      <point x="555" y="227" type="line"/>
      <point x="560" y="230" type="line"/>
      <point x="565" y="232" type="line"/>
      <point x="570" y="235" type="line"/>
      <point x="579" y="237"/>
      <point x="588" y="244" type="qcurve"/>
      <point x="592" y="244"/>
      <point x="596" y="247" type="qcurve"/>
      <point x="597" y="247"/>
      <point x="599" y="248" type="qcurve"/>
      <point x="602" y="249" type="line"/>
      <point x="608" y="251" type="line"/>
      <point x="610" y="252" type="line"/>
      <point x="612" y="253" type="line"/>
      <point x="615" y="255" type="line"/>
      <point x="619" y="257" type="line"/>
      <point x="621" y="257"/>
      <point x="624" y="259" type="qcurve"/>
      <point x="630" y="261" type="line"/>
      <point x="633" y="263" type="line"/>
      <point x="643" y="265"/>
      <point x="655" y="270" type="qcurve"/>
      <point x="657" y="270"/>
      <point x="658" y="269" type="qcurve"/>
      <point x="650" y="254" type="line"/>
      <point x="649" y="251" type="line"/>
      <point x="645" y="246" type="line"/>
      <point x="644" y="243" type="line"/>
      <point x="642" y="240" type="line"/>
      <point x="641" y="237" type="line"/>
      <point x="639" y="235" type="line"/>
      <point x="638" y="231" type="line"/>
      <point x="632" y="225"/>
      <point x="630" y="216" type="qcurve"/>
      <point x="628" y="215" type="line"/>
      <point x="627" y="213" type="line"/>
      <point x="624" y="207" type="line"/>
      <point x="620" y="203"/>
      <point x="618" y="197" type="qcurve"/>
      <point x="617" y="197"/>
      <point x="616" y="195" type="qcurve"/>
      <point x="614" y="192" type="line"/>
      <point x="613" y="189" type="line"/>
      <point x="610" y="186"/>
      <point x="609" y="183" type="qcurve"/>
      <point x="605" y="178"/>
      <point x="601" y="170" type="qcurve"/>
      <point x="597" y="166" type="line"/>
      <point x="595" y="164" type="line"/>
      <point x="594" y="161" type="line"/>
      <point x="592" y="159" type="line"/>
      <point x="589" y="153" type="line"/>
      <point x="585" y="148"/>
      <point x="580" y="141" type="qcurve"/>
      <point x="577" y="137" type="line"/>
      <point x="573" y="133"/>
      <point x="570" y="127" type="qcurve"/>
      <point x="569" y="125" type="line"/>
      <point x="547" y="116" type="line"/>
      <point x="545" y="114" type="line"/>
      <point x="544" y="114"/>
      <point x="542" y="113" type="qcurve"/>
      <point x="538" y="112" type="line"/>
      <point x="535" y="110" type="line"/>
      <point x="532" y="109" type="line"/>
      <point x="521" y="104" type="line"/>
      <point x="517" y="103" type="line"/>
      <point x="514" y="101" type="line"/>
      <point x="510" y="99" type="line"/>
      <point x="507" y="97" type="line"/>
      <point x="504" y="95" type="line"/>
      <point x="498" y="94"/>
      <point x="492" y="89" type="qcurve"/>
      <point x="485" y="87"/>
      <point x="478" y="83" type="qcurve"/>
      <point x="472" y="80" type="line"/>
      <point x="470" y="79" type="line"/>
      <point x="466" y="76" type="line"/>
      <point x="457" y="73"/>
      <point x="448" y="67" type="qcurve"/>
      <point x="445" y="66" type="line"/>
      <point x="442" y="65" type="line"/>
      <point x="438" y="62"/>
      <point x="433" y="59" type="qcurve"/>
      <point x="431" y="57" type="line"/>
      <point x="425" y="55"/>
      <point x="417" y="50" type="qcurve"/>
      <point x="414" y="48" type="line"/>
      <point x="409" y="46" type="line"/>
      <point x="405" y="43" type="line"/>
      <point x="398" y="41"/>
      <point x="393" y="35" type="qcurve"/>
      <point x="386" y="32" type="line"/>
      <point x="384" y="31" type="line"/>
      <point x="382" y="30" type="line"/>
      <point x="379" y="29" type="line"/>
      <point x="377" y="27" type="line"/>
      <point x="376" y="27"/>
      <point x="375" y="25" type="qcurve"/>
      <point x="372" y="24" type="line"/>
      <point x="369" y="21" type="line"/>
      <point x="367" y="21"/>
      <point x="366" y="19" type="qcurve"/>
      <point x="362" y="17" type="line"/>
      <point x="358" y="15" type="line"/>
      <point x="355" y="12" type="line"/>
      <point x="345" y="8"/>
      <point x="340" y="3" type="qcurve"/>
      <point x="337" y="2" type="line"/>
      <point x="335" y="0" type="line"/>
      <point x="332" y="-2"/>
      <point x="329" y="-5" type="qcurve"/>
      <point x="322" y="-7"/>
      <point x="316" y="-13" type="qcurve"/>
      <point x="309" y="-16"/>
      <point x="300" y="-23" type="qcurve"/>
      <point x="297" y="-26" type="line"/>
      <point x="277" y="-38" type="line"/>
      <point x="276" y="-40" type="line"/>
      <point x="275" y="-40"/>
      <point x="274" y="-42" type="qcurve"/>
      <point x="271" y="-43" type="line"/>
      <point x="268" y="-46"/>
      <point x="263" y="-49" type="qcurve"/>
      <point x="261" y="-49" type="line"/>
      <point x="259" y="-52" type="line"/>
      <point x="257" y="-52"/>
      <point x="257" y="-54" type="qcurve"/>
      <point x="253" y="-56"/>
      <point x="247" y="-60" type="qcurve"/>
      <point x="244" y="-62" type="line"/>
      <point x="240" y="-65" type="line"/>
      <point x="237" y="-68" type="line"/>
      <point x="235" y="-70" type="line"/>
      <point x="231" y="-72" type="line"/>
      <point x="228" y="-75" type="line"/>
      <point x="222" y="-77"/>
      <point x="217" y="-84" type="qcurve"/>
      <point x="211" y="-88" type="line"/>
      <point x="209" y="-89" type="line"/>
      <point x="208" y="-90" type="line"/>
      <point x="207" y="-90"/>
      <point x="206" y="-91" type="qcurve"/>
      <point x="203" y="-93"/>
      <point x="200" y="-96" type="qcurve"/>
      <point x="198" y="-96"/>
      <point x="198" y="-98" type="qcurve"/>
      <point x="194" y="-100" type="line"/>
      <point x="192" y="-102" type="line"/>
      <point x="189" y="-105" type="line"/>
      <point x="184" y="-107"/>
      <point x="180" y="-111" type="qcurve"/>
      <point x="177" y="-113" type="line"/>
      <point x="174" y="-116" type="line"/>
      <point x="170" y="-119" type="line"/>
      <point x="168" y="-120"/>
      <point x="166" y="-123" type="qcurve"/>
      <point x="156" y="-128"/>
      <point x="146" y="-139" type="qcurve"/>
      <point x="143" y="-140" type="line"/>
      <point x="141" y="-142" type="line"/>
      <point x="139" y="-144" type="line"/>
      <point x="138" y="-145" type="line"/>
      <point x="136" y="-148" type="line"/>
      <point x="133" y="-148" type="line"/>
      <point x="131" y="-150" type="line"/>
      <point x="128" y="-153" type="line"/>
      <point x="125" y="-156" type="line"/>
      <point x="121" y="-158" type="line"/>
      <point x="119" y="-161" type="line"/>
      <point x="116" y="-164" type="line"/>
      <point x="112" y="-167" type="line"/>
      <point x="97" y="-180" type="line"/>
      <point x="94" y="-182" type="line"/>
      <point x="93" y="-184" type="line"/>
      <point x="81" y="-194"/>
      <point x="63" y="-196" type="qcurve"/>
      <point x="61" y="-191"/>
      <point x="61" y="-184" type="qcurve"/>
      <point x="63" y="-180"/>
      <point x="66" y="-172" type="qcurve"/>
      <point x="67" y="-170" type="line"/>
      <point x="69" y="-169" type="line"/>
      <point x="71" y="-165"/>
      <point x="74" y="-160" type="qcurve"/>
      <point x="76" y="-157" type="line"/>
      <point x="77" y="-153" type="line"/>
      <point x="79" y="-151" type="line"/>
      <point x="80" y="-148" type="line"/>
      <point x="83" y="-142"/>
      <point x="88" y="-135" type="qcurve"/>
      <point x="90" y="-132" type="line"/>
      <point x="91" y="-129" type="line"/>
      <point x="103" y="-111" type="line"/>
      <point x="105" y="-108" type="line"/>
      <point x="106" y="-107" type="line"/>
      <point x="109" y="-103"/>
      <point x="112" y="-97" type="qcurve"/>
      <point x="114" y="-96" type="line"/>
      <point x="115" y="-93" type="line"/>
      <point x="117" y="-90" type="line"/>
      <point x="119" y="-89" type="line"/>
      <point x="121" y="-85" type="line"/>
      <point x="123" y="-83" type="line"/>
      <point x="125" y="-80" type="line"/>
      <point x="128" y="-76" type="line"/>
      <point x="131" y="-73"/>
      <point x="134" y="-69" type="qcurve"/>
      <point x="136" y="-68" type="line"/>
      <point x="139" y="-63" type="line"/>
      <point x="144" y="-59"/>
      <point x="147" y="-53" type="qcurve"/>
      <point x="159" y="-41" type="line"/>
      <point x="161" y="-37" type="line"/>
      <point x="168" y="-32"/>
      <point x="175" y="-24" type="qcurve"/>
      <point x="179" y="-22"/>
      <point x="182" y="-18" type="qcurve"/>
      <point x="184" y="-16" type="line"/>
      <point x="187" y="-12" type="line"/>
      <point x="190" y="-10" type="line"/>
      <point x="193" y="-9" type="line"/>
      <point x="195" y="-6" type="line"/>
      <point x="198" y="-4" type="line"/>
      <point x="200" y="-1" type="line"/>
      <point x="203" y="1" type="line"/>
      <point x="206" y="4" type="line"/>
      <point x="215" y="8"/>
      <point x="223" y="17" type="qcurve"/>
      <point x="226" y="18" type="line"/>
      <point x="228" y="20" type="line"/>
      <point x="230" y="21" type="line"/>
      <point x="234" y="23"/>
      <point x="238" y="28" type="qcurve"/>
      <point x="240" y="28"/>
      <point x="241" y="30" type="qcurve"/>
      <point x="246" y="32"/>
      <point x="253" y="36" type="qcurve"/>
      <point x="88" y="130"/>
      <point x="153" y="304" type="qcurve"/>
      <point x="154" y="310"/>
      <point x="158" y="316" type="qcurve"/>
      <point x="158" y="318" type="line"/>
      <point x="159" y="321" type="line"/>
      <point x="160" y="323" type="line"/>
      <point x="161" y="325" type="line"/>
      <point x="163" y="327" type="line"/>
      <point x="166" y="335" type="line"/>
      <point x="171" y="343" type="line"/>
      <point x="172" y="346" type="line"/>
      <point x="174" y="348" type="line"/>
      <point x="176" y="351" type="line"/>
    </contour>
  </outline>
</glyph>
<glyph name="hah-arab" format="2">
  <advance width="1122"/>
  <unicode hex="062D"/>
  <anchor x="725" y="950" name="Anchor_4"/>
  <anchor x="650" y="-1050" name="Anchor_5"/>
  <anchor x="710" y="1000" name="Anchor_7"/>
  <outline>
    <contour>
      <point x="128" y="485" type="qcurve"/>
      <point x="143" y="706"/>
      <point x="356" y="742" type="qcurve"/>
      <point x="379" y="742" type="line"/>
      <point x="385" y="742" type="line"/>
      <point x="417" y="742" type="line"/>
      <point x="425" y="740" type="line"/>
      <point x="433" y="740"/>
      <point x="440" y="738" type="qcurve"/>
      <point x="446" y="738" type="line"/>
      <point x="455" y="738" type="line"/>
      <point x="463" y="737" type="line"/>
      <point x="469" y="737"/>
      <point x="478" y="735" type="qcurve"/>
      <point x="484" y="735" type="line"/>
      <point x="490" y="735" type="line"/>
      <point x="520" y="729" type="line"/>
      <point x="528" y="729" type="line"/>
      <point x="543" y="725" type="line"/>
      <point x="549" y="725" type="line"/>
      <point x="556" y="723" type="line"/>
      <point x="562" y="723" type="line"/>
      <point x="570" y="721" type="line"/>
      <point x="579" y="719" type="line"/>
      <point x="587" y="719" type="line"/>
      <point x="594" y="718" type="line"/>
      <point x="606" y="717"/>
      <point x="625" y="712" type="qcurve"/>
      <point x="634" y="712" type="line"/>
      <point x="665" y="706" type="line"/>
      <point x="672" y="706" type="line"/>
      <point x="688" y="702" type="line"/>
      <point x="693" y="702" type="line"/>
      <point x="724" y="699" type="line"/>
      <point x="729" y="699" type="line"/>
      <point x="735" y="697" type="line"/>
      <point x="743" y="697" type="line"/>
      <point x="748" y="697" type="line"/>
      <point x="754" y="695" type="line"/>
      <point x="762" y="695" type="line"/>
      <point x="769" y="695" type="line"/>
      <point x="775" y="693" type="line"/>
      <point x="783" y="693" type="line"/>
      <point x="796" y="691" type="line"/>
      <point x="868" y="687" type="line"/>
      <point x="895" y="687" type="line"/>
      <point x="905" y="688"/>
      <point x="916" y="685" type="qcurve"/>
      <point x="922" y="685" type="line"/>
      <point x="931" y="685" type="line"/>
      <point x="965" y="685" type="line"/>
      <point x="973" y="685" type="line"/>
      <point x="989" y="684"/>
      <point x="1011" y="687" type="qcurve"/>
      <point x="1026" y="687" type="line"/>
      <point x="1032" y="687" type="line"/>
      <point x="1042" y="687" type="line"/>
      <point x="1049" y="687" type="line"/>
      <point x="1057" y="687" type="line"/>
      <point x="1099" y="689" type="line"/>
      <point x="1123" y="689" type="line"/>
      <point x="1129" y="689" type="line"/>
      <point x="1135" y="689" type="line"/>
      <point x="1135" y="687" type="line"/>
      <point x="1135" y="689" type="line"/>
      <point x="1133" y="687" type="line"/>
      <point x="1135" y="687" type="line"/>
      <point x="1133" y="687" type="line"/>
      <point x="1123" y="673"/>
      <point x="1112" y="647" type="qcurve"/>
      <point x="1110" y="646"/>
      <point x="1108" y="643" type="qcurve"/>
      <point x="1104" y="638" type="line"/>
      <point x="1103" y="632" type="line"/>
      <point x="1099" y="626" type="line"/>
      <point x="1095" y="620" type="line"/>
      <point x="1082" y="596" type="line"/>
      <point x="1078" y="590" type="line"/>
      <point x="1074" y="584" type="line"/>
      <point x="1070" y="575" type="line"/>
      <point x="1066" y="567" type="line"/>
      <point x="1059" y="560"/>
      <point x="1055" y="548" type="qcurve"/>
      <point x="1049" y="541" type="line"/>
      <point x="1045" y="533" type="line"/>
      <point x="1040" y="522" type="line"/>
      <point x="536" y="492"/>
      <point x="257" y="17" type="qcurve"/>
      <point x="257" y="11" type="line"/>
      <point x="251" y="2"/>
      <point x="246" y="-11" type="qcurve"/>
      <point x="244" y="-17" type="line"/>
      <point x="242" y="-21" type="line"/>
      <point x="241" y="-27"/>
      <point x="236" y="-36" type="qcurve"/>
      <point x="235" y="-42" type="line"/>
      <point x="233" y="-48" type="line"/>
      <point x="232" y="-54"/>
      <point x="227" y="-63" type="qcurve"/>
      <point x="223" y="-76" type="line"/>
      <point x="223" y="-82" type="line"/>
      <point x="217" y="-97" type="line"/>
      <point x="206" y="-156" type="line"/>
      <point x="202" y="-175" type="line"/>
      <point x="167" y="-515"/>
      <point x="497" y="-668" type="qcurve"/>
      <point x="510" y="-678"/>
      <point x="532" y="-683" type="qcurve"/>
      <point x="535" y="-685" type="line"/>
      <point x="539" y="-687" type="line"/>
      <point x="545" y="-689" type="line"/>
      <point x="551" y="-690"/>
      <point x="560" y="-695" type="qcurve"/>
      <point x="592" y="-704" type="line"/>
      <point x="598" y="-704" type="line"/>
      <point x="604" y="-708" type="line"/>
      <point x="954" y="-790"/>
      <point x="1325" y="-640" type="qcurve"/>
      <point x="1306" y="-657" type="line"/>
      <point x="1302" y="-659" type="line"/>
      <point x="1300" y="-662" type="line"/>
      <point x="1295" y="-664" type="line"/>
      <point x="1291" y="-668" type="line"/>
      <point x="1289" y="-672" type="line"/>
      <point x="1283" y="-674" type="line"/>
      <point x="1276" y="-681"/>
      <point x="1264" y="-689" type="qcurve"/>
      <point x="1262" y="-693" type="line"/>
      <point x="1255" y="-697" type="line"/>
      <point x="1249" y="-702" type="line"/>
      <point x="1241" y="-706" type="line"/>
      <point x="1236" y="-712" type="line"/>
      <point x="1228" y="-716" type="line"/>
      <point x="1222" y="-719" type="line"/>
      <point x="1215" y="-725" type="line"/>
      <point x="1205" y="-733" type="line"/>
      <point x="1192" y="-738"/>
      <point x="1179" y="-750" type="qcurve"/>
      <point x="1166" y="-755"/>
      <point x="1146" y="-767" type="qcurve"/>
      <point x="1135" y="-775" type="line"/>
      <point x="1126" y="-777"/>
      <point x="1114" y="-784" type="qcurve"/>
      <point x="1108" y="-786" type="line"/>
      <point x="1104" y="-790" type="line"/>
      <point x="1095" y="-794" type="line"/>
      <point x="1089" y="-798" type="line"/>
      <point x="1080" y="-799"/>
      <point x="1072" y="-805" type="qcurve"/>
      <point x="1066" y="-807" type="line"/>
      <point x="1036" y="-818" type="line"/>
      <point x="1032" y="-820" type="line"/>
      <point x="1017" y="-824"/>
      <point x="996" y="-834" type="qcurve"/>
      <point x="993" y="-834"/>
      <point x="990" y="-836" type="qcurve"/>
      <point x="973" y="-839" type="line"/>
      <point x="969" y="-841" type="line"/>
      <point x="961" y="-843"/>
      <point x="950" y="-847" type="qcurve"/>
      <point x="943" y="-848"/>
      <point x="937" y="-851" type="qcurve"/>
      <point x="929" y="-853" type="line"/>
      <point x="922" y="-853" type="line"/>
      <point x="914" y="-855" type="line"/>
      <point x="906" y="-857" type="line"/>
      <point x="899" y="-858" type="line"/>
      <point x="868" y="-864" type="line"/>
      <point x="861" y="-866" type="line"/>
      <point x="855" y="-866" type="line"/>
      <point x="849" y="-868" type="line"/>
      <point x="836" y="-867"/>
      <point x="821" y="-872" type="qcurve"/>
      <point x="806" y="-872" type="line"/>
      <point x="802" y="-874" type="line"/>
      <point x="794" y="-874" type="line"/>
      <point x="775" y="-876" type="line"/>
      <point x="769" y="-876" type="line"/>
      <point x="764" y="-876" type="line"/>
      <point x="758" y="-876" type="line"/>
      <point x="752" y="-877" type="line"/>
      <point x="747" y="-877" type="line"/>
      <point x="741" y="-877" type="line"/>
      <point x="718" y="-877" type="line"/>
      <point x="712" y="-877" type="line"/>
      <point x="680" y="-877" type="line"/>
      <point x="672" y="-877" type="line"/>
      <point x="665" y="-877" type="line"/>
      <point x="657" y="-877" type="line"/>
      <point x="632" y="-877" type="line"/>
      <point x="620" y="-874"/>
      <point x="602" y="-874" type="qcurve"/>
      <point x="597" y="-872"/>
      <point x="587" y="-872" type="qcurve"/>
      <point x="581" y="-870" type="line"/>
      <point x="575" y="-870" type="line"/>
      <point x="570" y="-868" type="line"/>
      <point x="537" y="-862" type="line"/>
      <point x="526" y="-860" type="line"/>
      <point x="518" y="-857" type="line"/>
      <point x="509" y="-855" type="line"/>
      <point x="499" y="-853" type="line"/>
      <point x="490" y="-851" type="line"/>
      <point x="448" y="-836" type="line"/>
      <point x="442" y="-834" type="line"/>
      <point x="439" y="-832"/>
      <point x="434" y="-832" type="qcurve"/>
      <point x="400" y="-815" type="line"/>
      <point x="396" y="-813" type="line"/>
      <point x="387" y="-809" type="line"/>
      <point x="370" y="-799" type="line"/>
      <point x="362" y="-798" type="line"/>
      <point x="356" y="-792" type="line"/>
      <point x="349" y="-790" type="line"/>
      <point x="339" y="-780"/>
      <point x="322" y="-773" type="qcurve"/>
      <point x="315" y="-766"/>
      <point x="305" y="-759" type="qcurve"/>
      <point x="299" y="-754" type="line"/>
      <point x="294" y="-752" type="line"/>
      <point x="290" y="-746" type="line"/>
      <point x="282" y="-740" type="line"/>
      <point x="275" y="-737" type="line"/>
      <point x="274" y="-735"/>
      <point x="271" y="-733" type="qcurve"/>
      <point x="267" y="-727" type="line"/>
      <point x="261" y="-725" type="line"/>
      <point x="251" y="-712"/>
      <point x="233" y="-697" type="qcurve"/>
      <point x="232" y="-695"/>
      <point x="229" y="-693" type="qcurve"/>
      <point x="229" y="-691"/>
      <point x="227" y="-689" type="qcurve"/>
      <point x="223" y="-683" type="line"/>
      <point x="219" y="-679" type="line"/>
      <point x="210" y="-668" type="line"/>
      <point x="206" y="-662" type="line"/>
      <point x="200" y="-659" type="line"/>
      <point x="198" y="-654"/>
      <point x="195" y="-651" type="qcurve"/>
      <point x="189" y="-637"/>
      <point x="174" y="-620" type="qcurve"/>
      <point x="157" y="-586" type="line"/>
      <point x="149" y="-573" type="line"/>
      <point x="144" y="-564"/>
      <point x="141" y="-554" type="qcurve"/>
      <point x="136" y="-546" type="line"/>
      <point x="133" y="-532"/>
      <point x="124" y="-514" type="qcurve"/>
      <point x="122" y="-506" type="line"/>
      <point x="120" y="-502" type="line"/>
      <point x="120" y="-500"/>
      <point x="118" y="-499" type="qcurve"/>
      <point x="117" y="-485" type="line"/>
      <point x="113" y="-480" type="line"/>
      <point x="113" y="-472" type="line"/>
      <point x="106" y="-456"/>
      <point x="103" y="-430" type="qcurve"/>
      <point x="101" y="-426" type="line"/>
      <point x="101" y="-421"/>
      <point x="99" y="-417" type="qcurve"/>
      <point x="98" y="-390" type="line"/>
      <point x="97" y="-380"/>
      <point x="94" y="-369" type="qcurve"/>
      <point x="78" y="12"/>
      <point x="347" y="335" type="qcurve"/>
      <point x="360" y="345"/>
      <point x="374" y="362" type="qcurve"/>
      <point x="385" y="371" type="line"/>
      <point x="389" y="375" type="line"/>
      <point x="394" y="382"/>
      <point x="404" y="390" type="qcurve"/>
      <point x="408" y="396" type="line"/>
      <point x="416" y="400"/>
      <point x="425" y="409" type="qcurve"/>
      <point x="429" y="415" type="line"/>
      <point x="432" y="416"/>
      <point x="434" y="419" type="qcurve"/>
      <point x="442" y="424"/>
      <point x="452" y="432" type="qcurve"/>
      <point x="463" y="439"/>
      <point x="478" y="455" type="qcurve"/>
      <point x="488" y="459"/>
      <point x="495" y="466" type="qcurve"/>
      <point x="504" y="470"/>
      <point x="514" y="480" type="qcurve"/>
      <point x="520" y="482" type="line"/>
      <point x="535" y="493" type="line"/>
      <point x="543" y="497" type="line"/>
      <point x="549" y="502" type="line"/>
      <point x="557" y="505"/>
      <point x="566" y="512" type="qcurve"/>
      <point x="573" y="518" type="line"/>
      <point x="587" y="523"/>
      <point x="604" y="535" type="qcurve"/>
      <point x="615" y="539" type="line"/>
      <point x="623" y="544" type="line"/>
      <point x="611" y="543"/>
      <point x="592" y="548" type="qcurve"/>
      <point x="586" y="548"/>
      <point x="577" y="550" type="qcurve"/>
      <point x="570" y="550" type="line"/>
      <point x="566" y="552" type="line"/>
      <point x="560" y="554" type="line"/>
      <point x="549" y="555"/>
      <point x="533" y="560" type="qcurve"/>
      <point x="524" y="560" type="line"/>
      <point x="493" y="567" type="line"/>
      <point x="478" y="569" type="line"/>
      <point x="472" y="571" type="line"/>
      <point x="467" y="571" type="line"/>
      <point x="458" y="574"/>
      <point x="444" y="575" type="qcurve"/>
      <point x="269" y="615"/>
    </contour>
  </outline>
</glyph>
<glyph name="khah-arab" format="2">
  <advance width="1115"/>
  <unicode hex="062E"/>
  <anchor x="654" y="1365" name="Anchor_4"/>
  <anchor x="700" y="-1075" name="Anchor_5"/>
  <anchor x="650" y="1361" name="Anchor_7"/>
  <outline>
    <contour>
      <point x="755" y="-877" type="qcurve"/>
      <point x="635" y="-877" type="line"/>
      <point x="623" y="-874"/>
      <point x="604" y="-874" type="qcurve"/>
      <point x="540" y="-862" type="line"/>
      <point x="530" y="-861"/>
      <point x="437" y="-832" type="qcurve"/>
      <point x="371" y="-799"/>
      <point x="364" y="-798" type="qcurve"/>
      <point x="359" y="-792" type="line"/>
      <point x="351" y="-790" type="line"/>
      <point x="341" y="-780"/>
      <point x="325" y="-773" type="qcurve"/>
      <point x="318" y="-766"/>
      <point x="307" y="-759" type="qcurve"/>
      <point x="302" y="-754" type="line"/>
      <point x="296" y="-752"/>
      <point x="292" y="-746" type="qcurve"/>
      <point x="285" y="-740"/>
      <point x="277" y="-737" type="qcurve"/>
      <point x="273" y="-729"/>
      <point x="264" y="-725" type="qcurve"/>
      <point x="254" y="-712"/>
      <point x="235" y="-697" type="qcurve"/>
      <point x="234" y="-695"/>
      <point x="231" y="-693"/>
      <point x="226" y="-683" type="qcurve"/>
      <point x="219" y="-676"/>
      <point x="208" y="-662"/>
      <point x="203" y="-659" type="qcurve"/>
      <point x="201" y="-654"/>
      <point x="197" y="-651" type="qcurve"/>
      <point x="191" y="-637"/>
      <point x="176" y="-620" type="qcurve"/>
      <point x="159" y="-586" type="line"/>
      <point x="146" y="-565"/>
      <point x="144" y="-554" type="qcurve"/>
      <point x="138" y="-546" type="line"/>
      <point x="133" y="-525"/>
      <point x="123" y="-502" type="qcurve"/>
      <point x="123" y="-500"/>
      <point x="121" y="-499" type="qcurve"/>
      <point x="119" y="-485" type="line"/>
      <point x="115" y="-480" type="line"/>
      <point x="115" y="-472" type="line"/>
      <point x="108" y="-456"/>
      <point x="106" y="-430" type="qcurve"/>
      <point x="105" y="-428"/>
      <point x="104" y="-421"/>
      <point x="102" y="-417" type="qcurve"/>
      <point x="99" y="-381"/>
      <point x="96" y="-369" type="qcurve"/>
      <point x="95" y="-326" type="line"/>
      <point x="95" y="30"/>
      <point x="349" y="335" type="qcurve"/>
      <point x="362" y="345"/>
      <point x="376" y="362" type="qcurve"/>
      <point x="401" y="382"/>
      <point x="410" y="396" type="qcurve"/>
      <point x="423" y="402"/>
      <point x="431" y="415" type="qcurve"/>
      <point x="446" y="420"/>
      <point x="481" y="455" type="qcurve"/>
      <point x="491" y="459"/>
      <point x="498" y="466" type="qcurve"/>
      <point x="507" y="470"/>
      <point x="517" y="480" type="qcurve"/>
      <point x="535" y="487"/>
      <point x="576" y="518" type="qcurve"/>
      <point x="590" y="523"/>
      <point x="606" y="535" type="qcurve"/>
      <point x="616" y="538"/>
      <point x="625" y="544" type="qcurve"/>
      <point x="621" y="544" type="line"/>
      <point x="608" y="544"/>
      <point x="580" y="550" type="qcurve"/>
      <point x="571" y="550"/>
      <point x="562" y="554" type="qcurve"/>
      <point x="551" y="555"/>
      <point x="536" y="560" type="qcurve"/>
      <point x="526" y="560" type="line"/>
      <point x="474" y="573"/>
      <point x="446" y="575" type="qcurve"/>
      <point x="405" y="584"/>
      <point x="366" y="584" type="qcurve"/>
      <point x="238" y="584"/>
      <point x="130" y="485" type="qcurve"/>
      <point x="145" y="706"/>
      <point x="359" y="742" type="qcurve"/>
      <point x="457" y="742"/>
      <point x="522" y="729" type="qcurve"/>
      <point x="534" y="729"/>
      <point x="545" y="725" type="qcurve"/>
      <point x="558" y="725"/>
      <point x="573" y="721" type="qcurve"/>
      <point x="580" y="719"/>
      <point x="589" y="719" type="qcurve"/>
      <point x="612" y="716"/>
      <point x="627" y="712" type="qcurve"/>
      <point x="637" y="712" type="line"/>
      <point x="667" y="706"/>
      <point x="675" y="706" type="qcurve"/>
      <point x="690" y="702"/>
      <point x="696" y="702" type="qcurve"/>
      <point x="726" y="699"/>
      <point x="738" y="697"/>
      <point x="751" y="697"/>
      <point x="757" y="695" type="qcurve"/>
      <point x="772" y="695" type="line"/>
      <point x="782" y="692"/>
      <point x="871" y="687" type="qcurve"/>
      <point x="902" y="687" type="line"/>
      <point x="910" y="687"/>
      <point x="918" y="685" type="qcurve"/>
      <point x="983" y="685" type="line"/>
      <point x="997" y="685"/>
      <point x="1014" y="687" type="qcurve"/>
      <point x="1059" y="687" type="line"/>
      <point x="1098" y="689"/>
      <point x="1137" y="689" type="qcurve"/>
      <point x="1135" y="687" type="line"/>
      <point x="1137" y="687" type="line"/>
      <point x="1135" y="687" type="line"/>
      <point x="1125" y="673"/>
      <point x="1114" y="647" type="qcurve"/>
      <point x="1042" y="522" type="line"/>
      <point x="538" y="492"/>
      <point x="260" y="17" type="qcurve"/>
      <point x="260" y="11" type="line"/>
      <point x="251" y="-3"/>
      <point x="243" y="-29"/>
      <point x="239" y="-36" type="qcurve"/>
      <point x="232" y="-58"/>
      <point x="229" y="-63" type="qcurve"/>
      <point x="226" y="-72"/>
      <point x="226" y="-82" type="qcurve"/>
      <point x="220" y="-97"/>
      <point x="208" y="-156" type="qcurve"/>
      <point x="202" y="-196"/>
      <point x="202" y="-238" type="qcurve"/>
      <point x="202" y="-530"/>
      <point x="500" y="-668" type="qcurve"/>
      <point x="509" y="-675"/>
      <point x="562" y="-695" type="qcurve"/>
      <point x="604" y="-706"/>
      <point x="606" y="-708" type="qcurve"/>
      <point x="730" y="-737"/>
      <point x="856" y="-737" type="qcurve"/>
      <point x="1087" y="-737"/>
      <point x="1328" y="-640" type="qcurve"/>
      <point x="1309" y="-657" type="line"/>
      <point x="1305" y="-659"/>
      <point x="1303" y="-662" type="qcurve"/>
      <point x="1297" y="-664"/>
      <point x="1291" y="-672"/>
      <point x="1286" y="-674" type="qcurve"/>
      <point x="1279" y="-681"/>
      <point x="1267" y="-689" type="qcurve"/>
      <point x="1265" y="-693" type="line"/>
      <point x="1250" y="-700"/>
      <point x="1238" y="-712" type="qcurve"/>
      <point x="1220" y="-723"/>
      <point x="1208" y="-733" type="qcurve"/>
      <point x="1195" y="-738"/>
      <point x="1181" y="-750" type="qcurve"/>
      <point x="1166" y="-756"/>
      <point x="1137" y="-775" type="qcurve"/>
      <point x="1118" y="-779"/>
      <point x="1107" y="-790" type="qcurve"/>
      <point x="1099" y="-793"/>
      <point x="1092" y="-798" type="qcurve"/>
      <point x="1069" y="-807" type="line"/>
      <point x="1013" y="-827"/>
      <point x="998" y="-834" type="qcurve"/>
      <point x="995" y="-834"/>
      <point x="993" y="-836" type="qcurve"/>
      <point x="973" y="-840"/>
      <point x="953" y="-847" type="qcurve"/>
      <point x="835" y="-872"/>
      <point x="808" y="-872" type="qcurve"/>
      <point x="804" y="-874" type="line"/>
      <point x="766" y="-875"/>
    </contour>
    <contour>
      <point x="651" y="984" type="qcurve"/>
      <point x="591" y="1021"/>
      <point x="540" y="1096" type="qcurve"/>
      <point x="632" y="1187"/>
      <point x="642" y="1199" type="qcurve"/>
      <point x="656" y="1196"/>
      <point x="703" y="1143"/>
      <point x="759" y="1098" type="qcurve"/>
      <point x="761" y="1095" type="line"/>
      <point x="756" y="1092"/>
    </contour>
  </outline>
</glyph>
<glyph name="dal-arab" format="2">
  <advance width="653"/>
  <unicode hex="062F"/>
  <anchor x="340" y="967" name="Anchor_4"/>
  <anchor x="300" y="-200" name="Anchor_5"/>
  <anchor x="275" y="1000" name="Anchor_7"/>
  <outline>
    <contour>
      <point x="331" y="699" type="line"/>
      <point x="335" y="699" type="line"/>
      <point x="368" y="674"/>
      <point x="474" y="544" type="qcurve"/>
      <point x="585" y="378"/>
      <point x="585" y="298" type="qcurve"/>
      <point x="585" y="282" type="line"/>
      <point x="585" y="180"/>
      <point x="502" y="95" type="qcurve"/>
      <point x="342" y="4"/>
      <point x="156" y="4" type="qcurve"/>
      <point x="72" y="4" type="line"/>
      <point x="65" y="8" type="line"/>
      <point x="71" y="68"/>
      <point x="128" y="167" type="qcurve"/>
      <point x="156" y="163" type="line"/>
      <point x="192" y="163" type="line"/>
      <point x="325" y="163"/>
      <point x="494" y="238" type="qcurve"/>
      <point x="494" y="246" type="line"/>
      <point x="461" y="354"/>
      <point x="307" y="517" type="qcurve"/>
      <point x="267" y="549"/>
      <point x="267" y="552" type="qcurve"/>
    </contour>
  </outline>
</glyph>
<glyph name="reh-arab" format="2">
  <advance width="592"/>
  <unicode hex="0631"/>
  <anchor x="250" y="837" name="Anchor_4"/>
  <anchor x="200" y="-500" name="Anchor_5"/>
  <anchor x="300" y="850" name="Anchor_7"/>
  <outline>
    <contour>
      <point x="364" y="473" type="line"/>
      <point x="417" y="394" type="line"/>
      <point x="460" y="292" type="line"/>
      <point x="475" y="221" type="line"/>
      <point x="475" y="96" type="line"/>
      <point x="456" y="-1" type="line"/>
      <point x="417" y="-107" type="line"/>
      <point x="362" y="-196" type="line"/>
      <point x="300" y="-265" type="line"/>
      <point x="218" y="-327" type="line"/>
      <point x="140" y="-366" type="line"/>
      <point x="62" y="-388" type="line"/>
      <point x="10" y="-395" type="line"/>
      <point x="-83" y="-386" type="line"/>
      <point x="-183" y="-357" type="line"/>
      <point x="-212" y="-343" type="line"/>
      <point x="-221" y="-337" type="line"/>
      <point x="-226" y="-334"/>
      <point x="-230" y="-331" type="qcurve"/>
      <point x="-248" y="-321" type="line"/>
      <point x="-294" y="-280" type="line"/>
      <point x="-321" y="-248" type="line"/>
      <point x="-338" y="-222" type="line"/>
      <point x="-339" y="-219"/>
      <point x="-341" y="-215" type="qcurve"/>
      <point x="-336" y="-216" type="line"/>
      <point x="-212" y="-251" type="line"/>
      <point x="-69" y="-267" type="line"/>
      <point x="32" y="-254" type="line"/>
      <point x="120" y="-226" type="line"/>
      <point x="149" y="-212" type="line"/>
      <point x="159" y="-207" type="line"/>
      <point x="164" y="-205"/>
      <point x="168" y="-202" type="qcurve"/>
      <point x="283" y="-128" type="line"/>
      <point x="342" y="-71" type="line"/>
      <point x="409" y="20" type="line"/>
      <point x="418" y="41" type="line"/>
      <point x="421" y="67" type="line"/>
      <point x="420" y="94" type="line"/>
      <point x="412" y="130" type="line"/>
      <point x="386" y="191" type="line"/>
      <point x="342" y="263" type="line"/>
      <point x="335" y="270" type="line"/>
      <point x="311" y="304" type="line"/>
      <point x="308" y="308"/>
      <point x="307" y="314" type="qcurve"/>
    </contour>
  </outline>
</glyph>
<glyph name="zain-arab" format="2">
  <advance width="499"/>
  <unicode hex="0632"/>
  <anchor x="249" y="966" name="Anchor_4"/>
  <anchor x="191" y="-449" name="Anchor_5"/>
  <anchor x="261" y="1188" name="Anchor_7"/>
  <outline>
    <contour>
      <point x="253" y="842" type="qcurve"/>
      <point x="267" y="839"/>
      <point x="314" y="786"/>
      <point x="370" y="741" type="qcurve"/>
      <point x="372" y="738" type="line"/>
      <point x="367" y="735"/>
      <point x="262" y="627" type="qcurve"/>
      <point x="202" y="664"/>
      <point x="150" y="739" type="qcurve"/>
      <point x="243" y="830"/>
    </contour>
    <contour>
      <point x="294" y="473" type="line"/>
      <point x="347" y="394" type="line"/>
      <point x="390" y="292" type="line"/>
      <point x="405" y="221" type="line"/>
      <point x="405" y="96" type="line"/>
      <point x="386" y="-1" type="line"/>
      <point x="347" y="-107" type="line"/>
      <point x="292" y="-196" type="line"/>
      <point x="230" y="-265" type="line"/>
      <point x="148" y="-327" type="line"/>
      <point x="70" y="-366" type="line"/>
      <point x="-8" y="-388" type="line"/>
      <point x="-60" y="-395" type="line"/>
      <point x="-153" y="-386" type="line"/>
      <point x="-253" y="-357" type="line"/>
      <point x="-282" y="-343" type="line"/>
      <point x="-291" y="-337" type="line"/>
      <point x="-296" y="-334"/>
      <point x="-300" y="-331" type="qcurve"/>
      <point x="-318" y="-321" type="line"/>
      <point x="-364" y="-280" type="line"/>
      <point x="-391" y="-248" type="line"/>
      <point x="-408" y="-222" type="line"/>
      <point x="-409" y="-219"/>
      <point x="-411" y="-215" type="qcurve"/>
      <point x="-406" y="-216" type="line"/>
      <point x="-282" y="-251" type="line"/>
      <point x="-139" y="-267" type="line"/>
      <point x="-38" y="-254" type="line"/>
      <point x="50" y="-226" type="line"/>
      <point x="79" y="-212" type="line"/>
      <point x="89" y="-207" type="line"/>
      <point x="94" y="-205"/>
      <point x="98" y="-202" type="qcurve"/>
      <point x="213" y="-128" type="line"/>
      <point x="272" y="-71" type="line"/>
      <point x="339" y="20" type="line"/>
      <point x="348" y="41" type="line"/>
      <point x="351" y="67" type="line"/>
      <point x="350" y="94" type="line"/>
      <point x="342" y="130" type="line"/>
      <point x="316" y="191" type="line"/>
      <point x="272" y="263" type="line"/>
      <point x="265" y="270" type="line"/>
      <point x="241" y="304" type="line"/>
      <point x="238" y="308"/>
      <point x="237" y="314" type="qcurve"/>
    </contour>
  </outline>
</glyph>
<glyph name="zah-arab" format="2">
  <advance width="1239"/>
  <unicode hex="0638"/>
  <anchor x="840" y="1162" name="Anchor_4"/>
  <anchor x="700" y="-130" name="Anchor_5"/>
  <anchor x="788" y="1262" name="Anchor_7"/>
  <outline>
    <contour>
      <point x="803" y="1016" type="qcurve"/>
      <point x="793" y="1004"/>
      <point x="700" y="912" type="qcurve"/>
      <point x="751" y="838"/>
      <point x="812" y="801" type="qcurve"/>
      <point x="918" y="909"/>
      <point x="922" y="911" type="qcurve"/>
      <point x="920" y="914" type="line"/>
      <point x="864" y="960"/>
      <point x="817" y="1013"/>
    </contour>
    <contour>
      <point x="490" y="1470" type="qcurve"/>
      <point x="502" y="1470" type="line"/>
      <point x="538" y="1277"/>
      <point x="539" y="1226" type="qcurve"/>
      <point x="518" y="1201" type="line"/>
      <point x="567" y="541"/>
      <point x="566" y="506" type="qcurve"/>
      <point x="566" y="415"/>
      <point x="518" y="305" type="qcurve"/>
      <point x="522" y="305" type="line"/>
      <point x="754" y="610"/>
      <point x="928" y="611" type="qcurve"/>
      <point x="944" y="611" type="line"/>
      <point x="1069" y="611"/>
      <point x="1145" y="486" type="qcurve"/>
      <point x="1165" y="445"/>
      <point x="1165" y="410" type="qcurve"/>
      <point x="1165" y="378" type="line"/>
      <point x="1165" y="262"/>
      <point x="1049" y="165" type="qcurve"/>
      <point x="960" y="106"/>
      <point x="827" y="65" type="qcurve"/>
      <point x="595" y="0"/>
      <point x="405" y="0" type="qcurve"/>
      <point x="333" y="0" type="line"/>
      <point x="158" y="0"/>
      <point x="65" y="60" type="qcurve"/>
      <point x="0" y="80"/>
      <point x="0" y="89" type="qcurve"/>
      <point x="0" y="92" type="line"/>
      <point x="405" y="118"/>
      <point x="405" y="168" type="qcurve"/>
      <point x="477" y="242"/>
      <point x="478" y="362" type="qcurve"/>
      <point x="406" y="1310"/>
      <point x="405" y="1354" type="qcurve"/>
      <point x="490" y="1460"/>
    </contour>
    <contour>
      <point x="470" y="137" type="qcurve"/>
      <point x="750" y="177"/>
      <point x="935" y="233" type="qcurve"/>
      <point x="967" y="249"/>
      <point x="1053" y="273" type="qcurve"/>
      <point x="1013" y="454"/>
      <point x="872" y="454" type="qcurve"/>
      <point x="863" y="454" type="line"/>
      <point x="755" y="454"/>
      <point x="675" y="374" type="qcurve"/>
      <point x="569" y="275"/>
    </contour>
  </outline>
</glyph>
<glyph name="arabictatweelmod" format="2">
  <advance width="197"/>
  <unicode hex="0640"/>
  <anchor x="100" y="550" name="Anchor_4"/>
  <anchor x="100" y="-163" name="Anchor_5"/>
  <anchor x="75" y="375" name="Anchor_7"/>
  <outline>
    <contour>
      <point x="100" y="-6" type="qcurve"/>
      <point x="51" y="-6"/>
      <point x="0" y="0" type="qcurve"/>
      <point x="0" y="171" type="line"/>
      <point x="50" y="168"/>
      <point x="99" y="168" type="qcurve"/>
      <point x="149" y="168"/>
      <point x="197" y="171" type="qcurve"/>
      <point x="197" y="0" type="line"/>
      <point x="149" y="-6"/>
    </contour>
  </outline>
</glyph>
<glyph name="noon-arab" format="2">
  <advance width="1101"/>
  <unicode hex="0646"/>
  <anchor x="500" y="1012" name="Anchor_4"/>
  <anchor x="525" y="-525" name="Anchor_5"/>
  <anchor x="500" y="1075" name="Anchor_7"/>
  <outline>
    <contour>
      <point x="507" y="865" type="qcurve"/>
      <point x="521" y="862"/>
      <point x="568" y="809"/>
      <point x="624" y="763" type="qcurve"/>
      <point x="626" y="760" type="line"/>
      <point x="621" y="757"/>
      <point x="516" y="650" type="qcurve"/>
      <point x="456" y="687"/>
      <point x="404" y="761" type="qcurve"/>
      <point x="497" y="853"/>
    </contour>
    <contour>
      <point x="960" y="542" type="qcurve"/>
      <point x="966" y="542" type="line"/>
      <point x="1056" y="358"/>
      <point x="1056" y="233" type="qcurve"/>
      <point x="1056" y="143" type="line"/>
      <point x="1056" y="9"/>
      <point x="951" y="-133" type="qcurve"/>
      <point x="749" y="-342"/>
      <point x="487" y="-343" type="qcurve"/>
      <point x="481" y="-343" type="line"/>
      <point x="274" y="-343"/>
      <point x="137" y="-210" type="qcurve"/>
      <point x="34" y="-103"/>
      <point x="34" y="75" type="qcurve"/>
      <point x="34" y="110" type="line"/>
      <point x="34" y="317"/>
      <point x="150" y="467" type="qcurve"/>
      <point x="163" y="477" type="line"/>
      <point x="169" y="477" type="line"/>
      <point x="179" y="477"/>
      <point x="179" y="464" type="qcurve"/>
      <point x="179" y="439"/>
      <point x="130" y="317" type="qcurve"/>
      <point x="111" y="248"/>
      <point x="111" y="191" type="qcurve"/>
      <point x="111" y="-57"/>
      <point x="375" y="-149" type="qcurve"/>
      <point x="449" y="-172"/>
      <point x="506" y="-172" type="qcurve"/>
      <point x="548" y="-172" type="line"/>
      <point x="775" y="-172"/>
      <point x="960" y="8" type="qcurve"/>
      <point x="966" y="22"/>
      <point x="966" y="59" type="qcurve"/>
      <point x="966" y="82" type="line"/>
      <point x="966" y="246"/>
      <point x="876" y="406" type="qcurve"/>
      <point x="945" y="526"/>
    </contour>
  </outline>
</glyph>
<glyph name="heh-arab" format="2">
  <advance width="632"/>
  <unicode hex="0647"/>
  <anchor x="300" y="925" name="Anchor_4"/>
  <anchor x="325" y="-200" name="Anchor_5"/>
  <anchor x="288" y="975" name="Anchor_7"/>
  <outline>
    <contour>
      <point x="293" y="722" type="line"/>
      <point x="317" y="722" type="line"/>
      <point x="421" y="646"/>
      <point x="486" y="550" type="qcurve"/>
      <point x="537" y="482"/>
      <point x="572" y="352" type="qcurve"/>
      <point x="572" y="326"/>
      <point x="572" y="298"/>
      <point x="561" y="230" type="qcurve"/>
      <point x="513" y="98"/>
      <point x="403" y="40" type="qcurve"/>
      <point x="358" y="19"/>
      <point x="306" y="7" type="qcurve"/>
      <point x="254" y="7" type="line"/>
      <point x="128" y="7"/>
      <point x="83" y="126" type="qcurve"/>
      <point x="73" y="159"/>
      <point x="72" y="175" type="qcurve"/>
      <point x="72" y="225" type="line"/>
      <point x="82" y="347"/>
      <point x="221" y="561" type="qcurve"/>
      <point x="221" y="647"/>
      <point x="288" y="719" type="qcurve"/>
    </contour>
    <contour>
      <point x="289" y="503" type="qcurve"/>
      <point x="188" y="387"/>
      <point x="174" y="281" type="qcurve"/>
      <point x="174" y="275" type="line"/>
      <point x="174" y="206"/>
      <point x="256" y="173" type="qcurve"/>
      <point x="284" y="164"/>
      <point x="307" y="165" type="qcurve"/>
      <point x="391" y="165"/>
      <point x="477" y="234" type="qcurve"/>
      <point x="457" y="327"/>
      <point x="382" y="419" type="qcurve"/>
      <point x="308" y="503"/>
    </contour>
  </outline>
</glyph>
<glyph name="waw-arab" format="2">
  <advance width="583"/>
  <unicode hex="0648"/>
  <anchor x="338" y="675" name="Anchor_4"/>
  <anchor x="275" y="-463" name="Anchor_5"/>
  <anchor x="300" y="737" name="Anchor_7"/>
  <outline>
    <contour>
      <point x="86" y="-307" type="line"/>
      <point x="66" y="-307" type="line"/>
      <point x="-125" y="-307"/>
      <point x="-272" y="-168" type="qcurve"/>
      <point x="-276" y="-162"/>
      <point x="-277" y="-156" type="qcurve"/>
      <point x="-268" y="-156"/>
      <point x="-244" y="-164" type="qcurve"/>
      <point x="-227" y="-167"/>
      <point x="-210" y="-168" type="qcurve"/>
      <point x="-207" y="-169"/>
      <point x="-168" y="-174"/>
      <point x="-154" y="-176" type="qcurve"/>
      <point x="-147" y="-177"/>
      <point x="-137" y="-177" type="qcurve"/>
      <point x="-135" y="-178" type="line"/>
      <point x="-118" y="-178" type="line"/>
      <point x="-78" y="-181"/>
      <point x="-42" y="-181" type="qcurve"/>
      <point x="248" y="-181"/>
      <point x="449" y="56" type="qcurve"/>
      <point x="455" y="84" type="line"/>
      <point x="455" y="91"/>
      <point x="457" y="97" type="qcurve"/>
      <point x="459" y="125" type="line"/>
      <point x="459" y="160"/>
      <point x="457" y="174" type="qcurve"/>
      <point x="433" y="171"/>
      <point x="432" y="170" type="qcurve"/>
      <point x="420" y="170"/>
      <point x="399" y="168"/>
      <point x="377" y="166"/>
      <point x="344" y="166" type="qcurve"/>
      <point x="339" y="167" type="line"/>
      <point x="288" y="167"/>
      <point x="265" y="183" type="qcurve"/>
      <point x="261" y="186"/>
      <point x="255" y="187" type="qcurve"/>
      <point x="240" y="202"/>
      <point x="235" y="206" type="qcurve"/>
      <point x="233" y="212"/>
      <point x="227" y="217" type="qcurve"/>
      <point x="217" y="241"/>
      <point x="217" y="271" type="qcurve"/>
      <point x="220" y="323"/>
      <point x="236" y="364" type="qcurve"/>
      <point x="243" y="381"/>
      <point x="248" y="397" type="qcurve"/>
      <point x="252" y="406" type="line"/>
      <point x="265" y="422"/>
      <point x="268" y="433" type="qcurve"/>
      <point x="288" y="462"/>
      <point x="291" y="465"/>
      <point x="293" y="469" type="qcurve"/>
      <point x="305" y="479"/>
      <point x="308" y="487" type="qcurve"/>
      <point x="313" y="490"/>
      <point x="318" y="497" type="qcurve"/>
      <point x="320" y="498"/>
      <point x="322" y="500"/>
      <point x="334" y="511" type="qcurve"/>
      <point x="339" y="513"/>
      <point x="345" y="518" type="qcurve"/>
      <point x="364" y="527" type="line"/>
      <point x="367" y="527" type="line"/>
      <point x="375" y="530"/>
      <point x="383" y="530" type="qcurve"/>
      <point x="412" y="530"/>
      <point x="439" y="512" type="qcurve"/>
      <point x="443" y="507"/>
      <point x="449" y="502" type="qcurve"/>
      <point x="451" y="498"/>
      <point x="456" y="496" type="qcurve"/>
      <point x="457" y="495"/>
      <point x="461" y="491"/>
      <point x="465" y="481"/>
      <point x="471" y="477" type="qcurve"/>
      <point x="473" y="470"/>
      <point x="480" y="463" type="qcurve"/>
      <point x="502" y="421"/>
      <point x="521" y="377" type="qcurve"/>
      <point x="525" y="353"/>
      <point x="533" y="333" type="qcurve"/>
      <point x="533" y="323"/>
      <point x="536" y="315" type="qcurve"/>
      <point x="536" y="304"/>
      <point x="539" y="293" type="qcurve"/>
      <point x="540" y="282" type="line"/>
      <point x="540" y="210"/>
      <point x="537" y="198" type="qcurve"/>
      <point x="537" y="189" type="line"/>
      <point x="532" y="173"/>
      <point x="532" y="161" type="qcurve"/>
      <point x="520" y="116"/>
      <point x="519" y="104" type="qcurve"/>
      <point x="493" y="32"/>
      <point x="488" y="20" type="qcurve"/>
      <point x="485" y="15"/>
      <point x="483" y="8" type="qcurve"/>
      <point x="470" y="-22" type="line"/>
      <point x="454" y="-51"/>
      <point x="451" y="-60" type="qcurve"/>
      <point x="444" y="-67"/>
      <point x="441" y="-77" type="qcurve"/>
      <point x="438" y="-80"/>
      <point x="421" y="-106"/>
      <point x="417" y="-110" type="qcurve"/>
      <point x="417" y="-111"/>
      <point x="413" y="-115"/>
      <point x="409" y="-122"/>
      <point x="406" y="-124" type="qcurve"/>
      <point x="324" y="-235"/>
      <point x="183" y="-288" type="qcurve"/>
      <point x="173" y="-289"/>
      <point x="156" y="-296" type="qcurve"/>
      <point x="147" y="-296"/>
      <point x="138" y="-300" type="qcurve"/>
      <point x="136" y="-300"/>
      <point x="135" y="-301" type="qcurve"/>
      <point x="130" y="-301"/>
      <point x="127" y="-302" type="qcurve"/>
      <point x="108" y="-305"/>
      <point x="88" y="-306" type="qcurve"/>
    </contour>
  </outline>
</glyph>
<glyph name="arabicdammacomb" format="2">
  <advance width="0"/>
  <unicode hex="064F"/>
  <anchor x="100" y="0" name="top-arab"/>
  <anchor x="100" y="0" name="top-arab"/>
  <outline>
    <contour>
      <point x="376" y="564" type="line"/>
      <point x="400" y="564" type="line"/>
      <point x="402" y="563" type="line"/>
      <point x="405" y="563"/>
      <point x="407" y="562" type="qcurve"/>
      <point x="409" y="562" type="line"/>
      <point x="412" y="560"/>
      <point x="417" y="559" type="qcurve"/>
      <point x="421" y="556" type="line"/>
      <point x="425" y="553"/>
      <point x="429" y="548" type="qcurve"/>
      <point x="433" y="544"/>
      <point x="437" y="538" type="qcurve"/>
      <point x="442" y="525" type="line"/>
      <point x="442" y="522"/>
      <point x="443" y="519" type="qcurve"/>
      <point x="443" y="514" type="line"/>
      <point x="444" y="513" type="line"/>
      <point x="444" y="476" type="line"/>
      <point x="443" y="463" type="line"/>
      <point x="443" y="461" type="line"/>
      <point x="441" y="456"/>
      <point x="440" y="448" type="qcurve"/>
      <point x="440" y="445" type="line"/>
      <point x="437" y="439"/>
      <point x="436" y="432" type="qcurve"/>
      <point x="436" y="430"/>
      <point x="434" y="425" type="qcurve"/>
      <point x="433" y="422"/>
      <point x="432" y="419" type="qcurve"/>
      <point x="430" y="413"/>
      <point x="428" y="405" type="qcurve"/>
      <point x="426" y="400"/>
      <point x="424" y="395" type="qcurve"/>
      <point x="423" y="392" type="line"/>
      <point x="422" y="389"/>
      <point x="421" y="384" type="qcurve"/>
      <point x="420" y="379" type="line"/>
      <point x="417" y="373" type="line"/>
      <point x="410" y="356" type="line"/>
      <point x="410" y="354" type="line"/>
      <point x="407" y="349"/>
      <point x="405" y="342" type="qcurve"/>
      <point x="403" y="339"/>
      <point x="403" y="336" type="qcurve"/>
      <point x="405" y="335"/>
      <point x="407" y="333" type="qcurve"/>
      <point x="415" y="327" type="line"/>
      <point x="413" y="324" type="line"/>
      <point x="412" y="318"/>
      <point x="407" y="311" type="qcurve"/>
      <point x="406" y="305"/>
      <point x="403" y="300" type="qcurve"/>
      <point x="400" y="296"/>
      <point x="398" y="289" type="qcurve"/>
      <point x="397" y="287" type="line"/>
      <point x="395" y="282"/>
      <point x="391" y="277" type="qcurve"/>
      <point x="389" y="273"/>
      <point x="387" y="268" type="qcurve"/>
      <point x="386" y="266" type="line"/>
      <point x="384" y="266" type="line"/>
      <point x="382" y="262"/>
      <point x="380" y="255" type="qcurve"/>
      <point x="379" y="254" type="line"/>
      <point x="377" y="251"/>
      <point x="374" y="246" type="qcurve"/>
      <point x="373" y="245" type="line"/>
      <point x="372" y="244" type="line"/>
      <point x="369" y="240"/>
      <point x="366" y="233" type="qcurve"/>
      <point x="365" y="232" type="line"/>
      <point x="361" y="235"/>
      <point x="358" y="241" type="qcurve"/>
      <point x="354" y="244"/>
      <point x="349" y="249" type="qcurve"/>
      <point x="345" y="252" type="line"/>
      <point x="342" y="246" type="line"/>
      <point x="340" y="243"/>
      <point x="336" y="239"/>
      <point x="335" y="235" type="qcurve"/>
      <point x="331" y="231"/>
      <point x="328" y="226" type="qcurve"/>
      <point x="327" y="226" type="line"/>
      <point x="324" y="221"/>
      <point x="321" y="215" type="qcurve"/>
      <point x="317" y="211"/>
      <point x="313" y="206" type="qcurve"/>
      <point x="310" y="203"/>
      <point x="305" y="197" type="qcurve"/>
      <point x="305" y="196" type="line"/>
      <point x="297" y="187" type="line"/>
      <point x="293" y="183"/>
      <point x="288" y="177" type="qcurve"/>
      <point x="285" y="174"/>
      <point x="281" y="168" type="qcurve"/>
      <point x="278" y="167"/>
      <point x="275" y="165" type="qcurve"/>
      <point x="274" y="163"/>
      <point x="271" y="160" type="qcurve"/>
      <point x="268" y="157"/>
      <point x="263" y="151" type="qcurve"/>
      <point x="259" y="146"/>
      <point x="253" y="143" type="qcurve"/>
      <point x="249" y="139"/>
      <point x="245" y="134" type="qcurve"/>
      <point x="241" y="131"/>
      <point x="235" y="127" type="qcurve"/>
      <point x="232" y="125"/>
      <point x="230" y="121" type="qcurve"/>
      <point x="226" y="119" type="line"/>
      <point x="223" y="116"/>
      <point x="218" y="111" type="qcurve"/>
      <point x="217" y="110" type="line"/>
      <point x="213" y="106"/>
      <point x="207" y="103" type="qcurve"/>
      <point x="205" y="101"/>
      <point x="202" y="98" type="qcurve"/>
      <point x="200" y="97"/>
      <point x="198" y="94" type="qcurve"/>
      <point x="187" y="88" type="line"/>
      <point x="183" y="84"/>
      <point x="178" y="80" type="qcurve"/>
      <point x="174" y="76"/>
      <point x="168" y="72" type="qcurve"/>
      <point x="164" y="70"/>
      <point x="161" y="67" type="qcurve"/>
      <point x="159" y="66" type="line"/>
      <point x="158" y="65" type="line"/>
      <point x="153" y="62"/>
      <point x="148" y="57" type="qcurve"/>
      <point x="143" y="55"/>
      <point x="138" y="49" type="qcurve"/>
      <point x="133" y="47"/>
      <point x="128" y="43" type="qcurve"/>
      <point x="123" y="41"/>
      <point x="117" y="36" type="qcurve"/>
      <point x="112" y="34"/>
      <point x="107" y="30" type="qcurve"/>
      <point x="103" y="30"/>
      <point x="100" y="27" type="qcurve"/>
      <point x="94" y="24" type="line"/>
      <point x="90" y="23"/>
      <point x="87" y="20" type="qcurve"/>
      <point x="85" y="19" type="line"/>
      <point x="83" y="19" type="line"/>
      <point x="74" y="15" type="line"/>
      <point x="71" y="14" type="line"/>
      <point x="70" y="14" type="line"/>
      <point x="58" y="9" type="line"/>
      <point x="52" y="9"/>
      <point x="45" y="5" type="qcurve"/>
      <point x="39" y="5"/>
      <point x="33" y="2" type="qcurve"/>
      <point x="30" y="2" type="line"/>
      <point x="26" y="1"/>
      <point x="23" y="1" type="qcurve"/>
      <point x="19" y="0"/>
      <point x="14" y="0" type="qcurve"/>
      <point x="-1" y="0" type="line"/>
      <point x="0" y="1" type="line"/>
      <point x="5" y="4"/>
      <point x="10" y="9" type="qcurve"/>
      <point x="15" y="12"/>
      <point x="21" y="15" type="qcurve"/>
      <point x="25" y="19"/>
      <point x="30" y="22" type="qcurve"/>
      <point x="33" y="25"/>
      <point x="38" y="28" type="qcurve"/>
      <point x="40" y="29" type="line"/>
      <point x="41" y="30" type="line"/>
      <point x="46" y="33"/>
      <point x="51" y="37" type="qcurve"/>
      <point x="55" y="40"/>
      <point x="60" y="43" type="qcurve"/>
      <point x="62" y="45" type="line"/>
      <point x="64" y="46"/>
      <point x="67" y="48" type="qcurve"/>
      <point x="70" y="50"/>
      <point x="71" y="51" type="qcurve"/>
      <point x="75" y="55"/>
      <point x="82" y="59" type="qcurve"/>
      <point x="83" y="60"/>
      <point x="85" y="62" type="qcurve"/>
      <point x="87" y="63"/>
      <point x="89" y="66" type="qcurve"/>
      <point x="91" y="66" type="line"/>
      <point x="91" y="67" type="line"/>
      <point x="94" y="69"/>
      <point x="98" y="72" type="qcurve"/>
      <point x="100" y="72" type="line"/>
      <point x="101" y="74" type="line"/>
      <point x="106" y="76"/>
      <point x="110" y="82" type="qcurve"/>
      <point x="115" y="84"/>
      <point x="120" y="89" type="qcurve"/>
      <point x="125" y="91"/>
      <point x="130" y="97" type="qcurve"/>
      <point x="135" y="99"/>
      <point x="140" y="105" type="qcurve"/>
      <point x="143" y="106"/>
      <point x="147" y="110"/>
      <point x="150" y="112" type="qcurve"/>
      <point x="153" y="116"/>
      <point x="159" y="120" type="qcurve"/>
      <point x="163" y="123"/>
      <point x="167" y="128" type="qcurve"/>
      <point x="168" y="128" type="line"/>
      <point x="175" y="134" type="line"/>
      <point x="176" y="134"/>
      <point x="176" y="135" type="qcurve"/>
      <point x="178" y="136" type="line"/>
      <point x="181" y="139"/>
      <point x="185" y="143" type="qcurve"/>
      <point x="187" y="143" type="line"/>
      <point x="187" y="145" type="line"/>
      <point x="189" y="147"/>
      <point x="192" y="149" type="qcurve"/>
      <point x="194" y="149" type="line"/>
      <point x="196" y="152" type="line"/>
      <point x="200" y="156"/>
      <point x="206" y="160" type="qcurve"/>
      <point x="208" y="162"/>
      <point x="210" y="166" type="qcurve"/>
      <point x="214" y="168" type="line"/>
      <point x="217" y="170"/>
      <point x="219" y="174" type="qcurve"/>
      <point x="224" y="177" type="line"/>
      <point x="227" y="181"/>
      <point x="232" y="186" type="qcurve"/>
      <point x="235" y="189"/>
      <point x="242" y="194" type="qcurve"/>
      <point x="245" y="198"/>
      <point x="250" y="203" type="qcurve"/>
      <point x="252" y="205"/>
      <point x="255" y="208" type="qcurve"/>
      <point x="257" y="208" type="line"/>
      <point x="257" y="210" type="line"/>
      <point x="259" y="210" type="line"/>
      <point x="262" y="214"/>
      <point x="267" y="220" type="qcurve"/>
      <point x="270" y="223"/>
      <point x="275" y="228" type="qcurve"/>
      <point x="276" y="228" type="line"/>
      <point x="278" y="231"/>
      <point x="281" y="234" type="qcurve"/>
      <point x="283" y="235" type="line"/>
      <point x="283" y="236" type="line"/>
      <point x="285" y="237" type="line"/>
      <point x="287" y="239"/>
      <point x="288" y="242" type="qcurve"/>
      <point x="290" y="244"/>
      <point x="293" y="246" type="qcurve"/>
      <point x="297" y="249"/>
      <point x="301" y="256" type="qcurve"/>
      <point x="306" y="259"/>
      <point x="309" y="265" type="qcurve"/>
      <point x="313" y="269"/>
      <point x="318" y="274" type="qcurve"/>
      <point x="320" y="276"/>
      <point x="323" y="280" type="qcurve"/>
      <point x="319" y="283" type="line"/>
      <point x="315" y="286"/>
      <point x="309" y="290" type="qcurve"/>
      <point x="307" y="292"/>
      <point x="304" y="294" type="qcurve"/>
      <point x="304" y="295" type="line"/>
      <point x="302" y="297" type="line"/>
      <point x="300" y="298" type="line"/>
      <point x="297" y="301"/>
      <point x="293" y="305" type="qcurve"/>
      <point x="291" y="305" type="line"/>
      <point x="290" y="306" type="line"/>
      <point x="289" y="307"/>
      <point x="286" y="310" type="qcurve"/>
      <point x="285" y="313"/>
      <point x="282" y="315" type="qcurve"/>
      <point x="281" y="318"/>
      <point x="277" y="321" type="qcurve"/>
      <point x="274" y="325" type="line"/>
      <point x="271" y="329"/>
      <point x="267" y="333" type="qcurve"/>
      <point x="266" y="334" type="line"/>
      <point x="264" y="339"/>
      <point x="262" y="343" type="qcurve"/>
      <point x="262" y="345" type="line"/>
      <point x="261" y="346" type="line"/>
      <point x="259" y="351"/>
      <point x="256" y="359" type="qcurve"/>
      <point x="255" y="364"/>
      <point x="255" y="369" type="qcurve"/>
      <point x="254" y="371" type="line"/>
      <point x="254" y="384" type="line"/>
      <point x="254" y="387"/>
      <point x="255" y="390" type="qcurve"/>
      <point x="255" y="400" type="line"/>
      <point x="256" y="402" type="line"/>
      <point x="256" y="404" type="line"/>
      <point x="257" y="405" type="line"/>
      <point x="257" y="408"/>
      <point x="258" y="413" type="qcurve"/>
      <point x="260" y="417"/>
      <point x="260" y="421" type="qcurve"/>
      <point x="261" y="424"/>
      <point x="262" y="427" type="qcurve"/>
      <point x="263" y="428" type="line"/>
      <point x="264" y="434" type="line"/>
      <point x="265" y="438"/>
      <point x="267" y="445" type="qcurve"/>
      <point x="267" y="447" type="line"/>
      <point x="269" y="453"/>
      <point x="273" y="459" type="qcurve"/>
      <point x="275" y="463"/>
      <point x="278" y="468" type="qcurve"/>
      <point x="279" y="468"/>
      <point x="280" y="470" type="qcurve"/>
      <point x="283" y="474"/>
      <point x="286" y="482" type="qcurve"/>
      <point x="289" y="486"/>
      <point x="293" y="492" type="qcurve"/>
      <point x="300" y="502" type="line"/>
      <point x="303" y="505"/>
      <point x="305" y="509" type="qcurve"/>
      <point x="305" y="511" type="line"/>
      <point x="307" y="512" type="line"/>
      <point x="309" y="515"/>
      <point x="313" y="519" type="qcurve"/>
      <point x="313" y="521" type="line"/>
      <point x="315" y="522" type="line"/>
      <point x="318" y="526"/>
      <point x="324" y="530" type="qcurve"/>
      <point x="327" y="535"/>
      <point x="331" y="538" type="qcurve"/>
      <point x="331" y="540" type="line"/>
      <point x="335" y="543"/>
      <point x="342" y="547" type="qcurve"/>
      <point x="345" y="550"/>
      <point x="351" y="554" type="qcurve"/>
      <point x="355" y="557" type="line"/>
      <point x="358" y="558"/>
      <point x="363" y="561" type="qcurve"/>
      <point x="367" y="561"/>
      <point x="370" y="563" type="qcurve"/>
    </contour>
    <contour>
      <point x="339" y="468" type="line"/>
      <point x="330" y="466" type="line"/>
      <point x="328" y="466" type="line"/>
      <point x="319" y="463" type="line"/>
      <point x="311" y="458" type="line"/>
      <point x="304" y="451" type="line"/>
      <point x="302" y="449" type="line"/>
      <point x="302" y="445" type="line"/>
      <point x="304" y="443" type="line"/>
      <point x="304" y="439"/>
      <point x="305" y="434" type="qcurve"/>
      <point x="306" y="433" type="line"/>
      <point x="308" y="430"/>
      <point x="311" y="425" type="qcurve"/>
      <point x="314" y="422"/>
      <point x="317" y="418" type="qcurve"/>
      <point x="320" y="415"/>
      <point x="324" y="410" type="qcurve"/>
      <point x="326" y="408"/>
      <point x="328" y="405" type="qcurve"/>
      <point x="329" y="404" type="line"/>
      <point x="331" y="401"/>
      <point x="336" y="400" type="qcurve"/>
      <point x="336" y="398" type="line"/>
      <point x="339" y="395"/>
      <point x="343" y="393" type="qcurve"/>
      <point x="344" y="392" type="line"/>
      <point x="349" y="387" type="line"/>
      <point x="350" y="385" type="line"/>
      <point x="353" y="383"/>
      <point x="357" y="380" type="qcurve"/>
      <point x="364" y="374" type="line"/>
      <point x="366" y="371"/>
      <point x="371" y="367" type="qcurve"/>
      <point x="373" y="364"/>
      <point x="377" y="361" type="qcurve"/>
      <point x="380" y="359" type="line"/>
      <point x="383" y="364" type="line"/>
      <point x="385" y="367"/>
      <point x="387" y="371" type="qcurve"/>
      <point x="390" y="374"/>
      <point x="392" y="380" type="qcurve"/>
      <point x="394" y="385"/>
      <point x="395" y="389" type="qcurve"/>
      <point x="397" y="395"/>
      <point x="398" y="401" type="qcurve"/>
      <point x="399" y="409" type="line"/>
      <point x="398" y="412" type="line"/>
      <point x="398" y="417" type="line"/>
      <point x="398" y="423" type="line"/>
      <point x="396" y="427"/>
      <point x="394" y="433" type="qcurve"/>
      <point x="392" y="438"/>
      <point x="390" y="443" type="qcurve"/>
      <point x="387" y="446"/>
      <point x="384" y="450" type="qcurve"/>
      <point x="381" y="453"/>
      <point x="378" y="456" type="qcurve"/>
      <point x="370" y="462" type="line"/>
      <point x="366" y="464"/>
      <point x="362" y="466" type="qcurve"/>
      <point x="357" y="467"/>
      <point x="351" y="468" type="qcurve"/>
      <point x="345" y="468" type="line"/>
    </contour>
  </outline>
</glyph>
<glyph name="arabicmaddahcomb" format="2">
  <advance width="0"/>
  <unicode hex="0653"/>
  <anchor x="228" y="0" name="top-arab"/>
  <anchor x="228" y="0" name="top-arab"/>
  <outline>
    <contour>
      <point x="476" y="105" type="qcurve"/>
      <point x="419" y="16"/>
      <point x="325" y="15" type="qcurve"/>
      <point x="307" y="15"/>
      <point x="254" y="18"/>
      <point x="184" y="26"/>
      <point x="131" y="29"/>
      <point x="113" y="29" type="qcurve"/>
      <point x="64" y="29"/>
      <point x="0" y="0" type="qcurve"/>
      <point x="12" y="38"/>
      <point x="61" y="66" type="qcurve"/>
      <point x="109" y="94"/>
      <point x="150" y="93" type="qcurve"/>
      <point x="166" y="93"/>
      <point x="214" y="90"/>
      <point x="279" y="83"/>
      <point x="326" y="80"/>
      <point x="343" y="80" type="qcurve"/>
      <point x="390" y="80"/>
    </contour>
  </outline>
</glyph>
<glyph name="arabichamzacomb" format="2">
  <advance width="0"/>
  <unicode hex="0654"/>
  <anchor x="128" y="0" name="top-arab"/>
  <anchor x="128" y="0" name="top-arab"/>
  <outline>
    <contour>
      <point x="62" y="331" type="qcurve"/>
      <point x="91" y="425"/>
      <point x="192" y="454" type="qcurve"/>
      <point x="206" y="456"/>
      <point x="230" y="452" type="qcurve"/>
      <point x="237" y="452" type="line"/>
      <point x="299" y="427"/>
      <point x="278" y="358" type="qcurve"/>
      <point x="181" y="387"/>
      <point x="91" y="321" type="qcurve"/>
      <point x="98" y="311"/>
      <point x="126" y="277"/>
      <point x="169" y="242"/>
      <point x="209" y="221" type="qcurve"/>
      <point x="213" y="219" type="line"/>
      <point x="216" y="218" type="line"/>
      <point x="239" y="235"/>
      <point x="385" y="316"/>
      <point x="384" y="298" type="qcurve"/>
      <point x="329" y="212" type="line"/>
      <point x="326" y="206" type="line"/>
      <point x="311" y="202"/>
      <point x="180" y="115"/>
      <point x="101" y="68"/>
      <point x="11" y="2"/>
      <point x="0" y="0" type="qcurve"/>
      <point x="0" y="15" type="line"/>
      <point x="3" y="42"/>
      <point x="50" y="99"/>
      <point x="111" y="143"/>
      <point x="120" y="149" type="qcurve"/>
      <point x="13" y="212"/>
    </contour>
  </outline>
</glyph>
<glyph name="hehdoachashmee-arab" format="2">
  <advance width="1035"/>
  <unicode hex="06BE"/>
  <anchor x="625" y="950" name="Anchor_4"/>
  <anchor x="600" y="-125" name="Anchor_5"/>
  <anchor x="650" y="987" name="Anchor_7"/>
  <outline>
    <contour>
      <point x="104" y="-29" type="line"/>
      <point x="130" y="-3"/>
      <point x="225" y="75" type="qcurve"/>
      <point x="367" y="174" type="line"/>
      <point x="360" y="180"/>
      <point x="340" y="206" type="qcurve"/>
      <point x="327" y="256" type="line"/>
      <point x="324" y="294"/>
      <point x="324" y="333" type="qcurve"/>
      <point x="342" y="423" type="line"/>
      <point x="377" y="495" type="line"/>
      <point x="418" y="548" type="line"/>
      <point x="457" y="587"/>
      <point x="478" y="602" type="qcurve"/>
      <point x="486" y="607"/>
      <point x="489" y="611" type="qcurve"/>
      <point x="532" y="636"/>
      <point x="576" y="660" type="qcurve"/>
      <point x="585" y="684"/>
      <point x="620" y="748" type="qcurve"/>
      <point x="643" y="779" type="line"/>
      <point x="709" y="682" type="line"/>
      <point x="874" y="511" type="line"/>
      <point x="879" y="503"/>
      <point x="893" y="490"/>
      <point x="934" y="437" type="qcurve"/>
      <point x="963" y="385" type="line"/>
      <point x="991" y="305" type="line"/>
      <point x="1000" y="234" type="line"/>
      <point x="998" y="168"/>
      <point x="993" y="134" type="qcurve"/>
      <point x="978" y="94" type="line"/>
      <point x="962" y="64"/>
      <point x="942" y="36" type="qcurve"/>
      <point x="914" y="10"/>
      <point x="898" y="0" type="qcurve"/>
      <point x="889" y="-5"/>
      <point x="867" y="-10" type="qcurve"/>
      <point x="727" y="-1" type="line"/>
      <point x="617" y="23" type="line"/>
      <point x="588" y="33"/>
      <point x="464" y="82" type="qcurve"/>
      <point x="300" y="18" type="line"/>
      <point x="208" y="-8" type="line"/>
    </contour>
    <contour>
      <point x="527" y="257" type="qcurve"/>
      <point x="537" y="260"/>
      <point x="576" y="281" type="qcurve"/>
      <point x="617" y="313" type="line"/>
      <point x="632" y="328"/>
      <point x="638" y="337" type="qcurve"/>
      <point x="639" y="351" type="line"/>
      <point x="637" y="394" type="line"/>
      <point x="631" y="429"/>
      <point x="615" y="461" type="qcurve"/>
      <point x="601" y="478"/>
      <point x="585" y="491" type="qcurve"/>
      <point x="565" y="502"/>
      <point x="538" y="502" type="qcurve"/>
      <point x="513" y="496" type="line"/>
      <point x="483" y="481" type="line"/>
      <point x="450" y="454" type="line"/>
      <point x="416" y="414" type="line"/>
      <point x="410" y="402"/>
      <point x="410" y="393" type="qcurve"/>
      <point x="412" y="379"/>
      <point x="438" y="331" type="qcurve"/>
      <point x="474" y="279"/>
    </contour>
    <contour>
      <point x="884" y="154" type="line"/>
      <point x="918" y="155" type="line"/>
      <point x="916" y="166"/>
      <point x="857" y="283" type="qcurve"/>
      <point x="796" y="362"/>
      <point x="786" y="370" type="qcurve"/>
      <point x="778" y="380"/>
      <point x="722" y="429" type="qcurve"/>
      <point x="657" y="266" type="line"/>
      <point x="632" y="220" type="line"/>
      <point x="732" y="179" type="line"/>
      <point x="803" y="162" type="line"/>
    </contour>
  </outline>
</glyph>
<glyph name="smallhighsadlamalefmaksuracomb-arab" format="2">
  <advance width="0"/>
  <unicode hex="06D6"/>
  <anchor x="0" y="0" name="top-arab"/>
  <anchor x="0" y="0" name="top-arab"/>
  <outline>
    <contour>
      <point x="127" y="-10" type="qcurve"/>
      <point x="127" y="-10"/>
      <point x="125" y="-8" type="qcurve"/>
      <point x="125" y="-3"/>
      <point x="131" y="7" type="qcurve"/>
      <point x="126" y="8"/>
      <point x="120" y="14" type="qcurve"/>
      <point x="105" y="1"/>
      <point x="88" y="1" type="qcurve"/>
      <point x="68" y="1"/>
      <point x="55" y="21" type="qcurve"/>
      <point x="48" y="13"/>
      <point x="34" y="6"/>
      <point x="23" y="-2"/>
      <point x="14" y="-10"/>
      <point x="13" y="-19" type="qcurve"/>
      <point x="23" y="-32"/>
      <point x="84" y="-32" type="qcurve"/>
      <point x="204" y="-32" type="line"/>
      <point x="204" y="-39"/>
      <point x="190" y="-49" type="qcurve"/>
      <point x="151" y="-51"/>
      <point x="99" y="-54"/>
      <point x="84" y="-54" type="qcurve"/>
      <point x="68" y="-54"/>
      <point x="36" y="-50"/>
      <point x="11" y="-42"/>
      <point x="-2" y="-29"/>
      <point x="0" y="-19" type="qcurve"/>
      <point x="4" y="-3"/>
      <point x="20" y="13"/>
      <point x="37" y="22"/>
      <point x="51" y="30"/>
      <point x="53" y="39" type="qcurve"/>
      <point x="52" y="66"/>
      <point x="47" y="124"/>
      <point x="41" y="170"/>
      <point x="36" y="201"/>
      <point x="37" y="201" type="qcurve"/>
      <point x="37" y="211"/>
      <point x="48" y="222" type="qcurve"/>
      <point x="57" y="138" type="line"/>
      <point x="62" y="98"/>
      <point x="64" y="41"/>
      <point x="62" y="33" type="qcurve"/>
      <point x="71" y="22"/>
      <point x="89" y="22" type="qcurve"/>
      <point x="112" y="22"/>
      <point x="121" y="39" type="qcurve"/>
      <point x="124" y="46"/>
      <point x="126" y="46" type="qcurve"/>
      <point x="129" y="46"/>
      <point x="128" y="42" type="qcurve"/>
      <point x="128" y="40"/>
      <point x="128" y="35" type="qcurve"/>
      <point x="128" y="31"/>
      <point x="128" y="27" type="qcurve"/>
      <point x="136" y="22"/>
      <point x="142" y="22" type="qcurve"/>
      <point x="191" y="86"/>
      <point x="233" y="86" type="qcurve"/>
      <point x="270" y="86"/>
      <point x="270" y="53" type="qcurve"/>
      <point x="270" y="30"/>
      <point x="236" y="15" type="qcurve"/>
      <point x="203" y="0"/>
      <point x="174" y="0" type="qcurve"/>
      <point x="149" y="0"/>
      <point x="138" y="4" type="qcurve"/>
      <point x="133" y="-1"/>
    </contour>
    <contour>
      <point x="151" y="21" type="qcurve"/>
      <point x="250" y="19"/>
      <point x="250" y="47" type="qcurve"/>
      <point x="250" y="64"/>
      <point x="226" y="64" type="qcurve"/>
      <point x="194" y="64"/>
    </contour>
  </outline>
</glyph>
<glyph name="smallhighmeeminitialformcomb-arab" format="2">
  <advance width="0"/>
  <unicode hex="06D8"/>
  <anchor x="0" y="0" name="top-arab"/>
  <anchor x="0" y="0" name="top-arab"/>
  <outline>
    <contour>
      <point x="106" y="35" type="qcurve"/>
      <point x="106" y="6"/>
      <point x="88" y="7" type="qcurve"/>
      <point x="65" y="7"/>
      <point x="52" y="22" type="qcurve"/>
      <point x="36" y="0"/>
      <point x="13" y="0" type="qcurve"/>
      <point x="0" y="0" type="line"/>
      <point x="0" y="21" type="line"/>
      <point x="13" y="21" type="line"/>
      <point x="40" y="21"/>
      <point x="44" y="33" type="qcurve"/>
      <point x="46" y="38"/>
      <point x="51" y="53"/>
      <point x="55" y="64" type="qcurve"/>
      <point x="62" y="85"/>
      <point x="77" y="85" type="qcurve"/>
      <point x="88" y="85"/>
      <point x="106" y="51"/>
    </contour>
    <contour>
      <point x="92" y="39" type="qcurve"/>
      <point x="92" y="66"/>
      <point x="75" y="66" type="qcurve"/>
      <point x="64" y="66"/>
      <point x="60" y="40" type="qcurve"/>
      <point x="69" y="28"/>
      <point x="84" y="28" type="qcurve"/>
      <point x="92" y="28"/>
    </contour>
  </outline>
</glyph>
<glyph name="keheh-arab.init" format="2">
  <advance width="575"/>
  <unicode hex="FB90"/>
  <anchor x="325" y="1425" name="Anchor_4"/>
  <anchor x="100" y="-138" name="Anchor_5"/>
  <anchor x="138" y="1475" name="Anchor_7"/>
  <outline>
    <contour>
      <point x="12" y="0" type="line"/>
      <point x="0" y="0" type="line"/>
      <point x="0" y="171" type="line"/>
      <point x="49" y="174" type="line"/>
      <point x="118" y="191" type="line"/>
      <point x="159" y="210"/>
      <point x="182" y="226" type="qcurve"/>
      <point x="184" y="230"/>
      <point x="185" y="236" type="qcurve"/>
      <point x="182" y="295" type="line"/>
      <point x="155" y="404" type="line"/>
      <point x="116" y="502" type="line"/>
      <point x="111" y="509"/>
      <point x="71" y="593" type="qcurve"/>
      <point x="68" y="596"/>
      <point x="-54" y="827" type="qcurve"/>
      <point x="-95" y="922"/>
      <point x="-97" y="930" type="qcurve"/>
      <point x="-49" y="1038"/>
      <point x="1" y="1145" type="qcurve"/>
      <point x="300" y="1280"/>
      <point x="307" y="1285" type="qcurve"/>
      <point x="312" y="1286"/>
      <point x="316" y="1289" type="qcurve"/>
      <point x="419" y="1334"/>
      <point x="426" y="1339" type="qcurve"/>
      <point x="431" y="1340"/>
      <point x="435" y="1343" type="qcurve"/>
      <point x="861" y="1536"/>
      <point x="869" y="1541" type="qcurve"/>
      <point x="874" y="1542"/>
      <point x="877" y="1545" type="qcurve"/>
      <point x="989" y="1594"/>
      <point x="996" y="1599" type="qcurve"/>
      <point x="1001" y="1600"/>
      <point x="1005" y="1603" type="qcurve"/>
      <point x="1022" y="1610" type="line"/>
      <point x="1024" y="1610"/>
      <point x="1025" y="1608" type="qcurve"/>
      <point x="955" y="1458"/>
      <point x="949" y="1452" type="qcurve"/>
      <point x="897" y="1429"/>
      <point x="716" y="1345" type="qcurve"/>
      <point x="416" y="1207"/>
      <point x="407" y="1201" type="qcurve"/>
      <point x="402" y="1200"/>
      <point x="399" y="1197" type="qcurve"/>
      <point x="339" y="1171"/>
      <point x="331" y="1166" type="qcurve"/>
      <point x="13" y="1019"/>
      <point x="10" y="1016" type="qcurve"/>
      <point x="56" y="912"/>
      <point x="84" y="856" type="qcurve"/>
      <point x="123" y="780"/>
      <point x="226" y="551" type="qcurve"/>
      <point x="260" y="412" type="line"/>
      <point x="265" y="343" type="line"/>
      <point x="258" y="263" type="line"/>
      <point x="244" y="203" type="line"/>
      <point x="211" y="123" type="line"/>
      <point x="192" y="92" type="line"/>
      <point x="169" y="66" type="line"/>
      <point x="165" y="64"/>
      <point x="163" y="60" type="qcurve"/>
      <point x="132" y="36"/>
      <point x="110" y="26" type="qcurve"/>
      <point x="103" y="21"/>
      <point x="56" y="6" type="qcurve"/>
    </contour>
  </outline>
</glyph>
<glyph name="keheh-arab.medi" format="2">
  <advance width="744"/>
  <unicode hex="FB91"/>
  <anchor x="238" y="1687" name="Anchor_4"/>
  <anchor x="63" y="-188" name="Anchor_5"/>
  <anchor x="200" y="1737" name="Anchor_7"/>
  <outline>
    <contour>
      <point x="744" y="0" type="line"/>
      <point x="634" y="-4"/>
      <point x="517" y="81" type="qcurve"/>
      <point x="414" y="155"/>
      <point x="315" y="341" type="qcurve"/>
      <point x="282" y="234"/>
      <point x="229" y="143" type="qcurve"/>
      <point x="188" y="72"/>
      <point x="69" y="15" type="qcurve"/>
      <point x="35" y="-1"/>
      <point x="0" y="0" type="qcurve"/>
      <point x="0" y="171" type="line"/>
      <point x="56" y="175"/>
      <point x="87" y="181" type="qcurve"/>
      <point x="138" y="202" type="line"/>
      <point x="180" y="230" type="line"/>
      <point x="216" y="266" type="line"/>
      <point x="229" y="287" type="line"/>
      <point x="243" y="309"/>
      <point x="245" y="339" type="qcurve"/>
      <point x="220" y="457" type="line"/>
      <point x="189" y="535" type="line"/>
      <point x="180" y="554"/>
      <point x="-130" y="1096" type="qcurve"/>
      <point x="-159" y="1283"/>
      <point x="-7" y="1376" type="qcurve"/>
      <point x="235" y="1526" type="line"/>
      <point x="311" y="1568"/>
      <point x="1080" y="1966" type="qcurve"/>
      <point x="1080" y="1955"/>
      <point x="1076" y="1943" type="qcurve"/>
      <point x="1025" y="1818" type="line"/>
      <point x="1016" y="1808"/>
      <point x="1004" y="1801" type="qcurve"/>
      <point x="627" y="1606"/>
      <point x="583" y="1580" type="qcurve"/>
      <point x="-46" y="1205"/>
      <point x="-47" y="1201" type="qcurve"/>
      <point x="385" y="470" type="line"/>
      <point x="511" y="310" type="line"/>
      <point x="566" y="257" type="line"/>
      <point x="627" y="213" type="line"/>
      <point x="689" y="171"/>
      <point x="744" y="171" type="qcurve"/>
    </contour>
  </outline>
</glyph>
<glyph name="gaf-arab.fina" format="2">
  <advance width="1572"/>
  <unicode hex="FB93"/>
  <outline>
    <contour>
      <point x="1184" y="1636" type="line"/>
      <point x="1183" y="1637" type="line"/>
      <point x="1191" y="1653"/>
      <point x="1197" y="1669"/>
      <point x="1218" y="1710" type="qcurve"/>
      <point x="1243" y="1763"/>
      <point x="1250" y="1775" type="qcurve"/>
      <point x="1250" y="1778" type="line"/>
      <point x="1258" y="1792" type="line"/>
      <point x="1272" y="1800"/>
      <point x="1299" y="1811"/>
      <point x="1313" y="1820" type="qcurve"/>
      <point x="1315" y="1820" type="line"/>
      <point x="1315" y="1821" type="line"/>
      <point x="1374" y="1848" type="line"/>
      <point x="1380" y="1852"/>
      <point x="1396" y="1859" type="qcurve"/>
      <point x="1428" y="1873"/>
      <point x="1444" y="1882" type="qcurve"/>
      <point x="1446" y="1882" type="line"/>
      <point x="1446" y="1883" type="line"/>
      <point x="1469" y="1894"/>
      <point x="1481" y="1901"/>
      <point x="1489" y="1903" type="qcurve"/>
      <point x="1512" y="1916" type="line"/>
      <point x="1523" y="1919"/>
      <point x="1530" y="1924" type="qcurve"/>
      <point x="1532" y="1924" type="line"/>
      <point x="1532" y="1925" type="line"/>
      <point x="1539" y="1927"/>
      <point x="1547" y="1932" type="qcurve"/>
      <point x="1566" y="1940"/>
      <point x="1574" y="1945" type="qcurve"/>
      <point x="1576" y="1945" type="line"/>
      <point x="1576" y="1946" type="line"/>
      <point x="1584" y="1950"/>
      <point x="1596" y="1955"/>
      <point x="1611" y="1963"/>
      <point x="1619" y="1967" type="qcurve"/>
      <point x="1639" y="1975"/>
      <point x="1643" y="1979" type="qcurve"/>
      <point x="1652" y="1980"/>
      <point x="1661" y="1987" type="qcurve"/>
      <point x="1663" y="1987" type="line"/>
      <point x="1663" y="1988" type="line"/>
      <point x="1670" y="1990"/>
      <point x="1692" y="2002" type="qcurve"/>
      <point x="1747" y="2030"/>
      <point x="1778" y="2043" type="qcurve"/>
      <point x="1783" y="2044"/>
      <point x="1808" y="2058" type="qcurve"/>
      <point x="1825" y="2065"/>
      <point x="1862" y="2083" type="qcurve"/>
      <point x="1914" y="2106"/>
      <point x="1936" y="2119" type="qcurve"/>
      <point x="1938" y="2119" type="line"/>
      <point x="1938" y="2120" type="line"/>
      <point x="1961" y="2131"/>
      <point x="1973" y="2138"/>
      <point x="1981" y="2140" type="qcurve"/>
      <point x="2004" y="2153" type="line"/>
      <point x="2015" y="2156"/>
      <point x="2022" y="2161" type="qcurve"/>
      <point x="2024" y="2161" type="line"/>
      <point x="2024" y="2162" type="line"/>
      <point x="2030" y="2162" type="line"/>
      <point x="2015" y="2128" type="line"/>
      <point x="2002" y="2093"/>
      <point x="1992" y="2076" type="qcurve"/>
      <point x="1983" y="2053"/>
      <point x="1973" y="2031" type="qcurve"/>
      <point x="1970" y="2024"/>
      <point x="1938" y="2009" type="qcurve"/>
      <point x="1891" y="1987"/>
      <point x="1879" y="1979" type="qcurve"/>
      <point x="1876" y="1979" type="line"/>
      <point x="1870" y="1975"/>
      <point x="1818" y="1950" type="qcurve"/>
      <point x="1770" y="1926"/>
      <point x="1755" y="1917"/>
      <point x="1746" y="1915" type="qcurve"/>
      <point x="1689" y="1885"/>
      <point x="1646" y="1865" type="qcurve"/>
      <point x="1631" y="1858"/>
      <point x="1603" y="1843" type="qcurve"/>
      <point x="1427" y="1758"/>
      <point x="1423" y="1753" type="qcurve"/>
      <point x="1392" y="1739"/>
      <point x="1362" y="1723" type="qcurve"/>
      <point x="1359" y="1723" type="line"/>
      <point x="1239" y="1663" type="line"/>
      <point x="1200" y="1645"/>
      <point x="1190" y="1638" type="qcurve"/>
      <point x="1188" y="1638" type="line"/>
      <point x="1188" y="1637" type="line"/>
    </contour>
    <contour>
      <point x="551" y="-63" type="qcurve"/>
      <point x="412" y="-63" type="line"/>
      <point x="410" y="-62" type="line"/>
      <point x="394" y="-62" type="line"/>
      <point x="392" y="-61" type="line"/>
      <point x="336" y="-58"/>
      <point x="326" y="-54" type="qcurve"/>
      <point x="319" y="-54"/>
      <point x="302" y="-50"/>
      <point x="293" y="-49" type="qcurve"/>
      <point x="288" y="-49"/>
      <point x="279" y="-46"/>
      <point x="273" y="-46" type="qcurve"/>
      <point x="267" y="-43"/>
      <point x="260" y="-43" type="qcurve"/>
      <point x="256" y="-41"/>
      <point x="194" y="-23"/>
      <point x="180" y="-11" type="qcurve"/>
      <point x="167" y="-6"/>
      <point x="155" y="6" type="qcurve"/>
      <point x="150" y="10"/>
      <point x="143" y="14" type="qcurve"/>
      <point x="137" y="22"/>
      <point x="113" y="44"/>
      <point x="111" y="47" type="qcurve"/>
      <point x="105" y="51"/>
      <point x="102" y="58" type="qcurve"/>
      <point x="92" y="68"/>
      <point x="80" y="88" type="qcurve"/>
      <point x="79" y="91"/>
      <point x="61" y="121"/>
      <point x="49" y="164" type="qcurve"/>
      <point x="45" y="186"/>
      <point x="42" y="194"/>
      <point x="42" y="200" type="qcurve"/>
      <point x="41" y="200" type="line"/>
      <point x="40" y="207" type="line"/>
      <point x="40" y="215"/>
      <point x="38" y="226" type="qcurve"/>
      <point x="38" y="308" type="line"/>
      <point x="39" y="310" type="line"/>
      <point x="40" y="327" type="line"/>
      <point x="41" y="329" type="line"/>
      <point x="42" y="343" type="line"/>
      <point x="43" y="345" type="line"/>
      <point x="43" y="351"/>
      <point x="45" y="357" type="qcurve"/>
      <point x="48" y="367"/>
      <point x="49" y="383" type="qcurve"/>
      <point x="49" y="390"/>
      <point x="53" y="402" type="qcurve"/>
      <point x="67" y="468"/>
      <point x="82" y="500" type="qcurve"/>
      <point x="85" y="506"/>
      <point x="97" y="536"/>
      <point x="105" y="549"/>
      <point x="108" y="558" type="qcurve"/>
      <point x="113" y="563"/>
      <point x="116" y="571" type="qcurve"/>
      <point x="123" y="580"/>
      <point x="131" y="584" type="qcurve"/>
      <point x="133" y="581" type="line"/>
      <point x="133" y="567"/>
      <point x="128" y="548"/>
      <point x="125" y="530"/>
      <point x="119" y="513"/>
      <point x="108" y="475"/>
      <point x="102" y="455" type="qcurve"/>
      <point x="99" y="427"/>
      <point x="99" y="412" type="qcurve"/>
      <point x="99" y="323"/>
      <point x="127" y="279" type="qcurve"/>
      <point x="150" y="230"/>
      <point x="201" y="193" type="qcurve"/>
      <point x="211" y="185"/>
      <point x="218" y="183" type="qcurve"/>
      <point x="218" y="180"/>
      <point x="232" y="174" type="qcurve"/>
      <point x="233" y="172" type="line"/>
      <point x="246" y="167"/>
      <point x="262" y="158" type="qcurve"/>
      <point x="276" y="153" type="line"/>
      <point x="304" y="137"/>
      <point x="374" y="124" type="qcurve"/>
      <point x="405" y="120"/>
      <point x="410" y="117" type="qcurve"/>
      <point x="418" y="117"/>
      <point x="429" y="115" type="qcurve"/>
      <point x="460" y="111"/>
      <point x="482" y="111" type="qcurve"/>
      <point x="483" y="110" type="line"/>
      <point x="501" y="110" type="line"/>
      <point x="502" y="109" type="line"/>
      <point x="561" y="109" type="line"/>
      <point x="561" y="110" type="line"/>
      <point x="588" y="110" type="line"/>
      <point x="588" y="111" type="line"/>
      <point x="603" y="111" type="line"/>
      <point x="605" y="112" type="line"/>
      <point x="616" y="112" type="line"/>
      <point x="617" y="113" type="line"/>
      <point x="628" y="113" type="line"/>
      <point x="630" y="114" type="line"/>
      <point x="809" y="133"/>
      <point x="912" y="170" type="qcurve"/>
      <point x="1061" y="231" type="line"/>
      <point x="1073" y="239"/>
      <point x="1089" y="246" type="qcurve"/>
      <point x="1155" y="287"/>
      <point x="1164" y="298" type="qcurve"/>
      <point x="1170" y="316"/>
      <point x="1170" y="323" type="qcurve"/>
      <point x="1180" y="343"/>
      <point x="1180" y="488" type="qcurve"/>
      <point x="1110" y="1216" type="line"/>
      <point x="1113" y="1221" type="line"/>
      <point x="1115" y="1229"/>
      <point x="1143" y="1292" type="qcurve"/>
      <point x="1148" y="1300"/>
      <point x="1152" y="1309" type="qcurve"/>
      <point x="1158" y="1323"/>
      <point x="1205" y="1403" type="qcurve"/>
      <point x="1211" y="1411"/>
      <point x="1220" y="1428" type="qcurve"/>
      <point x="1222" y="1428" type="line"/>
      <point x="1233" y="1450"/>
      <point x="1247" y="1464" type="qcurve"/>
      <point x="1248" y="1467" type="line"/>
      <point x="1253" y="1472"/>
      <point x="1265" y="1478"/>
      <point x="1278" y="1487"/>
      <point x="1288" y="1490" type="qcurve"/>
      <point x="1310" y="1503"/>
      <point x="1313" y="1506" type="qcurve"/>
      <point x="1330" y="1510"/>
      <point x="1380" y="1540" type="qcurve"/>
      <point x="1415" y="1557"/>
      <point x="1423" y="1563" type="qcurve"/>
      <point x="1425" y="1563" type="line"/>
      <point x="1425" y="1564" type="line"/>
      <point x="1453" y="1576"/>
      <point x="1479" y="1591" type="qcurve"/>
      <point x="1481" y="1591" type="line"/>
      <point x="1481" y="1592" type="line"/>
      <point x="1500" y="1601"/>
      <point x="1504" y="1604" type="qcurve"/>
      <point x="1509" y="1605"/>
      <point x="1552" y="1627" type="qcurve"/>
      <point x="1603" y="1650"/>
      <point x="1623" y="1661" type="qcurve"/>
      <point x="1634" y="1667"/>
      <point x="1652" y="1674" type="qcurve"/>
      <point x="1667" y="1684"/>
      <point x="1681" y="1687" type="qcurve"/>
      <point x="1693" y="1694" type="line"/>
      <point x="1695" y="1694" type="line"/>
      <point x="1695" y="1695" type="line"/>
      <point x="1702" y="1697"/>
      <point x="1724" y="1708" type="qcurve"/>
      <point x="1738" y="1713"/>
      <point x="1753" y="1722" type="qcurve"/>
      <point x="1769" y="1728"/>
      <point x="1780" y="1734" type="qcurve"/>
      <point x="1782" y="1734" type="line"/>
      <point x="1782" y="1735" type="line"/>
      <point x="1788" y="1736"/>
      <point x="1794" y="1741" type="qcurve"/>
      <point x="1797" y="1741" type="line"/>
      <point x="1832" y="1757"/>
      <point x="1834" y="1759" type="qcurve"/>
      <point x="1871" y="1773"/>
      <point x="1883" y="1781" type="qcurve"/>
      <point x="1907" y="1788"/>
      <point x="1925" y="1800" type="qcurve"/>
      <point x="1927" y="1800" type="line"/>
      <point x="1927" y="1801" type="line"/>
      <point x="1946" y="1806"/>
      <point x="1955" y="1813" type="qcurve"/>
      <point x="1958" y="1813" type="line"/>
      <point x="1968" y="1819"/>
      <point x="1986" y="1826" type="qcurve"/>
      <point x="2008" y="1835"/>
      <point x="2013" y="1839" type="qcurve"/>
      <point x="2016" y="1839" type="line"/>
      <point x="2022" y="1842"/>
      <point x="2035" y="1846"/>
      <point x="2038" y="1850" type="qcurve"/>
      <point x="2060" y="1858"/>
      <point x="2117" y="1885" type="qcurve"/>
      <point x="2148" y="1897"/>
      <point x="2158" y="1903" type="qcurve"/>
      <point x="2161" y="1903" type="line"/>
      <point x="2183" y="1913"/>
      <point x="2184" y="1915" type="qcurve"/>
      <point x="2211" y="1923"/>
      <point x="2234" y="1937" type="qcurve"/>
      <point x="2235" y="1933" type="line"/>
      <point x="2232" y="1929"/>
      <point x="2230" y="1922" type="qcurve"/>
      <point x="2228" y="1921" type="line"/>
      <point x="2226" y="1916"/>
      <point x="2214" y="1896" type="qcurve"/>
      <point x="2209" y="1884" type="line"/>
      <point x="2207" y="1883" type="line"/>
      <point x="2188" y="1846"/>
      <point x="2183" y="1840" type="qcurve"/>
      <point x="2169" y="1812" type="line"/>
      <point x="2165" y="1807"/>
      <point x="2154" y="1785" type="qcurve"/>
      <point x="2148" y="1780"/>
      <point x="2139" y="1778" type="qcurve"/>
      <point x="2123" y="1772"/>
      <point x="2111" y="1764" type="qcurve"/>
      <point x="2096" y="1760"/>
      <point x="2082" y="1751" type="qcurve"/>
      <point x="2076" y="1750"/>
      <point x="2070" y="1745" type="qcurve"/>
      <point x="2067" y="1745" type="line"/>
      <point x="2061" y="1741"/>
      <point x="2053" y="1739" type="qcurve"/>
      <point x="2012" y="1719" type="line"/>
      <point x="2009" y="1719" type="line"/>
      <point x="1996" y="1710"/>
      <point x="1966" y="1699" type="qcurve"/>
      <point x="1954" y="1692" type="line"/>
      <point x="1952" y="1692" type="line"/>
      <point x="1952" y="1691" type="line"/>
      <point x="1938" y="1687"/>
      <point x="1880" y="1658" type="qcurve"/>
      <point x="1861" y="1652"/>
      <point x="1818" y="1628"/>
      <point x="1807" y="1625" type="qcurve"/>
      <point x="1802" y="1623"/>
      <point x="1796" y="1618" type="qcurve"/>
      <point x="1794" y="1618" type="line"/>
      <point x="1794" y="1617" type="line"/>
      <point x="1775" y="1612"/>
      <point x="1700" y="1573" type="qcurve"/>
      <point x="1660" y="1554"/>
      <point x="1645" y="1545"/>
      <point x="1636" y="1543" type="qcurve"/>
      <point x="1631" y="1541"/>
      <point x="1625" y="1536" type="qcurve"/>
      <point x="1623" y="1536" type="line"/>
      <point x="1623" y="1535" type="line"/>
      <point x="1619" y="1534"/>
      <point x="1595" y="1523" type="qcurve"/>
      <point x="1587" y="1518"/>
      <point x="1574" y="1513"/>
      <point x="1567" y="1508" type="qcurve"/>
      <point x="1566" y="1508"/>
      <point x="1566" y="1507" type="qcurve"/>
      <point x="1543" y="1501"/>
      <point x="1528" y="1489" type="qcurve"/>
      <point x="1498" y="1477"/>
      <point x="1483" y="1467" type="qcurve"/>
      <point x="1480" y="1467" type="line"/>
      <point x="1456" y="1455"/>
      <point x="1423" y="1441"/>
      <point x="1411" y="1432" type="qcurve"/>
      <point x="1409" y="1432" type="line"/>
      <point x="1409" y="1431" type="line"/>
      <point x="1403" y="1429"/>
      <point x="1390" y="1422"/>
      <point x="1383" y="1419" type="qcurve"/>
      <point x="1357" y="1408"/>
      <point x="1324" y="1389" type="qcurve"/>
      <point x="1308" y="1383"/>
      <point x="1302" y="1378" type="qcurve"/>
      <point x="1274" y="1368"/>
      <point x="1256" y="1355" type="qcurve"/>
      <point x="1254" y="1355" type="line"/>
      <point x="1254" y="1354" type="line"/>
      <point x="1235" y="1346"/>
      <point x="1219" y="1337" type="qcurve"/>
      <point x="1219" y="1329" type="line"/>
      <point x="1230" y="1220"/>
      <point x="1231" y="1214"/>
      <point x="1231" y="1194" type="qcurve"/>
      <point x="1232" y="1194" type="line"/>
      <point x="1233" y="1174" type="line"/>
      <point x="1234" y="1174" type="line"/>
      <point x="1235" y="1153" type="line"/>
      <point x="1236" y="1153" type="line"/>
      <point x="1237" y="1133"/>
      <point x="1247" y="1031" type="qcurve"/>
      <point x="1248" y="1030" type="line"/>
      <point x="1248" y="1022" type="line"/>
      <point x="1249" y="1021" type="line"/>
      <point x="1251" y="981" type="line"/>
      <point x="1252" y="979" type="line"/>
      <point x="1253" y="959" type="line"/>
      <point x="1256" y="948"/>
      <point x="1264" y="847" type="qcurve"/>
      <point x="1265" y="847" type="line"/>
      <point x="1266" y="827" type="line"/>
      <point x="1267" y="825" type="line"/>
      <point x="1268" y="806" type="line"/>
      <point x="1269" y="806" type="line"/>
      <point x="1271" y="786"/>
      <point x="1271" y="766" type="qcurve"/>
      <point x="1280" y="682"/>
      <point x="1280" y="673" type="qcurve"/>
      <point x="1281" y="673" type="line"/>
      <point x="1282" y="653" type="line"/>
      <point x="1283" y="651" type="line"/>
      <point x="1284" y="632" type="line"/>
      <point x="1285" y="632" type="line"/>
      <point x="1285" y="625"/>
      <point x="1287" y="615" type="qcurve"/>
      <point x="1291" y="575"/>
      <point x="1291" y="554" type="qcurve"/>
      <point x="1294" y="528"/>
      <point x="1294" y="521" type="qcurve"/>
      <point x="1296" y="518"/>
      <point x="1296" y="499" type="qcurve"/>
      <point x="1297" y="499" type="line"/>
      <point x="1297" y="492" type="line"/>
      <point x="1298" y="491" type="line"/>
      <point x="1298" y="484" type="line"/>
      <point x="1299" y="482" type="line"/>
      <point x="1299" y="470"/>
      <point x="1310" y="417" type="qcurve"/>
      <point x="1312" y="389"/>
      <point x="1329" y="349" type="qcurve"/>
      <point x="1337" y="322"/>
      <point x="1344" y="314" type="qcurve"/>
      <point x="1344" y="312" type="line"/>
      <point x="1345" y="312" type="line"/>
      <point x="1348" y="302"/>
      <point x="1369" y="272" type="qcurve"/>
      <point x="1372" y="268"/>
      <point x="1380" y="256"/>
      <point x="1416" y="221"/>
      <point x="1440" y="209"/>
      <point x="1447" y="204" type="qcurve"/>
      <point x="1459" y="200"/>
      <point x="1484" y="188"/>
      <point x="1511" y="179"/>
      <point x="1555" y="171"/>
      <point x="1572" y="171" type="qcurve"/>
      <point x="1572" y="0" type="line"/>
      <point x="1388" y="-7"/>
      <point x="1293" y="128" type="qcurve"/>
      <point x="1292" y="131"/>
      <point x="1275" y="157" type="qcurve"/>
      <point x="1251" y="201"/>
      <point x="1248" y="214" type="qcurve"/>
      <point x="1237" y="233"/>
      <point x="1226" y="276" type="qcurve"/>
      <point x="1200" y="224"/>
      <point x="1194" y="215"/>
      <point x="1188" y="201"/>
      <point x="1174" y="182"/>
      <point x="1159" y="156" type="qcurve"/>
      <point x="1157" y="155" type="line"/>
      <point x="1122" y="104"/>
      <point x="1100" y="90" type="qcurve"/>
      <point x="1092" y="85"/>
      <point x="1088" y="80" type="qcurve"/>
      <point x="1085" y="79" type="line"/>
      <point x="1073" y="70"/>
      <point x="1059" y="63" type="qcurve"/>
      <point x="1015" y="36"/>
      <point x="991" y="29" type="qcurve"/>
      <point x="983" y="26"/>
      <point x="977" y="22" type="qcurve"/>
      <point x="975" y="22" type="line"/>
      <point x="975" y="21" type="line"/>
      <point x="912" y="-1" type="line"/>
      <point x="895" y="-8"/>
      <point x="854" y="-17" type="qcurve"/>
      <point x="785" y="-36"/>
      <point x="760" y="-39" type="qcurve"/>
      <point x="724" y="-42"/>
      <point x="707" y="-48" type="qcurve"/>
      <point x="659" y="-54"/>
      <point x="649" y="-54" type="qcurve"/>
      <point x="649" y="-55" type="line"/>
      <point x="632" y="-56" type="line"/>
      <point x="632" y="-57" type="line"/>
      <point x="624" y="-57"/>
      <point x="591" y="-60" type="qcurve"/>
      <point x="583" y="-62"/>
      <point x="560" y="-62" type="qcurve"/>
      <point x="554" y="-62"/>
    </contour>
  </outline>
</glyph>
<glyph name="hehgoal-arab.medi" format="2">
  <advance width="800"/>
  <unicode hex="FBA9"/>
  <anchor x="438" y="675" name="Anchor_4"/>
  <anchor x="400" y="-638" name="Anchor_5"/>
  <anchor x="450" y="637" name="Anchor_7"/>
  <outline>
    <contour>
      <point x="349" y="404"/>
      <point x="374" y="419" type="qcurve"/>
      <point x="396" y="421"/>
      <point x="384" y="368" type="qcurve"/>
      <point x="233" y="96"/>
      <point x="372" y="-162" type="qcurve"/>
      <point x="376" y="-125"/>
      <point x="392" y="-89" type="qcurve"/>
      <point x="500" y="153"/>
      <point x="800" y="171" type="qcurve"/>
      <point x="800" y="0" type="line"/>
      <point x="792" y="0"/>
      <point x="649" y="-9" type="qcurve"/>
      <point x="541" y="-14"/>
      <point x="467" y="-87" type="qcurve"/>
      <point x="460" y="-94"/>
      <point x="450" y="-108"/>
      <point x="448" y="-113" type="qcurve"/>
      <point x="396" y="-231"/>
      <point x="584" y="-333" type="qcurve"/>
      <point x="526" y="-498" type="line"/>
      <point x="359" y="-448"/>
      <point x="251" y="-253" type="qcurve"/>
      <point x="239" y="-231"/>
      <point x="214" y="-166"/>
      <point x="208" y="-123" type="qcurve"/>
      <point x="188" y="14"/>
      <point x="242" y="161" type="qcurve"/>
      <point x="151" y="3"/>
      <point x="0" y="0" type="qcurve"/>
      <point x="0" y="171" type="line"/>
      <point x="177" y="164"/>
      <point x="291" y="324" type="qcurve"/>
    </contour>
  </outline>
</glyph>
<glyph name="yehbarree-arab.fina" format="2">
  <advance width="565"/>
  <unicode hex="FBAF"/>
  <anchor x="300" y="487" name="Anchor_4"/>
  <anchor x="400" y="-500" name="Anchor_5"/>
  <anchor x="375" y="462" name="Anchor_7"/>
  <outline>
    <contour>
      <point x="447" y="-439" type="qcurve"/>
      <point x="300" y="-439" type="line"/>
      <point x="205" y="-434" type="line"/>
      <point x="196" y="-431"/>
      <point x="179" y="-431" type="qcurve"/>
      <point x="175" y="-429"/>
      <point x="164" y="-429" type="qcurve"/>
      <point x="154" y="-426"/>
      <point x="140" y="-425" type="qcurve"/>
      <point x="109" y="-416"/>
      <point x="101" y="-416" type="qcurve"/>
      <point x="89" y="-411"/>
      <point x="66" y="-405" type="qcurve"/>
      <point x="63" y="-403"/>
      <point x="51" y="-389" type="qcurve"/>
      <point x="34" y="-347"/>
      <point x="34" y="-281" type="qcurve"/>
      <point x="35" y="-169"/>
      <point x="129" y="-30"/>
      <point x="185" y="15" type="qcurve"/>
      <point x="403" y="188"/>
      <point x="565" y="170" type="qcurve"/>
      <point x="565" y="0" type="line"/>
      <point x="384" y="-1"/>
      <point x="265" y="-62" type="qcurve"/>
      <point x="128" y="-130"/>
      <point x="103" y="-217" type="qcurve"/>
      <point x="102" y="-236" type="line"/>
      <point x="102" y="-274"/>
      <point x="187" y="-277" type="qcurve"/>
      <point x="194" y="-277"/>
      <point x="201" y="-279" type="qcurve"/>
      <point x="290" y="-289"/>
      <point x="462" y="-289" type="qcurve"/>
      <point x="469" y="-288" type="line"/>
      <point x="522" y="-288"/>
      <point x="799" y="-277" type="qcurve"/>
      <point x="847" y="-275"/>
      <point x="865" y="-273" type="qcurve"/>
      <point x="1029" y="-267" type="line"/>
      <point x="1154" y="-267"/>
      <point x="1213" y="-271" type="qcurve"/>
      <point x="1220" y="-273"/>
      <point x="1247" y="-273"/>
      <point x="1263" y="-276" type="qcurve"/>
      <point x="1271" y="-277"/>
      <point x="1285" y="-277"/>
      <point x="1299" y="-280"/>
      <point x="1305" y="-280" type="qcurve"/>
      <point x="1305" y="-283" type="line"/>
      <point x="1301" y="-287"/>
      <point x="1269" y="-337" type="qcurve"/>
      <point x="1223" y="-403"/>
      <point x="1216" y="-418" type="qcurve"/>
      <point x="1204" y="-417"/>
      <point x="1120" y="-416" type="qcurve"/>
      <point x="1051" y="-416"/>
      <point x="968" y="-419" type="qcurve"/>
      <point x="956" y="-420"/>
      <point x="932" y="-420" type="qcurve"/>
      <point x="930" y="-421"/>
      <point x="915" y="-421" type="qcurve"/>
      <point x="855" y="-421"/>
      <point x="576" y="-434" type="qcurve"/>
      <point x="454" y="-438"/>
    </contour>
  </outline>
</glyph>
<glyph name="uighurkazakhkirghizalefmaksura-arab.medi" format="2">
  <advance width="418"/>
  <unicode hex="FBE9"/>
  <anchor x="110" y="550" name="Anchor_4"/>
  <anchor x="138" y="-313" name="Anchor_5"/>
  <anchor x="25" y="487" name="Anchor_7"/>
  <outline>
    <contour>
      <point x="418" y="0" type="line"/>
      <point x="364" y="0" type="line"/>
      <point x="232" y="0"/>
      <point x="200" y="107" type="qcurve"/>
      <point x="144" y="-2"/>
      <point x="0" y="0" type="qcurve"/>
      <point x="0" y="171" type="line"/>
      <point x="167" y="170"/>
      <point x="224" y="304" type="qcurve"/>
      <point x="236" y="321"/>
      <point x="241" y="324" type="qcurve"/>
      <point x="250" y="324"/>
      <point x="253" y="313" type="qcurve"/>
      <point x="258" y="172"/>
      <point x="408" y="171" type="qcurve"/>
      <point x="418" y="171" type="line"/>
    </contour>
  </outline>
</glyph>
<glyph name="kafalef-arab.isol" format="2">
  <advance width="869"/>
  <unicode hex="FC37"/>
  <anchor x="588" y="1312" name="Anchor_4_ligComponent_0"/>
  <anchor x="138" y="1587" name="Anchor_4_ligComponent_1"/>
  <anchor x="613" y="-13" name="Anchor_5_ligComponent_0"/>
  <anchor x="188" y="-88" name="Anchor_5_ligComponent_1"/>
  <anchor x="0" y="0" name="Anchor_7_ligComponent_0"/>
  <anchor x="0" y="0" name="Anchor_7_ligComponent_1"/>
  <outline>
    <contour>
      <point x="161" y="1528" type="line"/>
      <point x="208" y="971" type="line"/>
      <point x="207" y="881" type="line"/>
      <point x="208" y="860" type="line"/>
      <point x="258" y="963" type="line"/>
      <point x="262" y="972"/>
      <point x="269" y="980" type="qcurve"/>
      <point x="1082" y="1407" type="line"/>
      <point x="1099" y="1418" type="line"/>
      <point x="1108" y="1423"/>
      <point x="1118" y="1429" type="qcurve"/>
      <point x="1128" y="1433"/>
      <point x="1137" y="1441" type="qcurve"/>
      <point x="1147" y="1445"/>
      <point x="1156" y="1452" type="qcurve"/>
      <point x="1232" y="1496" type="line"/>
      <point x="1229" y="1481" type="line"/>
      <point x="1162" y="1334" type="line"/>
      <point x="1151" y="1315" type="line"/>
      <point x="1093" y="1281" type="line"/>
      <point x="1084" y="1276"/>
      <point x="1076" y="1270" type="qcurve"/>
      <point x="979" y="1216" type="line"/>
      <point x="970" y="1211"/>
      <point x="960" y="1205" type="qcurve"/>
      <point x="243" y="836" type="line"/>
      <point x="235" y="832"/>
      <point x="229" y="824" type="qcurve"/>
      <point x="534" y="678" type="line"/>
      <point x="591" y="643" type="line"/>
      <point x="612" y="634" type="line"/>
      <point x="680" y="582" type="line"/>
      <point x="707" y="548" type="line"/>
      <point x="713" y="540"/>
      <point x="719" y="531" type="qcurve"/>
      <point x="730" y="512" type="line"/>
      <point x="747" y="468" type="line"/>
      <point x="751" y="442" type="line"/>
      <point x="745" y="386" type="line"/>
      <point x="732" y="339" type="line"/>
      <point x="684" y="236" type="line"/>
      <point x="623" y="147" type="line"/>
      <point x="608" y="131" type="line"/>
      <point x="602" y="123"/>
      <point x="593" y="116" type="qcurve"/>
      <point x="580" y="99" type="line"/>
      <point x="475" y="23" type="line"/>
      <point x="408" y="-2" type="line"/>
      <point x="385" y="-8" type="line"/>
      <point x="326" y="-10" type="line"/>
      <point x="300" y="-4" type="line"/>
      <point x="258" y="13" type="line"/>
      <point x="241" y="27" type="line"/>
      <point x="234" y="35"/>
      <point x="226" y="42" type="qcurve"/>
      <point x="201" y="78" type="line"/>
      <point x="176" y="143" type="line"/>
      <point x="170" y="167" type="line"/>
      <point x="148" y="497" type="line"/>
      <point x="146" y="504" type="line"/>
      <point x="77" y="1391" type="line"/>
    </contour>
    <contour>
      <point x="209" y="662" type="line"/>
      <point x="223" y="348" type="line"/>
      <point x="230" y="295" type="line"/>
      <point x="244" y="249" type="line"/>
      <point x="248" y="240"/>
      <point x="253" y="230" type="qcurve"/>
      <point x="263" y="209" type="line"/>
      <point x="276" y="192" type="line"/>
      <point x="291" y="179" type="line"/>
      <point x="310" y="167" type="line"/>
      <point x="333" y="162" type="line"/>
      <point x="364" y="162" type="line"/>
      <point x="413" y="171" type="line"/>
      <point x="436" y="179" type="line"/>
      <point x="514" y="219" type="line"/>
      <point x="596" y="286" type="line"/>
      <point x="624" y="316" type="line"/>
      <point x="632" y="323"/>
      <point x="640" y="331" type="qcurve"/>
      <point x="655" y="346" type="line"/>
      <point x="659" y="352" type="line"/>
      <point x="653" y="364" type="line"/>
      <point x="615" y="417" type="line"/>
      <point x="571" y="461" type="line"/>
      <point x="483" y="522" type="line"/>
      <point x="463" y="531" type="line"/>
      <point x="445" y="542" type="line"/>
    </contour>
  </outline>
</glyph>
<glyph name="kaflam-arab.fina" format="2">
  <advance width="1922"/>
  <unicode hex="FC81"/>
  <anchor x="1376" y="1375" name="Anchor_4_ligComponent_0"/>
  <anchor x="463" y="950" name="Anchor_4_ligComponent_1"/>
  <anchor x="1325" y="-138" name="Anchor_5_ligComponent_0"/>
  <anchor x="475" y="-613" name="Anchor_5_ligComponent_1"/>
  <anchor x="0" y="0" name="Anchor_7_ligComponent_0"/>
  <anchor x="0" y="0" name="Anchor_7_ligComponent_1"/>
  <outline>
    <contour>
      <point x="529" y="-460" type="line"/>
      <point x="409" y="-458" type="line"/>
      <point x="325" y="-439" type="line"/>
      <point x="270" y="-418" type="line"/>
      <point x="209" y="-378" type="line"/>
      <point x="163" y="-336"/>
      <point x="158" y="-328" type="qcurve"/>
      <point x="145" y="-317" type="line"/>
      <point x="95" y="-239" type="line"/>
      <point x="73" y="-186" type="line"/>
      <point x="54" y="-104" type="line"/>
      <point x="50" y="19" type="line"/>
      <point x="69" y="152" type="line"/>
      <point x="93" y="228" type="line"/>
      <point x="120" y="278" type="line"/>
      <point x="126" y="285"/>
      <point x="133" y="287" type="qcurve"/>
      <point x="137" y="266" type="line"/>
      <point x="135" y="244" type="line"/>
      <point x="101" y="124" type="line"/>
      <point x="97" y="53" type="line"/>
      <point x="105" y="-14" type="line"/>
      <point x="122" y="-71" type="line"/>
      <point x="148" y="-123" type="line"/>
      <point x="160" y="-136" type="line"/>
      <point x="169" y="-151"/>
      <point x="206" y="-191" type="qcurve"/>
      <point x="247" y="-226" type="line"/>
      <point x="312" y="-262" type="line"/>
      <point x="388" y="-286" type="line"/>
      <point x="478" y="-298" type="line"/>
      <point x="550" y="-294" type="line"/>
      <point x="593" y="-286"/>
      <point x="653" y="-269" type="qcurve"/>
      <point x="754" y="-218" type="line"/>
      <point x="809" y="-174" type="line"/>
      <point x="827" y="-154"/>
      <point x="847" y="-136" type="qcurve"/>
      <point x="921" y="-33"/>
      <point x="929" y="-16" type="qcurve"/>
      <point x="845" y="1342"/>
      <point x="843" y="1355" type="qcurve"/>
      <point x="849" y="1359"/>
      <point x="925" y="1462" type="qcurve"/>
      <point x="929" y="1448" type="line"/>
      <point x="965" y="851"/>
      <point x="969" y="832" type="qcurve"/>
      <point x="990" y="938" type="line"/>
      <point x="997" y="965"/>
      <point x="1005" y="973" type="qcurve"/>
      <point x="1201" y="1114"/>
      <point x="1241" y="1144" type="qcurve"/>
      <point x="1537" y="1341"/>
      <point x="1553" y="1350"/>
      <point x="1559" y="1355" type="qcurve"/>
      <point x="1745" y="1471"/>
      <point x="1761" y="1483" type="qcurve"/>
      <point x="1778" y="1490"/>
      <point x="1884" y="1561" type="qcurve"/>
      <point x="1892" y="1564"/>
      <point x="1900" y="1570" type="qcurve"/>
      <point x="1898" y="1553" type="line"/>
      <point x="1848" y="1426" type="line"/>
      <point x="1846" y="1417"/>
      <point x="1841" y="1407" type="qcurve"/>
      <point x="1832" y="1402"/>
      <point x="1817" y="1392"/>
      <point x="1808" y="1388" type="qcurve"/>
      <point x="1795" y="1376"/>
      <point x="1549" y="1216" type="qcurve"/>
      <point x="1536" y="1205"/>
      <point x="1399" y="1113" type="qcurve"/>
      <point x="1386" y="1102"/>
      <point x="1310" y="1053" type="qcurve"/>
      <point x="1291" y="1034"/>
      <point x="1100" y="906" type="qcurve"/>
      <point x="1087" y="895"/>
      <point x="1049" y="868" type="qcurve"/>
      <point x="1186" y="781"/>
      <point x="1195" y="777" type="qcurve"/>
      <point x="1475" y="560"/>
      <point x="1506" y="529" type="qcurve"/>
      <point x="1764" y="257"/>
      <point x="1778" y="246" type="qcurve"/>
      <point x="1850" y="175"/>
      <point x="1922" y="171" type="qcurve"/>
      <point x="1922" y="0" type="line"/>
      <point x="1768" y="4"/>
      <point x="1665" y="128" type="qcurve"/>
      <point x="1647" y="148"/>
      <point x="1627" y="166" type="qcurve"/>
      <point x="1580" y="219"/>
      <point x="1570" y="234" type="qcurve"/>
      <point x="1525" y="289"/>
      <point x="1515" y="305" type="qcurve"/>
      <point x="1507" y="310" type="line"/>
      <point x="1506" y="301" type="line"/>
      <point x="1452" y="202" type="line"/>
      <point x="1386" y="116" type="line"/>
      <point x="1332" y="69"/>
      <point x="1302" y="48" type="qcurve"/>
      <point x="1233" y="15" type="line"/>
      <point x="1171" y="2" type="line"/>
      <point x="1121" y="4"/>
      <point x="1100" y="8" type="qcurve"/>
      <point x="1066" y="23" type="line"/>
      <point x="1024" y="57" type="line"/>
      <point x="986" y="-81" type="line"/>
      <point x="952" y="-149" type="line"/>
      <point x="942" y="-165"/>
      <point x="935" y="-182" type="qcurve"/>
      <point x="923" y="-195"/>
      <point x="881" y="-256" type="qcurve"/>
      <point x="808" y="-326"/>
      <point x="790" y="-340" type="qcurve"/>
      <point x="777" y="-353"/>
      <point x="700" y="-403" type="qcurve"/>
      <point x="630" y="-435" type="line"/>
    </contour>
    <contour>
      <point x="964" y="748" type="line"/>
      <point x="975" y="626" type="line"/>
      <point x="975" y="600" type="line"/>
      <point x="977" y="594" type="line"/>
      <point x="996" y="381" type="line"/>
      <point x="1014" y="299" type="line"/>
      <point x="1018" y="288"/>
      <point x="1023" y="276" type="qcurve"/>
      <point x="1034" y="253" type="line"/>
      <point x="1040" y="243"/>
      <point x="1048" y="234" type="qcurve"/>
      <point x="1061" y="215" type="line"/>
      <point x="1078" y="198" type="line"/>
      <point x="1097" y="185" type="line"/>
      <point x="1120" y="173" type="line"/>
      <point x="1147" y="167" type="line"/>
      <point x="1161" y="165"/>
      <point x="1177" y="166" type="qcurve"/>
      <point x="1234" y="175" type="line"/>
      <point x="1301" y="207" type="line"/>
      <point x="1377" y="265" type="line"/>
      <point x="1427" y="314" type="line"/>
      <point x="1440" y="335" type="line"/>
      <point x="1442" y="356" type="line"/>
      <point x="1440" y="364" type="line"/>
      <point x="1419" y="409" type="line"/>
      <point x="1377" y="466" type="line"/>
    </contour>
  </outline>
</glyph>
<glyph name="kafalefmaksura-arab.fina" format="2">
  <advance width="1757"/>
  <unicode hex="FC83"/>
  <anchor x="1375" y="1712" name="Anchor_4_ligComponent_0"/>
  <anchor x="513" y="525" name="Anchor_4_ligComponent_1"/>
  <anchor x="1400" y="-363" name="Anchor_5_ligComponent_0"/>
  <anchor x="500" y="-650" name="Anchor_5_ligComponent_1"/>
  <anchor x="1220" y="1760" name="Anchor_7_ligComponent_0"/>
  <anchor x="480" y="720" name="Anchor_7_ligComponent_1"/>
  <outline>
    <contour>
      <point x="2049" y="1817" type="qcurve"/>
      <point x="2054" y="1816"/>
      <point x="2055" y="1811" type="qcurve"/>
      <point x="2018" y="1695" type="line"/>
      <point x="2015" y="1686"/>
      <point x="2007" y="1678" type="qcurve"/>
      <point x="1988" y="1672" type="line"/>
      <point x="1969" y="1663" type="line"/>
      <point x="1600" y="1520" type="line"/>
      <point x="1583" y="1510" type="line"/>
      <point x="1574" y="1508"/>
      <point x="1564" y="1503" type="qcurve"/>
      <point x="994" y="1236" type="line"/>
      <point x="989" y="1232" type="line"/>
      <point x="993" y="1221" type="line"/>
      <point x="1042" y="1135" type="line"/>
      <point x="1046" y="1126"/>
      <point x="1052" y="1118" type="qcurve"/>
      <point x="1059" y="1099" type="line"/>
      <point x="1065" y="1091"/>
      <point x="1069" y="1082" type="qcurve"/>
      <point x="1075" y="1074"/>
      <point x="1078" y="1065" type="qcurve"/>
      <point x="1172" y="888" type="line"/>
      <point x="1176" y="879"/>
      <point x="1181" y="871" type="qcurve"/>
      <point x="1310" y="623" type="line"/>
      <point x="1316" y="615"/>
      <point x="1320" y="606" type="qcurve"/>
      <point x="1395" y="473"/>
      <point x="1468" y="381" type="qcurve"/>
      <point x="1630" y="179"/>
      <point x="1745" y="171" type="qcurve"/>
      <point x="1757" y="171" type="line"/>
      <point x="1757" y="0" type="line"/>
      <point x="1745" y="0" type="line"/>
      <point x="1590" y="-5"/>
      <point x="1457" y="157" type="qcurve"/>
      <point x="1385" y="238"/>
      <point x="1316" y="359" type="qcurve"/>
      <point x="1307" y="370" type="line"/>
      <point x="1301" y="323" type="line"/>
      <point x="1276" y="239" type="line"/>
      <point x="1227" y="155" type="line"/>
      <point x="1191" y="109" type="line"/>
      <point x="1192" y="102"/>
      <point x="1196" y="98" type="qcurve"/>
      <point x="1248" y="68" type="line"/>
      <point x="1261" y="54" type="line"/>
      <point x="1278" y="18" type="line"/>
      <point x="1284" y="-30" type="line"/>
      <point x="1261" y="-114" type="line"/>
      <point x="1215" y="-204" type="line"/>
      <point x="1192" y="-236" type="line"/>
      <point x="1179" y="-249" type="line"/>
      <point x="1014" y="-352" type="line"/>
      <point x="994" y="-362" type="line"/>
      <point x="987" y="-367"/>
      <point x="977" y="-371" type="qcurve"/>
      <point x="757" y="-472" type="line"/>
      <point x="631" y="-508" type="line"/>
      <point x="536" y="-522" type="line"/>
      <point x="431" y="-520" type="line"/>
      <point x="361" y="-508" type="line"/>
      <point x="264" y="-472" type="line"/>
      <point x="245" y="-463" type="line"/>
      <point x="214" y="-440" type="line"/>
      <point x="176" y="-398" type="line"/>
      <point x="153" y="-365" type="line"/>
      <point x="113" y="-270" type="line"/>
      <point x="98" y="-177" type="line"/>
      <point x="98" y="-97" type="line"/>
      <point x="117" y="45" type="line"/>
      <point x="157" y="167" type="line"/>
      <point x="180" y="197" type="line"/>
      <point x="195" y="210" type="line"/>
      <point x="203" y="209"/>
      <point x="210" y="203" type="qcurve"/>
      <point x="210" y="192"/>
      <point x="207" y="178" type="qcurve"/>
      <point x="201" y="157" type="line"/>
      <point x="176" y="102" type="line"/>
      <point x="161" y="35" type="line"/>
      <point x="163" y="-93" type="line"/>
      <point x="176" y="-160" type="line"/>
      <point x="205" y="-211" type="line"/>
      <point x="241" y="-257" type="line"/>
      <point x="300" y="-305" type="line"/>
      <point x="372" y="-339" type="line"/>
      <point x="437" y="-356" type="line"/>
      <point x="484" y="-362" type="line"/>
      <point x="614" y="-358" type="line"/>
      <point x="791" y="-318" type="line"/>
      <point x="1158" y="-148" type="line"/>
      <point x="1192" y="-128" type="line"/>
      <point x="1199" y="-121"/>
      <point x="1200" y="-112" type="qcurve"/>
      <point x="1179" y="-80" type="line"/>
      <point x="1164" y="-69" type="line"/>
      <point x="1084" y="-42" type="line"/>
      <point x="916" y="-21" type="line"/>
      <point x="854" y="-4" type="line"/>
      <point x="846" y="-1"/>
      <point x="838" y="5" type="qcurve"/>
      <point x="899" y="132" type="line"/>
      <point x="906" y="140"/>
      <point x="916" y="144" type="qcurve"/>
      <point x="1061" y="159" type="line"/>
      <point x="1120" y="182" type="line"/>
      <point x="1154" y="201" type="line"/>
      <point x="1198" y="237" type="line"/>
      <point x="1234" y="283" type="line"/>
      <point x="1240" y="291"/>
      <point x="1244" y="300" type="qcurve"/>
      <point x="1250" y="308"/>
      <point x="1253" y="317" type="qcurve"/>
      <point x="1257" y="323" type="line"/>
      <point x="1240" y="403" type="line"/>
      <point x="1232" y="423" type="line"/>
      <point x="1231" y="433"/>
      <point x="1227" y="444" type="qcurve"/>
      <point x="1090" y="791" type="line"/>
      <point x="1071" y="827" type="line"/>
      <point x="1069" y="837"/>
      <point x="1063" y="846" type="qcurve"/>
      <point x="1054" y="863" type="line"/>
      <point x="1046" y="884" type="line"/>
      <point x="897" y="1166" type="line"/>
      <point x="915" y="1229" type="line"/>
      <point x="922" y="1248" type="line"/>
      <point x="925" y="1258"/>
      <point x="930" y="1269" type="qcurve"/>
      <point x="960" y="1345" type="line"/>
      <point x="970" y="1362" type="line"/>
      <point x="976" y="1370"/>
      <point x="983" y="1375" type="qcurve"/>
      <point x="1019" y="1394" type="line"/>
      <point x="1029" y="1397"/>
      <point x="1038" y="1402" type="qcurve"/>
      <point x="1874" y="1750" type="line"/>
      <point x="1883" y="1753"/>
      <point x="1893" y="1758" type="qcurve"/>
      <point x="2030" y="1809" type="line"/>
      <point x="2039" y="1812"/>
    </contour>
  </outline>
</glyph>
<glyph name="lamalefmaksura-arab.fina" format="2">
  <advance width="1540"/>
  <unicode hex="FC86"/>
  <anchor x="730" y="1050" name="Anchor_4_ligComponent_0"/>
  <anchor x="563" y="562" name="Anchor_4_ligComponent_1"/>
  <anchor x="1263" y="-550" name="Anchor_5_ligComponent_0"/>
  <anchor x="500" y="-825" name="Anchor_5_ligComponent_1"/>
  <anchor x="951" y="1186" name="Anchor_7_ligComponent_0"/>
  <anchor x="575" y="637" name="Anchor_7_ligComponent_1"/>
  <outline>
    <contour>
      <point x="551" y="-662" type="line"/>
      <point x="479" y="-662" type="line"/>
      <point x="477" y="-661" type="line"/>
      <point x="422" y="-658"/>
      <point x="404" y="-653" type="qcurve"/>
      <point x="363" y="-642" type="line"/>
      <point x="338" y="-636"/>
      <point x="311" y="-624" type="qcurve"/>
      <point x="304" y="-621"/>
      <point x="297" y="-620" type="qcurve"/>
      <point x="296" y="-619"/>
      <point x="295" y="-618"/>
      <point x="267" y="-604" type="qcurve"/>
      <point x="229" y="-580"/>
      <point x="213" y="-567" type="qcurve"/>
      <point x="204" y="-558"/>
      <point x="197" y="-555" type="qcurve"/>
      <point x="196" y="-553" type="line"/>
      <point x="190" y="-549"/>
      <point x="186" y="-543" type="qcurve"/>
      <point x="174" y="-534" type="line"/>
      <point x="167" y="-523"/>
      <point x="158" y="-516" type="qcurve"/>
      <point x="148" y="-502" type="line"/>
      <point x="146" y="-501" type="line"/>
      <point x="143" y="-497"/>
      <point x="135" y="-483"/>
      <point x="129" y="-479" type="qcurve"/>
      <point x="126" y="-472"/>
      <point x="122" y="-466" type="qcurve"/>
      <point x="122" y="-465"/>
      <point x="120" y="-464" type="qcurve"/>
      <point x="118" y="-459"/>
      <point x="113" y="-452" type="qcurve"/>
      <point x="89" y="-404" type="line"/>
      <point x="89" y="-397"/>
      <point x="82" y="-380" type="qcurve"/>
      <point x="74" y="-349" type="line"/>
      <point x="73" y="-340"/>
      <point x="70" y="-330" type="qcurve"/>
      <point x="69" y="-313" type="line"/>
      <point x="68" y="-312" type="line"/>
      <point x="62" y="-258"/>
      <point x="62" y="-175" type="qcurve"/>
      <point x="65" y="-133"/>
      <point x="67" y="-128" type="qcurve"/>
      <point x="67" y="-121" type="line"/>
      <point x="68" y="-119" type="line"/>
      <point x="70" y="-87"/>
      <point x="75" y="-67" type="qcurve"/>
      <point x="82" y="-34"/>
      <point x="83" y="-32" type="qcurve"/>
      <point x="90" y="-2"/>
      <point x="90" y="1" type="qcurve"/>
      <point x="94" y="9"/>
      <point x="102" y="36" type="qcurve"/>
      <point x="107" y="50"/>
      <point x="110" y="63" type="qcurve"/>
      <point x="114" y="69"/>
      <point x="118" y="83"/>
      <point x="123" y="91" type="qcurve"/>
      <point x="125" y="104"/>
      <point x="138" y="127" type="qcurve"/>
      <point x="155" y="163"/>
      <point x="169" y="183" type="qcurve"/>
      <point x="171" y="186"/>
      <point x="185" y="193" type="qcurve"/>
      <point x="197" y="194" type="line"/>
      <point x="207" y="186"/>
      <point x="208" y="178" type="qcurve"/>
      <point x="208" y="150"/>
      <point x="188" y="118" type="qcurve"/>
      <point x="173" y="77"/>
      <point x="170" y="72" type="qcurve"/>
      <point x="169" y="65"/>
      <point x="162" y="43" type="qcurve"/>
      <point x="154" y="14"/>
      <point x="154" y="11" type="qcurve"/>
      <point x="149" y="1"/>
      <point x="145" y="-45" type="qcurve"/>
      <point x="143" y="-53"/>
      <point x="143" y="-61" type="qcurve"/>
      <point x="142" y="-63" type="line"/>
      <point x="140" y="-132" type="line"/>
      <point x="142" y="-146"/>
      <point x="142" y="-161" type="qcurve"/>
      <point x="147" y="-187"/>
      <point x="150" y="-213" type="qcurve"/>
      <point x="150" y="-220"/>
      <point x="156" y="-237"/>
      <point x="158" y="-246" type="qcurve"/>
      <point x="168" y="-277" type="line"/>
      <point x="171" y="-282"/>
      <point x="174" y="-291" type="qcurve"/>
      <point x="197" y="-336"/>
      <point x="223" y="-360" type="qcurve"/>
      <point x="224" y="-362"/>
      <point x="226" y="-363" type="qcurve"/>
      <point x="239" y="-376"/>
      <point x="244" y="-379" type="qcurve"/>
      <point x="246" y="-385"/>
      <point x="254" y="-389" type="qcurve"/>
      <point x="259" y="-399"/>
      <point x="326" y="-443" type="qcurve"/>
      <point x="329" y="-443" type="line"/>
      <point x="349" y="-458"/>
      <point x="416" y="-477" type="qcurve"/>
      <point x="419" y="-477"/>
      <point x="435" y="-482" type="qcurve"/>
      <point x="512" y="-493"/>
      <point x="561" y="-493" type="qcurve"/>
      <point x="563" y="-491" type="line"/>
      <point x="599" y="-491"/>
      <point x="632" y="-486" type="qcurve"/>
      <point x="649" y="-485"/>
      <point x="660" y="-482" type="qcurve"/>
      <point x="676" y="-480" type="line"/>
      <point x="694" y="-478"/>
      <point x="711" y="-473" type="qcurve"/>
      <point x="723" y="-471"/>
      <point x="725" y="-470" type="qcurve"/>
      <point x="733" y="-470"/>
      <point x="744" y="-465" type="qcurve"/>
      <point x="756" y="-465"/>
      <point x="814" y="-447"/>
      <point x="822" y="-443" type="qcurve"/>
      <point x="828" y="-443"/>
      <point x="837" y="-439" type="qcurve"/>
      <point x="840" y="-439" type="line"/>
      <point x="868" y="-428" type="line"/>
      <point x="871" y="-428" type="line"/>
      <point x="877" y="-425"/>
      <point x="886" y="-423" type="qcurve"/>
      <point x="901" y="-415"/>
      <point x="916" y="-411" type="qcurve"/>
      <point x="921" y="-410"/>
      <point x="927" y="-405" type="qcurve"/>
      <point x="932" y="-405"/>
      <point x="946" y="-398" type="qcurve"/>
      <point x="974" y="-387"/>
      <point x="985" y="-381" type="qcurve"/>
      <point x="1001" y="-374" type="line"/>
      <point x="1067" y="-341" type="line"/>
      <point x="1069" y="-341" type="line"/>
      <point x="1069" y="-340" type="line"/>
      <point x="1083" y="-335"/>
      <point x="1092" y="-327" type="qcurve"/>
      <point x="1093" y="-327"/>
      <point x="1093" y="-326" type="qcurve"/>
      <point x="1095" y="-326" type="line"/>
      <point x="1095" y="-325" type="line"/>
      <point x="1135" y="-304" type="line"/>
      <point x="1178" y="-278" type="line"/>
      <point x="1191" y="-271"/>
      <point x="1198" y="-265" type="qcurve"/>
      <point x="1206" y="-263"/>
      <point x="1209" y="-249" type="qcurve"/>
      <point x="1209" y="-232"/>
      <point x="1172" y="-211" type="qcurve"/>
      <point x="1165" y="-209"/>
      <point x="1144" y="-199" type="qcurve"/>
      <point x="1123" y="-193"/>
      <point x="1113" y="-188" type="qcurve"/>
      <point x="1098" y="-185"/>
      <point x="1096" y="-184" type="qcurve"/>
      <point x="1048" y="-170"/>
      <point x="1032" y="-167" type="qcurve"/>
      <point x="974" y="-151"/>
      <point x="966" y="-150" type="qcurve"/>
      <point x="960" y="-147"/>
      <point x="945" y="-145"/>
      <point x="911" y="-134"/>
      <point x="903" y="-132" type="qcurve"/>
      <point x="885" y="-126"/>
      <point x="844" y="-109" type="qcurve"/>
      <point x="819" y="-106"/>
      <point x="815" y="-98" type="qcurve"/>
      <point x="814" y="-91" type="line"/>
      <point x="816" y="-85"/>
      <point x="817" y="-73"/>
      <point x="821" y="-65" type="qcurve"/>
      <point x="822" y="-58"/>
      <point x="827" y="-49" type="qcurve"/>
      <point x="840" y="-10"/>
      <point x="843" y="-5" type="qcurve"/>
      <point x="844" y="2"/>
      <point x="849" y="10" type="qcurve"/>
      <point x="854" y="26" type="line"/>
      <point x="856" y="30"/>
      <point x="860" y="47"/>
      <point x="865" y="55" type="qcurve"/>
      <point x="866" y="60" type="line"/>
      <point x="902" y="66"/>
      <point x="915" y="66" type="qcurve"/>
      <point x="929" y="69"/>
      <point x="950" y="69" type="qcurve"/>
      <point x="966" y="69"/>
      <point x="1025" y="80" type="qcurve"/>
      <point x="1062" y="90"/>
      <point x="1069" y="93" type="qcurve"/>
      <point x="1072" y="93" type="line"/>
      <point x="1086" y="100"/>
      <point x="1112" y="112"/>
      <point x="1150" y="141"/>
      <point x="1153" y="148" type="qcurve"/>
      <point x="1160" y="152"/>
      <point x="1182" y="185" type="qcurve"/>
      <point x="1185" y="190"/>
      <point x="1191" y="214" type="qcurve"/>
      <point x="1191" y="231"/>
      <point x="1194" y="237" type="qcurve"/>
      <point x="1195" y="257" type="line"/>
      <point x="1196" y="259"/>
      <point x="1196" y="276" type="qcurve"/>
      <point x="1197" y="285"/>
      <point x="1197" y="315" type="qcurve"/>
      <point x="1196" y="346"/>
      <point x="1192" y="392" type="qcurve"/>
      <point x="1191" y="400"/>
      <point x="1191" y="411" type="qcurve"/>
      <point x="1187" y="445" type="line"/>
      <point x="1169" y="587"/>
      <point x="1167" y="620" type="qcurve"/>
      <point x="1165" y="647" type="line"/>
      <point x="1152" y="780"/>
      <point x="1152" y="792" type="qcurve"/>
      <point x="1152" y="802" type="line"/>
      <point x="1150" y="820"/>
      <point x="1143" y="916" type="qcurve"/>
      <point x="1142" y="922"/>
      <point x="1142" y="934" type="qcurve"/>
      <point x="1141" y="935" type="line"/>
      <point x="1141" y="947" type="line"/>
      <point x="1140" y="949" type="line"/>
      <point x="1135" y="1031" type="line"/>
      <point x="1132" y="1055"/>
      <point x="1132" y="1089" type="qcurve"/>
      <point x="1128" y="1121"/>
      <point x="1128" y="1147" type="qcurve"/>
      <point x="1128" y="1160"/>
      <point x="1125" y="1182" type="qcurve"/>
      <point x="1119" y="1278" type="line"/>
      <point x="1118" y="1278" type="line"/>
      <point x="1118" y="1292" type="line"/>
      <point x="1117" y="1292" type="line"/>
      <point x="1117" y="1297" type="line"/>
      <point x="1125" y="1313"/>
      <point x="1136" y="1342"/>
      <point x="1150" y="1370" type="qcurve"/>
      <point x="1175" y="1430"/>
      <point x="1178" y="1437"/>
      <point x="1192" y="1468" type="qcurve"/>
      <point x="1195" y="1475"/>
      <point x="1201" y="1491"/>
      <point x="1206" y="1498" type="qcurve"/>
      <point x="1211" y="1498" type="line"/>
      <point x="1215" y="1493"/>
      <point x="1217" y="1468" type="qcurve"/>
      <point x="1221" y="1432"/>
      <point x="1221" y="1413" type="qcurve"/>
      <point x="1222" y="1411" type="line"/>
      <point x="1223" y="1391" type="line"/>
      <point x="1226" y="1370"/>
      <point x="1226" y="1353" type="qcurve"/>
      <point x="1231" y="1325"/>
      <point x="1231" y="1281" type="qcurve"/>
      <point x="1232" y="1281" type="line"/>
      <point x="1236" y="1221" type="line"/>
      <point x="1238" y="1209"/>
      <point x="1238" y="1197" type="qcurve"/>
      <point x="1239" y="1196" type="line"/>
      <point x="1239" y="1185" type="line"/>
      <point x="1240" y="1183" type="line"/>
      <point x="1244" y="1126" type="line"/>
      <point x="1246" y="1118"/>
      <point x="1246" y="1100" type="qcurve"/>
      <point x="1247" y="1100" type="line"/>
      <point x="1247" y="1090" type="line"/>
      <point x="1248" y="1089" type="line"/>
      <point x="1248" y="1076" type="line"/>
      <point x="1249" y="1074" type="line"/>
      <point x="1249" y="1069" type="line"/>
      <point x="1250" y="1063"/>
      <point x="1250" y="1044"/>
      <point x="1253" y="1018"/>
      <point x="1253" y="1005" type="qcurve"/>
      <point x="1254" y="1005" type="line"/>
      <point x="1254" y="993" type="line"/>
      <point x="1256" y="985"/>
      <point x="1256" y="970" type="qcurve"/>
      <point x="1257" y="969" type="line"/>
      <point x="1257" y="957" type="line"/>
      <point x="1258" y="955" type="line"/>
      <point x="1266" y="860" type="line"/>
      <point x="1268" y="848"/>
      <point x="1268" y="825" type="qcurve"/>
      <point x="1269" y="823" type="line"/>
      <point x="1272" y="766" type="line"/>
      <point x="1275" y="753"/>
      <point x="1276" y="730" type="qcurve"/>
      <point x="1277" y="682"/>
      <point x="1283" y="655" type="qcurve"/>
      <point x="1284" y="631"/>
      <point x="1287" y="608" type="qcurve"/>
      <point x="1287" y="588"/>
      <point x="1290" y="557" type="qcurve"/>
      <point x="1293" y="534"/>
      <point x="1293" y="515" type="qcurve"/>
      <point x="1294" y="514" type="line"/>
      <point x="1294" y="502" type="line"/>
      <point x="1295" y="501" type="line"/>
      <point x="1295" y="472"/>
      <point x="1301" y="452" type="qcurve"/>
      <point x="1303" y="445"/>
      <point x="1303" y="439" type="qcurve"/>
      <point x="1304" y="438" type="line"/>
      <point x="1309" y="412" type="line"/>
      <point x="1323" y="362"/>
      <point x="1335" y="336" type="qcurve"/>
      <point x="1381" y="219"/>
      <point x="1472" y="188" type="qcurve"/>
      <point x="1518" y="172"/>
      <point x="1540" y="171" type="qcurve"/>
      <point x="1540" y="0" type="line"/>
      <point x="1506" y="1"/>
      <point x="1477" y="7" type="qcurve"/>
      <point x="1379" y="26"/>
      <point x="1259" y="176" type="qcurve"/>
      <point x="1250" y="186" type="line"/>
      <point x="1249" y="188" type="line"/>
      <point x="1244" y="185"/>
      <point x="1224" y="127"/>
      <point x="1218" y="114"/>
      <point x="1213" y="106" type="qcurve"/>
      <point x="1211" y="102"/>
      <point x="1209" y="94" type="qcurve"/>
      <point x="1204" y="89"/>
      <point x="1201" y="80" type="qcurve"/>
      <point x="1199" y="79" type="line"/>
      <point x="1197" y="73"/>
      <point x="1191" y="66" type="qcurve"/>
      <point x="1188" y="57"/>
      <point x="1175" y="41" type="qcurve"/>
      <point x="1169" y="31" type="line"/>
      <point x="1167" y="30" type="line"/>
      <point x="1153" y="11"/>
      <point x="1148" y="8" type="qcurve"/>
      <point x="1146" y="4"/>
      <point x="1130" y="-10" type="qcurve"/>
      <point x="1130" y="-12"/>
      <point x="1161" y="-22" type="qcurve"/>
      <point x="1168" y="-25"/>
      <point x="1188" y="-32"/>
      <point x="1203" y="-41" type="qcurve"/>
      <point x="1243" y="-62" type="line"/>
      <point x="1244" y="-64" type="line"/>
      <point x="1253" y="-67"/>
      <point x="1282" y="-86" type="qcurve"/>
      <point x="1287" y="-91"/>
      <point x="1294" y="-103"/>
      <point x="1299" y="-110" type="qcurve"/>
      <point x="1299" y="-116"/>
      <point x="1303" y="-121" type="qcurve"/>
      <point x="1309" y="-164" type="line"/>
      <point x="1309" y="-177"/>
      <point x="1307" y="-196" type="qcurve"/>
      <point x="1306" y="-198" type="line"/>
      <point x="1306" y="-211"/>
      <point x="1284" y="-280" type="qcurve"/>
      <point x="1273" y="-299"/>
      <point x="1270" y="-309" type="qcurve"/>
      <point x="1258" y="-330"/>
      <point x="1255" y="-334" type="qcurve"/>
      <point x="1252" y="-342"/>
      <point x="1246" y="-347" type="qcurve"/>
      <point x="1243" y="-354"/>
      <point x="1237" y="-359" type="qcurve"/>
      <point x="1228" y="-376"/>
      <point x="1206" y="-387" type="qcurve"/>
      <point x="1198" y="-397"/>
      <point x="1182" y="-404" type="qcurve"/>
      <point x="1178" y="-409"/>
      <point x="1171" y="-413" type="qcurve"/>
      <point x="1141" y="-433"/>
      <point x="1127" y="-443"/>
      <point x="1115" y="-450"/>
      <point x="1108" y="-455" type="qcurve"/>
      <point x="1091" y="-468"/>
      <point x="1083" y="-470" type="qcurve"/>
      <point x="1070" y="-480"/>
      <point x="1058" y="-485" type="qcurve"/>
      <point x="1054" y="-488"/>
      <point x="1048" y="-493"/>
      <point x="1039" y="-497"/>
      <point x="1034" y="-502" type="qcurve"/>
      <point x="1032" y="-502" type="line"/>
      <point x="1018" y="-508"/>
      <point x="1008" y="-516" type="qcurve"/>
      <point x="993" y="-523"/>
      <point x="979" y="-531" type="qcurve"/>
      <point x="968" y="-535"/>
      <point x="955" y="-544" type="qcurve"/>
      <point x="953" y="-544" type="line"/>
      <point x="953" y="-545" type="line"/>
      <point x="936" y="-551"/>
      <point x="927" y="-558" type="qcurve"/>
      <point x="925" y="-558" type="line"/>
      <point x="925" y="-559" type="line"/>
      <point x="919" y="-560"/>
      <point x="905" y="-567"/>
      <point x="886" y="-576"/>
      <point x="876" y="-581" type="qcurve"/>
      <point x="861" y="-583"/>
      <point x="839" y="-596" type="qcurve"/>
      <point x="833" y="-597"/>
      <point x="827" y="-601" type="qcurve"/>
      <point x="824" y="-601" type="line"/>
      <point x="817" y="-604"/>
      <point x="806" y="-607" type="qcurve"/>
      <point x="798" y="-609"/>
      <point x="795" y="-612" type="qcurve"/>
      <point x="766" y="-621"/>
      <point x="758" y="-622"/>
      <point x="754" y="-625" type="qcurve"/>
      <point x="719" y="-635"/>
      <point x="684" y="-643" type="qcurve"/>
      <point x="672" y="-643"/>
      <point x="633" y="-653" type="qcurve"/>
      <point x="631" y="-653" type="line"/>
      <point x="631" y="-654" type="line"/>
      <point x="624" y="-654"/>
      <point x="605" y="-658"/>
      <point x="597" y="-658" type="qcurve"/>
      <point x="595" y="-659" type="line"/>
    </contour>
  </outline>
</glyph>
<glyph name="hahmeem-arab.init" format="2">
  <advance width="1208"/>
  <unicode hex="FCAA"/>
  <anchor x="738" y="925" name="Anchor_4_ligComponent_0"/>
  <anchor x="100" y="762" name="Anchor_4_ligComponent_1"/>
  <anchor x="813" y="-38" name="Anchor_5_ligComponent_0"/>
  <anchor x="213" y="-188" name="Anchor_5_ligComponent_1"/>
  <anchor x="675" y="975" name="Anchor_7_ligComponent_0"/>
  <anchor x="25" y="725" name="Anchor_7_ligComponent_1"/>
  <outline>
    <contour>
      <point x="402" y="-10" type="qcurve"/>
      <point x="371" y="-10" type="line"/>
      <point x="353" y="-4"/>
      <point x="348" y="-4" type="qcurve"/>
      <point x="331" y="4"/>
      <point x="328" y="4" type="qcurve"/>
      <point x="320" y="12"/>
      <point x="305" y="15" type="qcurve"/>
      <point x="299" y="21"/>
      <point x="288" y="26" type="qcurve"/>
      <point x="277" y="35"/>
      <point x="256" y="52"/>
      <point x="246" y="58" type="qcurve"/>
      <point x="243" y="63"/>
      <point x="237" y="68" type="qcurve"/>
      <point x="229" y="78"/>
      <point x="217" y="87" type="qcurve"/>
      <point x="217" y="89"/>
      <point x="207" y="97" type="qcurve"/>
      <point x="205" y="103"/>
      <point x="197" y="108" type="qcurve"/>
      <point x="194" y="113"/>
      <point x="189" y="117" type="qcurve"/>
      <point x="188" y="119" type="line"/>
      <point x="135" y="46"/>
      <point x="32" y="-1"/>
      <point x="0" y="0" type="qcurve"/>
      <point x="0" y="171" type="line"/>
      <point x="96" y="171"/>
      <point x="146" y="202" type="qcurve"/>
      <point x="249" y="354"/>
      <point x="439" y="354" type="qcurve"/>
      <point x="460" y="354" type="line"/>
      <point x="562" y="409"/>
      <point x="665" y="437" type="qcurve"/>
      <point x="671" y="438"/>
      <point x="678" y="441" type="qcurve"/>
      <point x="667" y="450"/>
      <point x="499" y="526" type="qcurve"/>
      <point x="417" y="558"/>
      <point x="364" y="558" type="qcurve"/>
      <point x="308" y="554"/>
      <point x="268" y="520" type="qcurve"/>
      <point x="263" y="517"/>
      <point x="257" y="517" type="qcurve"/>
      <point x="253" y="527" type="line"/>
      <point x="258" y="553" type="line"/>
      <point x="261" y="557"/>
      <point x="265" y="570" type="qcurve"/>
      <point x="266" y="573"/>
      <point x="270" y="579"/>
      <point x="275" y="591"/>
      <point x="281" y="599" type="qcurve"/>
      <point x="284" y="603"/>
      <point x="290" y="616"/>
      <point x="294" y="622" type="qcurve"/>
      <point x="303" y="630"/>
      <point x="309" y="642" type="qcurve"/>
      <point x="310" y="642"/>
      <point x="311" y="644" type="qcurve"/>
      <point x="316" y="648"/>
      <point x="322" y="656" type="qcurve"/>
      <point x="323" y="656"/>
      <point x="324" y="658" type="qcurve"/>
      <point x="335" y="666"/>
      <point x="339" y="671" type="qcurve"/>
      <point x="347" y="674"/>
      <point x="354" y="681" type="qcurve"/>
      <point x="359" y="682"/>
      <point x="364" y="687" type="qcurve"/>
      <point x="373" y="690"/>
      <point x="386" y="696" type="qcurve"/>
      <point x="401" y="696"/>
      <point x="409" y="700" type="qcurve"/>
      <point x="443" y="700" type="line"/>
      <point x="468" y="696"/>
      <point x="512" y="684" type="qcurve"/>
      <point x="519" y="680"/>
      <point x="530" y="678" type="qcurve"/>
      <point x="531" y="677"/>
      <point x="534" y="677" type="qcurve"/>
      <point x="541" y="673"/>
      <point x="554" y="668" type="qcurve"/>
      <point x="560" y="666"/>
      <point x="564" y="663" type="qcurve"/>
      <point x="572" y="659"/>
      <point x="580" y="658" type="qcurve"/>
      <point x="600" y="645"/>
      <point x="613" y="642" type="qcurve"/>
      <point x="618" y="638"/>
      <point x="625" y="637" type="qcurve"/>
      <point x="640" y="628"/>
      <point x="719" y="592" type="qcurve"/>
      <point x="729" y="585"/>
      <point x="746" y="580" type="qcurve"/>
      <point x="757" y="575"/>
      <point x="779" y="562"/>
      <point x="838" y="542" type="qcurve"/>
      <point x="912" y="518"/>
      <point x="949" y="511" type="qcurve"/>
      <point x="965" y="508"/>
      <point x="994" y="501"/>
      <point x="1044" y="495" type="qcurve"/>
      <point x="1053" y="495"/>
      <point x="1069" y="493" type="qcurve"/>
      <point x="1096" y="490"/>
      <point x="1121" y="490" type="qcurve"/>
      <point x="1180" y="490" type="line"/>
      <point x="1180" y="488" type="line"/>
      <point x="1174" y="481"/>
      <point x="1163" y="462"/>
      <point x="1136" y="421" type="qcurve"/>
      <point x="1128" y="405" type="line"/>
      <point x="1120" y="399"/>
      <point x="1089" y="345" type="qcurve"/>
      <point x="1009" y="346" type="line"/>
      <point x="917" y="346"/>
      <point x="890" y="342" type="qcurve"/>
      <point x="881" y="340"/>
      <point x="861" y="340"/>
      <point x="859" y="338" type="qcurve"/>
      <point x="840" y="338"/>
      <point x="834" y="335" type="qcurve"/>
      <point x="812" y="335"/>
      <point x="784" y="328" type="qcurve"/>
      <point x="777" y="328"/>
      <point x="773" y="326" type="qcurve"/>
      <point x="754" y="325"/>
      <point x="735" y="320" type="qcurve"/>
      <point x="725" y="320"/>
      <point x="706" y="314" type="qcurve"/>
      <point x="695" y="313"/>
      <point x="686" y="309" type="qcurve"/>
      <point x="633" y="299"/>
      <point x="624" y="293" type="qcurve"/>
      <point x="611" y="290"/>
      <point x="604" y="287" type="qcurve"/>
      <point x="597" y="287"/>
      <point x="592" y="284" type="qcurve"/>
      <point x="582" y="282"/>
      <point x="555" y="272" type="qcurve"/>
      <point x="532" y="265"/>
      <point x="526" y="262"/>
      <point x="523" y="261" type="qcurve"/>
      <point x="532" y="225"/>
      <point x="532" y="192" type="qcurve"/>
      <point x="532" y="89"/>
      <point x="444" y="12" type="qcurve"/>
      <point x="425" y="2"/>
      <point x="421" y="-2" type="qcurve"/>
      <point x="414" y="-4"/>
      <point x="407" y="-8" type="qcurve"/>
      <point x="404" y="-8"/>
    </contour>
    <contour>
      <point x="425" y="143" type="line"/>
      <point x="426" y="153" type="line"/>
      <point x="426" y="179"/>
      <point x="408" y="203" type="qcurve"/>
      <point x="392" y="212"/>
      <point x="371" y="212" type="qcurve"/>
      <point x="351" y="212"/>
      <point x="326" y="203" type="qcurve"/>
      <point x="321" y="201"/>
      <point x="317" y="198" type="qcurve"/>
      <point x="361" y="152"/>
      <point x="423" y="144" type="qcurve"/>
    </contour>
  </outline>
</glyph>
<glyph name="lamhah-arab.init" format="2">
  <advance width="1183"/>
  <unicode hex="FCCA"/>
  <anchor x="588" y="1525" name="Anchor_4_ligComponent_0"/>
  <anchor x="188" y="937" name="Anchor_4_ligComponent_1"/>
  <anchor x="675" y="-50" name="Anchor_5_ligComponent_0"/>
  <anchor x="163" y="-225" name="Anchor_5_ligComponent_1"/>
  <anchor x="0" y="0" name="Anchor_7_ligComponent_0"/>
  <anchor x="0" y="0" name="Anchor_7_ligComponent_1"/>
  <outline>
    <contour>
      <point x="60" y="0" type="qcurve"/>
      <point x="0" y="0" type="line"/>
      <point x="0" y="171" type="line"/>
      <point x="210" y="171"/>
      <point x="413" y="226" type="qcurve"/>
      <point x="416" y="228"/>
      <point x="428" y="231"/>
      <point x="434" y="233" type="qcurve"/>
      <point x="447" y="238"/>
      <point x="466" y="242" type="qcurve"/>
      <point x="481" y="248"/>
      <point x="492" y="249"/>
      <point x="498" y="252" type="qcurve"/>
      <point x="504" y="252"/>
      <point x="509" y="255" type="qcurve"/>
      <point x="525" y="258"/>
      <point x="530" y="261" type="qcurve"/>
      <point x="574" y="271"/>
      <point x="580" y="273" type="qcurve"/>
      <point x="527" y="286"/>
      <point x="500" y="295" type="qcurve"/>
      <point x="241" y="375"/>
      <point x="176" y="400" type="qcurve"/>
      <point x="156" y="406"/>
      <point x="143" y="412"/>
      <point x="74" y="438" type="qcurve"/>
      <point x="47" y="449"/>
      <point x="47" y="455" type="qcurve"/>
      <point x="50" y="467" type="line"/>
      <point x="64" y="495"/>
      <point x="75" y="524" type="qcurve"/>
      <point x="85" y="544"/>
      <point x="88" y="553" type="qcurve"/>
      <point x="107" y="596"/>
      <point x="108" y="601" type="qcurve"/>
      <point x="109" y="602" type="line"/>
      <point x="120" y="602" type="line"/>
      <point x="140" y="606"/>
      <point x="170" y="606" type="qcurve"/>
      <point x="192" y="607"/>
      <point x="219" y="611" type="qcurve"/>
      <point x="233" y="612" type="line"/>
      <point x="233" y="613" type="line"/>
      <point x="240" y="613"/>
      <point x="256" y="616"/>
      <point x="265" y="617" type="qcurve"/>
      <point x="304" y="617"/>
      <point x="431" y="648" type="qcurve"/>
      <point x="467" y="661"/>
      <point x="472" y="661" type="qcurve"/>
      <point x="521" y="683"/>
      <point x="526" y="690" type="qcurve"/>
      <point x="531" y="692"/>
      <point x="538" y="699"/>
      <point x="542" y="701" type="qcurve"/>
      <point x="548" y="709" type="line"/>
      <point x="562" y="723"/>
      <point x="562" y="744" type="qcurve"/>
      <point x="554" y="868"/>
      <point x="553" y="871" type="qcurve"/>
      <point x="553" y="882" type="line"/>
      <point x="552" y="883" type="line"/>
      <point x="551" y="908" type="line"/>
      <point x="550" y="909" type="line"/>
      <point x="549" y="944"/>
      <point x="546" y="967" type="qcurve"/>
      <point x="545" y="987" type="line"/>
      <point x="544" y="988" type="line"/>
      <point x="543" y="1013" type="line"/>
      <point x="542" y="1014" type="line"/>
      <point x="542" y="1039" type="line"/>
      <point x="541" y="1043"/>
      <point x="541" y="1052" type="qcurve"/>
      <point x="540" y="1054" type="line"/>
      <point x="539" y="1079" type="line"/>
      <point x="538" y="1079" type="line"/>
      <point x="538" y="1092" type="line"/>
      <point x="537" y="1092" type="line"/>
      <point x="536" y="1117" type="line"/>
      <point x="535" y="1119" type="line"/>
      <point x="535" y="1130" type="line"/>
      <point x="534" y="1132" type="line"/>
      <point x="534" y="1143" type="line"/>
      <point x="533" y="1145" type="line"/>
      <point x="533" y="1157" type="line"/>
      <point x="532" y="1157" type="line"/>
      <point x="532" y="1193"/>
      <point x="524" y="1275" type="qcurve"/>
      <point x="519" y="1337"/>
      <point x="519" y="1349" type="qcurve"/>
      <point x="518" y="1357" type="line"/>
      <point x="550" y="1413" type="line"/>
      <point x="561" y="1430"/>
      <point x="565" y="1439" type="qcurve"/>
      <point x="576" y="1450"/>
      <point x="581" y="1465" type="qcurve"/>
      <point x="587" y="1471"/>
      <point x="591" y="1482" type="qcurve"/>
      <point x="594" y="1484"/>
      <point x="596" y="1490" type="qcurve"/>
      <point x="601" y="1489"/>
      <point x="602" y="1478"/>
      <point x="620" y="1412"/>
      <point x="620" y="1405" type="qcurve"/>
      <point x="622" y="1400"/>
      <point x="624" y="1391"/>
      <point x="630" y="1367" type="qcurve"/>
      <point x="639" y="1337"/>
      <point x="643" y="1312"/>
      <point x="646" y="1302"/>
      <point x="647" y="1297" type="qcurve"/>
      <point x="630" y="1280"/>
      <point x="624" y="1276" type="qcurve"/>
      <point x="622" y="1273"/>
      <point x="614" y="1267"/>
      <point x="610" y="1263" type="qcurve"/>
      <point x="609" y="1256" type="line"/>
      <point x="611" y="1247"/>
      <point x="611" y="1225" type="qcurve"/>
      <point x="613" y="1211"/>
      <point x="613" y="1188" type="qcurve"/>
      <point x="614" y="1186" type="line"/>
      <point x="614" y="1172" type="line"/>
      <point x="617" y="1153"/>
      <point x="617" y="1123" type="qcurve"/>
      <point x="618" y="1121" type="line"/>
      <point x="618" y="1108" type="line"/>
      <point x="620" y="1100"/>
      <point x="620" y="1065" type="qcurve"/>
      <point x="621" y="1051"/>
      <point x="623" y="1034"/>
      <point x="623" y="1009" type="qcurve"/>
      <point x="624" y="1007" type="line"/>
      <point x="625" y="978" type="line"/>
      <point x="627" y="968"/>
      <point x="627" y="944" type="qcurve"/>
      <point x="628" y="942" type="line"/>
      <point x="629" y="914" type="line"/>
      <point x="631" y="904"/>
      <point x="631" y="878" type="qcurve"/>
      <point x="632" y="876" type="line"/>
      <point x="632" y="862" type="line"/>
      <point x="634" y="850"/>
      <point x="634" y="837" type="qcurve"/>
      <point x="634" y="817"/>
      <point x="636" y="811" type="qcurve"/>
      <point x="636" y="761"/>
      <point x="627" y="738" type="qcurve"/>
      <point x="627" y="733"/>
      <point x="623" y="720" type="qcurve"/>
      <point x="621" y="709"/>
      <point x="615" y="695" type="qcurve"/>
      <point x="598" y="657"/>
      <point x="592" y="648" type="qcurve"/>
      <point x="573" y="610"/>
      <point x="529" y="575" type="qcurve"/>
      <point x="524" y="572"/>
      <point x="514" y="562" type="qcurve"/>
      <point x="496" y="553"/>
      <point x="489" y="546" type="qcurve"/>
      <point x="462" y="534"/>
      <point x="447" y="528"/>
      <point x="442" y="525" type="qcurve"/>
      <point x="438" y="525"/>
      <point x="434" y="522" type="qcurve"/>
      <point x="431" y="522"/>
      <point x="398" y="514" type="qcurve"/>
      <point x="403" y="511"/>
      <point x="471" y="486" type="qcurve"/>
      <point x="521" y="468"/>
      <point x="526" y="465" type="qcurve"/>
      <point x="548" y="461"/>
      <point x="619" y="435" type="qcurve"/>
      <point x="651" y="423"/>
      <point x="661" y="423" type="qcurve"/>
      <point x="676" y="415"/>
      <point x="693" y="413" type="qcurve"/>
      <point x="702" y="409" type="line"/>
      <point x="721" y="405"/>
      <point x="773" y="390" type="qcurve"/>
      <point x="790" y="383"/>
      <point x="799" y="383" type="qcurve"/>
      <point x="803" y="381"/>
      <point x="811" y="380" type="qcurve"/>
      <point x="820" y="376"/>
      <point x="833" y="374" type="qcurve"/>
      <point x="838" y="371"/>
      <point x="843" y="371" type="qcurve"/>
      <point x="859" y="363"/>
      <point x="876" y="363" type="qcurve"/>
      <point x="919" y="351" type="line"/>
      <point x="924" y="350"/>
      <point x="945" y="344"/>
      <point x="953" y="344" type="qcurve"/>
      <point x="957" y="342"/>
      <point x="968" y="340"/>
      <point x="980" y="337"/>
      <point x="986" y="336" type="qcurve"/>
      <point x="992" y="333"/>
      <point x="1007" y="330" type="qcurve"/>
      <point x="1013" y="329"/>
      <point x="1018" y="327" type="qcurve"/>
      <point x="1038" y="323"/>
      <point x="1046" y="322"/>
      <point x="1068" y="316"/>
      <point x="1074" y="315" type="qcurve"/>
      <point x="1099" y="310"/>
      <point x="1108" y="307" type="qcurve"/>
      <point x="1150" y="299" type="line"/>
      <point x="1149" y="293"/>
      <point x="1143" y="287" type="qcurve"/>
      <point x="1141" y="282"/>
      <point x="1137" y="279" type="qcurve"/>
      <point x="1131" y="267"/>
      <point x="1126" y="263" type="qcurve"/>
      <point x="1121" y="254" type="line"/>
      <point x="1114" y="247"/>
      <point x="1110" y="237" type="qcurve"/>
      <point x="1107" y="235"/>
      <point x="1104" y="229" type="qcurve"/>
      <point x="1098" y="223"/>
      <point x="1093" y="213" type="qcurve"/>
      <point x="1058" y="166"/>
      <point x="1052" y="154" type="qcurve"/>
      <point x="1044" y="154" type="line"/>
      <point x="996" y="165"/>
      <point x="945" y="165" type="qcurve"/>
      <point x="943" y="166" type="line"/>
      <point x="930" y="166" type="line"/>
      <point x="917" y="167"/>
      <point x="849" y="167" type="qcurve"/>
      <point x="841" y="166"/>
      <point x="810" y="165" type="qcurve"/>
      <point x="801" y="163"/>
      <point x="787" y="163" type="qcurve"/>
      <point x="751" y="162"/>
      <point x="722" y="155" type="qcurve"/>
      <point x="718" y="155" type="line"/>
      <point x="717" y="154" type="line"/>
      <point x="710" y="154" type="line"/>
      <point x="702" y="152"/>
      <point x="686" y="150" type="qcurve"/>
      <point x="681" y="150"/>
      <point x="676" y="148" type="qcurve"/>
      <point x="662" y="148"/>
      <point x="629" y="139" type="qcurve"/>
      <point x="605" y="135"/>
      <point x="596" y="131" type="qcurve"/>
      <point x="576" y="128"/>
      <point x="525" y="113" type="qcurve"/>
      <point x="515" y="111"/>
      <point x="504" y="107"/>
      <point x="494" y="106"/>
      <point x="467" y="97" type="qcurve"/>
      <point x="416" y="82"/>
      <point x="412" y="82" type="qcurve"/>
      <point x="392" y="78"/>
      <point x="383" y="71" type="qcurve"/>
      <point x="369" y="71"/>
      <point x="364" y="66" type="qcurve"/>
      <point x="357" y="66"/>
      <point x="351" y="62" type="qcurve"/>
      <point x="346" y="62"/>
      <point x="340" y="59" type="qcurve"/>
      <point x="336" y="59"/>
      <point x="332" y="56" type="qcurve"/>
      <point x="329" y="56" type="line"/>
      <point x="324" y="54"/>
      <point x="315" y="52"/>
      <point x="305" y="48"/>
      <point x="288" y="45" type="qcurve"/>
      <point x="266" y="37"/>
      <point x="255" y="35" type="qcurve"/>
      <point x="249" y="34"/>
      <point x="243" y="31"/>
      <point x="149" y="11" type="qcurve"/>
      <point x="130" y="10"/>
      <point x="119" y="6" type="qcurve"/>
      <point x="106" y="6"/>
    </contour>
  </outline>
</glyph>
<glyph name="meemhah-arab.init" format="2">
  <advance width="1138"/>
  <unicode hex="FCCF"/>
  <anchor x="775" y="1125" name="Anchor_4_ligComponent_0"/>
  <anchor x="213" y="937" name="Anchor_4_ligComponent_1"/>
  <anchor x="775" y="-63" name="Anchor_5_ligComponent_0"/>
  <anchor x="238" y="-113" name="Anchor_5_ligComponent_1"/>
  <anchor x="0" y="0" name="Anchor_7_ligComponent_0"/>
  <anchor x="0" y="0" name="Anchor_7_ligComponent_1"/>
  <outline>
    <contour>
      <point x="48" y="0" type="qcurve"/>
      <point x="0" y="0" type="line"/>
      <point x="0" y="171" type="line"/>
      <point x="178" y="171"/>
      <point x="295" y="213" type="qcurve"/>
      <point x="404" y="252"/>
      <point x="550" y="298"/>
      <point x="559" y="299"/>
      <point x="561" y="302" type="qcurve"/>
      <point x="559" y="303" type="line"/>
      <point x="554" y="304"/>
      <point x="545" y="308"/>
      <point x="539" y="309" type="qcurve"/>
      <point x="530" y="315"/>
      <point x="454" y="344" type="qcurve"/>
      <point x="329" y="392" type="line"/>
      <point x="318" y="397"/>
      <point x="308" y="400"/>
      <point x="268" y="413"/>
      <point x="263" y="415" type="qcurve"/>
      <point x="252" y="421"/>
      <point x="209" y="432" type="qcurve"/>
      <point x="181" y="441"/>
      <point x="138" y="452"/>
      <point x="50" y="461" type="qcurve"/>
      <point x="26" y="464"/>
      <point x="28" y="489" type="qcurve"/>
      <point x="32" y="543"/>
      <point x="76" y="591" type="qcurve"/>
      <point x="233" y="693"/>
      <point x="489" y="722" type="qcurve"/>
      <point x="575" y="738"/>
      <point x="591" y="738" type="qcurve"/>
      <point x="592" y="739" type="line"/>
      <point x="599" y="739" type="line"/>
      <point x="614" y="742"/>
      <point x="628" y="743"/>
      <point x="634" y="744" type="qcurve"/>
      <point x="654" y="747"/>
      <point x="674" y="748" type="qcurve"/>
      <point x="675" y="749" type="line"/>
      <point x="727" y="753" type="line"/>
      <point x="727" y="754" type="line"/>
      <point x="738" y="754" type="line"/>
      <point x="738" y="756"/>
      <point x="727" y="760" type="qcurve"/>
      <point x="721" y="767"/>
      <point x="710" y="770" type="qcurve"/>
      <point x="707" y="773"/>
      <point x="696" y="779"/>
      <point x="667" y="798"/>
      <point x="660" y="799" type="qcurve"/>
      <point x="651" y="806"/>
      <point x="641" y="811" type="qcurve"/>
      <point x="641" y="817" type="line"/>
      <point x="642" y="818" type="line"/>
      <point x="642" y="826"/>
      <point x="649" y="846" type="qcurve"/>
      <point x="654" y="861"/>
      <point x="659" y="869" type="qcurve"/>
      <point x="661" y="873"/>
      <point x="662" y="878" type="qcurve"/>
      <point x="669" y="887"/>
      <point x="675" y="898"/>
      <point x="679" y="901" type="qcurve"/>
      <point x="681" y="905"/>
      <point x="690" y="914"/>
      <point x="697" y="923" type="qcurve"/>
      <point x="701" y="925"/>
      <point x="703" y="930" type="qcurve"/>
      <point x="714" y="938"/>
      <point x="724" y="948" type="qcurve"/>
      <point x="733" y="946"/>
      <point x="742" y="939" type="qcurve"/>
      <point x="746" y="937"/>
      <point x="756" y="933"/>
      <point x="763" y="928"/>
      <point x="769" y="926" type="qcurve"/>
      <point x="772" y="923"/>
      <point x="778" y="921" type="qcurve"/>
      <point x="784" y="915"/>
      <point x="826" y="892" type="qcurve"/>
      <point x="830" y="889"/>
      <point x="838" y="881"/>
      <point x="867" y="863"/>
      <point x="879" y="851" type="qcurve"/>
      <point x="882" y="848"/>
      <point x="887" y="846" type="qcurve"/>
      <point x="892" y="839"/>
      <point x="901" y="834" type="qcurve"/>
      <point x="915" y="820" type="line"/>
      <point x="926" y="815"/>
      <point x="941" y="795" type="qcurve"/>
      <point x="947" y="785"/>
      <point x="947" y="774" type="qcurve"/>
      <point x="947" y="760"/>
      <point x="927" y="727" type="qcurve"/>
      <point x="925" y="724"/>
      <point x="920" y="715"/>
      <point x="912" y="706"/>
      <point x="907" y="695" type="qcurve"/>
      <point x="901" y="688" type="line"/>
      <point x="896" y="677"/>
      <point x="890" y="673" type="qcurve"/>
      <point x="888" y="669"/>
      <point x="884" y="665" type="qcurve"/>
      <point x="876" y="657"/>
      <point x="873" y="650" type="qcurve"/>
      <point x="860" y="637"/>
      <point x="857" y="632" type="qcurve"/>
      <point x="844" y="632" type="line"/>
      <point x="841" y="631"/>
      <point x="786" y="631" type="qcurve"/>
      <point x="770" y="629"/>
      <point x="636" y="623" type="qcurve"/>
      <point x="621" y="620"/>
      <point x="593" y="620" type="qcurve"/>
      <point x="589" y="618"/>
      <point x="556" y="615" type="qcurve"/>
      <point x="533" y="613"/>
      <point x="406" y="584"/>
      <point x="389" y="580" type="qcurve"/>
      <point x="380" y="577"/>
      <point x="307" y="552"/>
      <point x="304" y="548" type="qcurve"/>
      <point x="324" y="544"/>
      <point x="345" y="537" type="qcurve"/>
      <point x="571" y="446"/>
      <point x="774" y="394"/>
      <point x="781" y="393" type="qcurve"/>
      <point x="804" y="389"/>
      <point x="814" y="385" type="qcurve"/>
      <point x="824" y="384" type="line"/>
      <point x="920" y="365"/>
      <point x="998" y="358"/>
      <point x="1025" y="353" type="qcurve"/>
      <point x="1033" y="353"/>
      <point x="1073" y="349" type="qcurve"/>
      <point x="1090" y="346"/>
      <point x="1104" y="346" type="qcurve"/>
      <point x="1107" y="345"/>
      <point x="1113" y="345" type="qcurve"/>
      <point x="1113" y="343" type="line"/>
      <point x="1085" y="297"/>
      <point x="1082" y="294" type="qcurve"/>
      <point x="1081" y="290"/>
      <point x="1078" y="286" type="qcurve"/>
      <point x="1070" y="276"/>
      <point x="1068" y="269" type="qcurve"/>
      <point x="1062" y="262" type="line"/>
      <point x="1061" y="258"/>
      <point x="1057" y="254" type="qcurve"/>
      <point x="1048" y="235"/>
      <point x="1037" y="221" type="qcurve"/>
      <point x="1034" y="218"/>
      <point x="1033" y="212" type="qcurve"/>
      <point x="1024" y="202"/>
      <point x="1021" y="194" type="qcurve"/>
      <point x="1001" y="197" type="line"/>
      <point x="996" y="197"/>
      <point x="984" y="199"/>
      <point x="971" y="199"/>
      <point x="958" y="201"/>
      <point x="922" y="205" type="qcurve"/>
      <point x="898" y="206"/>
      <point x="892" y="207" type="qcurve"/>
      <point x="866" y="207"/>
      <point x="860" y="208" type="qcurve"/>
      <point x="803" y="209" type="line"/>
      <point x="726" y="207" type="line"/>
      <point x="715" y="206" type="line"/>
      <point x="699" y="203"/>
      <point x="484" y="140"/>
      <point x="455" y="127" type="qcurve"/>
      <point x="190" y="11"/>
    </contour>
  </outline>
</glyph>
<glyph name="meemmeem-arab.init" format="2">
  <advance width="893"/>
  <unicode hex="FCD1"/>
  <anchor x="638" y="1100" name="Anchor_4_ligComponent_0"/>
  <anchor x="100" y="837" name="Anchor_4_ligComponent_1"/>
  <anchor x="675" y="-75" name="Anchor_5_ligComponent_0"/>
  <anchor x="213" y="-163" name="Anchor_5_ligComponent_1"/>
  <anchor x="0" y="0" name="Anchor_7_ligComponent_0"/>
  <anchor x="0" y="0" name="Anchor_7_ligComponent_1"/>
  <outline>
    <contour>
      <point x="9" y="0" type="qcurve"/>
      <point x="0" y="0" type="line"/>
      <point x="0" y="171" type="line"/>
      <point x="76" y="172"/>
      <point x="123" y="210" type="qcurve"/>
      <point x="130" y="214"/>
      <point x="137" y="223" type="qcurve"/>
      <point x="140" y="225"/>
      <point x="145" y="231"/>
      <point x="151" y="236"/>
      <point x="153" y="238"/>
      <point x="155" y="240"/>
      <point x="157" y="242"/>
      <point x="161" y="246"/>
      <point x="162" y="248" type="qcurve"/>
      <point x="171" y="254"/>
      <point x="180" y="266" type="qcurve"/>
      <point x="181" y="266"/>
      <point x="183" y="268"/>
      <point x="205" y="292" type="qcurve"/>
      <point x="215" y="301" type="line"/>
      <point x="247" y="335"/>
      <point x="283" y="348" type="qcurve"/>
      <point x="306" y="675"/>
      <point x="640" y="733" type="qcurve"/>
      <point x="635" y="738"/>
      <point x="626" y="742" type="qcurve"/>
      <point x="624" y="743"/>
      <point x="620" y="747"/>
      <point x="617" y="748" type="qcurve"/>
      <point x="611" y="752"/>
      <point x="603" y="757"/>
      <point x="580" y="773"/>
      <point x="574" y="776" type="qcurve"/>
      <point x="573" y="778" type="line"/>
      <point x="565" y="781"/>
      <point x="550" y="792" type="qcurve"/>
      <point x="545" y="795"/>
      <point x="536" y="800"/>
      <point x="536" y="806" type="qcurve"/>
      <point x="537" y="822" type="line"/>
      <point x="545" y="846" type="line"/>
      <point x="550" y="854"/>
      <point x="556" y="866" type="qcurve"/>
      <point x="557" y="866"/>
      <point x="559" y="870" type="qcurve"/>
      <point x="567" y="879"/>
      <point x="572" y="891" type="qcurve"/>
      <point x="575" y="893" type="line"/>
      <point x="579" y="900"/>
      <point x="586" y="908" type="qcurve"/>
      <point x="587" y="909"/>
      <point x="589" y="912"/>
      <point x="590" y="915" type="qcurve"/>
      <point x="593" y="916"/>
      <point x="594" y="919" type="qcurve"/>
      <point x="597" y="921"/>
      <point x="598" y="924" type="qcurve"/>
      <point x="601" y="926"/>
      <point x="602" y="930" type="qcurve"/>
      <point x="609" y="935"/>
      <point x="622" y="953" type="qcurve"/>
      <point x="631" y="951"/>
      <point x="641" y="944" type="qcurve"/>
      <point x="647" y="942"/>
      <point x="652" y="938" type="qcurve"/>
      <point x="658" y="936"/>
      <point x="669" y="930"/>
      <point x="680" y="923"/>
      <point x="686" y="920" type="qcurve"/>
      <point x="704" y="911"/>
      <point x="722" y="897"/>
      <point x="733" y="890" type="qcurve"/>
      <point x="743" y="883" type="line"/>
      <point x="748" y="877"/>
      <point x="756" y="874" type="qcurve"/>
      <point x="758" y="872"/>
      <point x="760" y="869"/>
      <point x="768" y="864" type="qcurve"/>
      <point x="774" y="857"/>
      <point x="783" y="851" type="qcurve"/>
      <point x="791" y="843"/>
      <point x="793" y="842" type="qcurve"/>
      <point x="796" y="837"/>
      <point x="802" y="833" type="qcurve"/>
      <point x="805" y="827"/>
      <point x="811" y="823" type="qcurve"/>
      <point x="815" y="817" type="line"/>
      <point x="817" y="817" type="line"/>
      <point x="817" y="813"/>
      <point x="825" y="805" type="qcurve"/>
      <point x="825" y="803"/>
      <point x="827" y="802" type="qcurve"/>
      <point x="839" y="778" type="line"/>
      <point x="839" y="775"/>
      <point x="841" y="773" type="qcurve"/>
      <point x="843" y="765"/>
      <point x="843" y="742" type="qcurve"/>
      <point x="840" y="731"/>
      <point x="831" y="711" type="qcurve"/>
      <point x="828" y="705" type="line"/>
      <point x="828" y="702"/>
      <point x="825" y="698"/>
      <point x="824" y="696" type="qcurve"/>
      <point x="819" y="683"/>
      <point x="813" y="674" type="qcurve"/>
      <point x="812" y="671"/>
      <point x="808" y="666"/>
      <point x="807" y="663" type="qcurve"/>
      <point x="798" y="656"/>
      <point x="796" y="648" type="qcurve"/>
      <point x="791" y="644"/>
      <point x="785" y="637" type="qcurve"/>
      <point x="784" y="637"/>
      <point x="779" y="633"/>
      <point x="777" y="629" type="qcurve"/>
      <point x="772" y="627"/>
      <point x="766" y="622" type="qcurve"/>
      <point x="764" y="621" type="line"/>
      <point x="759" y="621" type="line"/>
      <point x="750" y="620" type="line"/>
      <point x="717" y="620"/>
      <point x="717" y="618" type="qcurve"/>
      <point x="708" y="618"/>
      <point x="690" y="616"/>
      <point x="684" y="614" type="qcurve"/>
      <point x="671" y="613" type="line"/>
      <point x="646" y="608" type="line"/>
      <point x="639" y="608"/>
      <point x="630" y="605" type="qcurve"/>
      <point x="626" y="605" type="line"/>
      <point x="624" y="604" type="line"/>
      <point x="596" y="599" type="line"/>
      <point x="594" y="598"/>
      <point x="587" y="596"/>
      <point x="583" y="596" type="qcurve"/>
      <point x="571" y="592"/>
      <point x="565" y="591"/>
      <point x="562" y="589" type="qcurve"/>
      <point x="557" y="589"/>
      <point x="543" y="583" type="qcurve"/>
      <point x="536" y="583"/>
      <point x="511" y="573" type="qcurve"/>
      <point x="502" y="570"/>
      <point x="498" y="567" type="qcurve"/>
      <point x="484" y="564"/>
      <point x="476" y="558" type="qcurve"/>
      <point x="473" y="558"/>
      <point x="469" y="555" type="qcurve"/>
      <point x="449" y="545" type="line"/>
      <point x="446" y="542"/>
      <point x="439" y="540"/>
      <point x="432" y="535"/>
      <point x="422" y="528"/>
      <point x="404" y="516" type="qcurve"/>
      <point x="399" y="510"/>
      <point x="391" y="505" type="qcurve"/>
      <point x="382" y="496"/>
      <point x="378" y="492"/>
      <point x="370" y="482" type="qcurve"/>
      <point x="367" y="477"/>
      <point x="367" y="456" type="qcurve"/>
      <point x="367" y="421"/>
      <point x="383" y="384" type="qcurve"/>
      <point x="391" y="359" type="line"/>
      <point x="505" y="359"/>
      <point x="554" y="245" type="qcurve"/>
      <point x="561" y="230"/>
      <point x="562" y="223" type="qcurve"/>
      <point x="564" y="211"/>
      <point x="570" y="198" type="qcurve"/>
      <point x="570" y="190"/>
      <point x="574" y="182" type="qcurve"/>
      <point x="574" y="178" type="line"/>
      <point x="576" y="174"/>
      <point x="576" y="167" type="qcurve"/>
      <point x="577" y="161" type="line"/>
      <point x="572" y="153"/>
      <point x="567" y="140" type="qcurve"/>
      <point x="563" y="136"/>
      <point x="558" y="122"/>
      <point x="553" y="115" type="qcurve"/>
      <point x="534" y="82" type="line"/>
      <point x="528" y="76"/>
      <point x="522" y="66" type="qcurve"/>
      <point x="518" y="59" type="line"/>
      <point x="512" y="54"/>
      <point x="506" y="46" type="qcurve"/>
      <point x="503" y="44"/>
      <point x="500" y="38" type="qcurve"/>
      <point x="494" y="33" type="line"/>
      <point x="478" y="45" type="line"/>
      <point x="473" y="47"/>
      <point x="460" y="57"/>
      <point x="448" y="66"/>
      <point x="438" y="73" type="qcurve"/>
      <point x="430" y="78" type="line"/>
      <point x="417" y="91"/>
      <point x="410" y="93" type="qcurve"/>
      <point x="405" y="99"/>
      <point x="397" y="105" type="qcurve"/>
      <point x="375" y="124"/>
      <point x="371" y="128"/>
      <point x="368" y="129" type="qcurve"/>
      <point x="361" y="138"/>
      <point x="358" y="140" type="qcurve"/>
      <point x="354" y="146"/>
      <point x="346" y="153" type="qcurve"/>
      <point x="339" y="163"/>
      <point x="330" y="173" type="qcurve"/>
      <point x="327" y="176"/>
      <point x="320" y="189" type="qcurve"/>
      <point x="318" y="190" type="line"/>
      <point x="315" y="198"/>
      <point x="312" y="201" type="qcurve"/>
      <point x="311" y="207"/>
      <point x="306" y="217" type="qcurve"/>
      <point x="304" y="224"/>
      <point x="304" y="229" type="qcurve"/>
      <point x="301" y="229" type="line"/>
      <point x="282" y="222" type="line"/>
      <point x="247" y="201"/>
      <point x="228" y="182" type="qcurve"/>
      <point x="172" y="110"/>
      <point x="129" y="65" type="qcurve"/>
      <point x="64" y="0"/>
    </contour>
  </outline>
</glyph>
